<?xml version="1.0" standalone="no"?>
<!DOCTYPE svg PUBLIC "-//W3C//DTD SVG 1.1//EN" "http://www.w3.org/Graphics/SVG/1.1/DTD/svg11.dtd" >
<svg xmlns="http://www.w3.org/2000/svg" xmlns:xlink="http://www.w3.org/1999/xlink" version="1.1">
<metadata>
Created by FontForge 20170731 at Sat Sep 18 17:09:51 2021
 By Aleksey,,,
EmilyHuo
</metadata>
<defs>
<font id="RaccoonSerif-Base" horiz-adv-x="1024" >
  <font-face 
    font-family="RaccoonSerif"
    font-weight="500"
    font-stretch="normal"
    units-per-em="2048"
    panose-1="2 0 6 3 0 0 0 0 0 0"
    ascent="1536"
    descent="-512"
    x-height="1024"
    cap-height="1536"
    bbox="-256 -512 1792 1536"
    underline-thickness="102"
    underline-position="-358"
    unicode-range="U+0020-3000"
  />
<missing-glyph horiz-adv-x="748" 
d="M68 0v1364h544v-1364h-544zM136 68h408v1228h-408v-1228z" />
    <glyph glyph-name=".notdef" horiz-adv-x="748" 
d="M68 0v1364h544v-1364h-544zM136 68h408v1228h-408v-1228z" />
    <glyph glyph-name=".null" horiz-adv-x="0" 
 />
    <glyph glyph-name="nonmarkingreturn" horiz-adv-x="682" 
 />
    <glyph glyph-name="space" unicode=" " horiz-adv-x="640" 
 />
    <glyph glyph-name="exclam" unicode="!" horiz-adv-x="512" 
d="M256 0h-128v256h256v-256h-128zM256 512h-128v896h256v-896h-128z" />
    <glyph glyph-name="quotedbl" unicode="&#x22;" 
d="M640 768v128v128h-128v384h384v-384h-128v-256h-128zM128 768v128v128h-128v384h384v-384h-128v-256h-128z" />
    <glyph glyph-name="numbersign" unicode="#" horiz-adv-x="1408" 
d="M512 0v128v128h128v-256h-128zM0 0v128v128h128v-256h-128zM640 256v128h-384v-128h-128v128h-256v128h256v128h128v-128h384v128h128v-128h384v-128h-384v-128h-128zM768 640v128v128h-384v-256h-128v256h-256v128h384v128h128v-128h384v128h128v-128h256v-128h-256
v-128h-128v-128h-128zM1024 1152v128v128h128v-256h-128zM512 1152v128v128h128v-256h-128z" />
    <glyph glyph-name="dollar" unicode="$" horiz-adv-x="1280" 
d="M512 -256v128h-256v128h256v640h-256v128h-128v128h-128v256h128v128h128v128h256v128h128v-128h256v-128h128v-128h128v-256h-128v256h-128v128h-256v-512h256v-128h128v-128h128v-384h-128v-128h-128v128h128v384h-128v128h-256v-640h256v-128h-256v-128h-128zM256 0
h-128v128h128v-128zM128 128h-128v256h128v-256zM384 768h128v512h-256v-128h-128v-256h128v-128h128z" />
    <glyph glyph-name="percent" unicode="%" horiz-adv-x="1792" 
d="M384 0v128h128v-128h-128zM1408 128h128v-128h-384v128h256zM1536 128v128v256h128v-384h-128zM1152 128h-128v384h128v-384zM512 128v128v128h128v-256h-128zM640 384v128h128v-128h-128zM1536 512h-128h-256v128h384v-128zM768 512v128v128h128v-256h-128zM896 768v128
h128v-128h-128zM512 896h128v-128h-384v128h256zM1024 896v128v128h128v-256h-128zM640 896v128v256h128v-384h-128zM256 896h-128v384h128v-384zM1152 1152v128v128h128v-256h-128zM640 1280h-128h-256v128h384v-128zM1280 1408v128h128v-128h-128z" />
    <glyph glyph-name="ampersand" unicode="&#x26;" horiz-adv-x="1536" 
d="M1280 0v128h128v-128h-128zM640 128h128v-128h-384v128h256zM1280 128h-128v128h128v-128zM768 128v128h128v-128h-128zM384 128h-128v128h128v-128zM1152 256h-128h-128v256h128v-128h128v-128zM256 256h-128v384h128v-384zM1024 512v128h128v-128h-128zM896 512h-128
v128h128v-128zM1152 640v128h128v-128h-128zM768 640h-128v128h-256v-128h-128v128h128v256h128v-128h256v-256zM768 896v128h128v-128h-128zM896 1024v128v128h128v-256h-128zM384 1024h-128v256h128v-256zM896 1280h-128h-384v128h512v-128z" />
    <glyph glyph-name="quotesingle" unicode="'" horiz-adv-x="512" 
d="M128 896v128v128h-128v384h384v-384h-128v-256h-128z" />
    <glyph glyph-name="parenleft" unicode="(" horiz-adv-x="896" 
d="M640 -384h128v-128h-256v128h128zM512 -384h-128v128h128v-128zM384 -256h-128v256h128v-256zM256 0h-128v1024h128v-1024zM256 1024v128v128h128v-256h-128zM384 1280v128h128v-128h-128zM640 1536h128v-128h-256v128h128z" />
    <glyph glyph-name="parenright" unicode=")" horiz-adv-x="768" 
d="M128 -384h128v-128h-256v128h128zM256 -384v128h128v-128h-128zM384 -256v128v128h128v-256h-128zM512 0v128v896h128v-1024h-128zM512 1024h-128v256h128v-256zM384 1280h-128v128h128v-128zM256 1408h-128h-128v128h256v-128z" />
    <glyph glyph-name="asterisk" unicode="*" 
d="M384 640v128v128h-128v-128h-128v128h128v128h-256v128h256v128h128v256h128v-256h128v-128h256v-128h-256v-128h128v-128h-128v128h-128v-256h-128zM640 1280v128h128v-128h-128zM256 1280h-128v128h128v-128z" />
    <glyph glyph-name="plus" unicode="+" horiz-adv-x="1152" 
d="M512 256v128v256h-384v128h384v384h128v-384h384v-128h-384v-384h-128z" />
    <glyph glyph-name="comma" unicode="," horiz-adv-x="512" 
d="M128 -256v128h128v-128h-128zM256 -128v128h-128v256h256v-384h-128z" />
    <glyph glyph-name="hyphen" unicode="-" horiz-adv-x="768" 
d="M512 640h128v-128h-640v128h512z" />
    <glyph glyph-name="period" unicode="." horiz-adv-x="512" 
d="M256 0h-128v256h256v-256h-128z" />
    <glyph glyph-name="slash" unicode="/" horiz-adv-x="896" 
d="M0 0v128h128v-128h-128zM128 128v128v128h128v-256h-128zM256 384v128v128h128v-256h-128zM384 640v128v128h128v-256h-128zM512 896v128v128h128v-256h-128zM640 1152v128v128h128v-256h-128z" />
    <glyph glyph-name="zero" unicode="0" horiz-adv-x="1152" 
d="M640 128h128v-128h-512v128h384zM768 128v128h128v-128h-128zM256 128h-128v128h-128v896h128v-768h128v-256zM896 256v128v768h128v-896h-128zM256 384v128h128v-128h-128zM384 512v128v128h128v-256h-128zM512 768v128h128v-128h-128zM640 896v128v128h128v-256h-128z
M896 1152h-128v128h128v-128zM128 1152v128h128v-128h-128zM768 1280h-128h-384v128h512v-128z" />
    <glyph glyph-name="one" unicode="1" horiz-adv-x="1280" 
d="M256 1024v128h128v-128h-128zM1024 128h128v-128h-896v128h384v1152h-128v-128h-128v128h128v128h256v-1280h256z" />
    <glyph glyph-name="two" unicode="2" horiz-adv-x="1152" 
d="M128 1024v128v128h128v-256h-128zM896 0h-128h-640v384h128v-256h640v128h128v-256h-128zM256 384v128h128v-128h-128zM512 640h128v-128h-256v128h128zM640 640v128h128v-128h-128zM768 768v128h128v-128h-128zM896 896v128v256h128v-384h-128zM896 1280h-128h-512v128
h640v-128z" />
    <glyph glyph-name="three" unicode="3" horiz-adv-x="1152" 
d="M128 1024v128v128h128v-256h-128zM768 128h128v-128h-640v128h512zM896 128v128v384h128v-512h-128zM256 128h-128v256h128v-256zM896 640h-128h-384v128h384v128h128v-256zM896 896v128v256h128v-384h-128zM896 1280h-128h-512v128h640v-128z" />
    <glyph glyph-name="four" unicode="4" horiz-adv-x="1152" 
d="M768 0h-128h-128v128h128v256h-640v128h128v128h128v256h128v256h128v128h128v128h128v-896h256v-128h-256v-256h128v-128h-128zM512 512h128v640h-128v-256h-128v-256h-128v-128h256z" />
    <glyph glyph-name="five" unicode="5" horiz-adv-x="1280" 
d="M128 640v128v640h896v-128h-768v-384h128v-128h-128v-128h-128zM768 128h128v-128h-640v128h512zM896 128v128h128v-128h-128zM256 128h-128v128h128v-128zM1024 256v128v384h128v-512h-128zM1024 768h-128v128h128v-128zM896 896h-128h-384v128h512v-128z" />
    <glyph glyph-name="six" unicode="6" horiz-adv-x="1152" 
d="M640 128h128v-128h-512v128h384zM768 128v128h128v-128h-128zM256 128h-128v128h128v-128zM896 256v128v256h128v-384h-128zM128 256h-128v768h128v-256h128v-128h-128v-384zM896 640h-128v128h128v-128zM768 768h-128h-384v128h512v-128zM896 1024h-128v256h128v-128
h128v-128h-128zM128 1024v128v128h128v-256h-128zM768 1280h-128h-384v128h512v-128z" />
    <glyph glyph-name="seven" unicode="7" horiz-adv-x="1152" 
d="M256 0v128v256h128v-384h-128zM384 384v128v128h128v-256h-128zM512 640v128h128v-128h-128zM640 768v128v128h128v-256h-128zM768 1024v128h128v-128h-128zM896 1152v128h-768v128h896v-256h-128z" />
    <glyph glyph-name="eight" unicode="8" horiz-adv-x="1152" 
d="M640 128h128v-128h-512v128h384zM768 128v128h128v-128h-128zM256 128h-128v128h128v-128zM896 256v128v256h128v-384h-128zM128 256h-128v384h128v-384zM896 640h-128v128h128v-128zM128 640v128h128v-128h-128zM768 768h-128h-384v128h512v-128zM768 896v128v256h128
v-384h-128zM256 896h-128v384h128v-384zM768 1280h-128h-384v128h512v-128z" />
    <glyph glyph-name="nine" unicode="9" horiz-adv-x="1152" 
d="M640 128h128v-128h-512v128h384zM768 128v128h128v-128h-128zM256 128h-128v128h128v-128zM896 256v128v256h-128v-128h-512v128h512v128h128v384h128v-896h-128zM256 640h-128v128h128v-128zM128 768h-128v384h128v-384zM896 1152h-128v128h128v-128zM128 1152v128h128
v-128h-128zM768 1280h-128h-384v128h512v-128z" />
    <glyph glyph-name="colon" unicode=":" horiz-adv-x="512" 
d="M256 0h-128v256h256v-256h-128zM256 768h-128v256h256v-256h-128z" />
    <glyph glyph-name="semicolon" unicode=";" horiz-adv-x="512" 
d="M128 -256v128h128v-128h-128zM256 -128v128h-128v256h256v-384h-128zM256 768h-128v256h256v-256h-128z" />
    <glyph glyph-name="less" unicode="&#x3c;" horiz-adv-x="1280" 
d="M1024 128v128h128v-128h-128zM1024 256h-128h-128v128h256v-128zM768 384h-128h-128v128h256v-128zM512 512h-128h-128v128h256v-128zM256 640h-128v128h128v-128zM384 896h128v-128h-256v128h128zM640 1024h128v-128h-256v128h128zM896 1152h128v-128h-256v128h128z
M1024 1152v128h128v-128h-128z" />
    <glyph glyph-name="equal" unicode="=" horiz-adv-x="1152" 
d="M896 512h128v-128h-896v128h768zM896 1024h128v-128h-896v128h768z" />
    <glyph glyph-name="greater" unicode="&#x3e;" horiz-adv-x="1152" 
d="M256 384h128v-128h-256v128h128zM512 512h128v-128h-256v128h128zM768 640h128v-128h-256v128h128zM896 640v128h128v-128h-128zM896 768h-128h-128v128h256v-128zM640 896h-128h-128v128h256v-128zM384 1024h-128h-128v128h256v-128z" />
    <glyph glyph-name="question" unicode="?" horiz-adv-x="1152" 
d="M512 0h-128v256h256v-256h-128zM512 384h-128v256h128v128h256v-128h-128v-256h-128zM768 768v128h128v-128h-128zM896 896v128v256h128v-384h-128zM256 1024h-128v256h128v-128h128v-128h-128zM896 1280h-128v128h128v-128zM256 1280v128h128v-128h-128zM768 1408h-128
h-256v128h384v-128z" />
    <glyph glyph-name="at" unicode="@" horiz-adv-x="1920" 
d="M1408 -256h128v-128h-1024v128h896zM1536 -256v128h128v-128h-128zM512 -256h-128v128h128v-128zM384 -128h-128v128h128v-128zM1536 128h128v-128h-256v128h128zM1024 128h128v-128h-512v128h384zM256 0h-128v1024h128v-1024zM1664 128v128v768h128v-896h-128zM1408 128
h-128h-128v768h128v-640h128v-128zM640 128h-128v128h128v-128zM512 256h-128v512h128v-512zM512 768v128h128v-128h-128zM1280 896v128h128v-128h-128zM1152 896h-128h-384v128h512v-128zM1664 1024h-128v128h128v-128zM256 1024v128h128v-128h-128zM1536 1152h-128v128
h128v-128zM384 1152v128h128v-128h-128zM1408 1280h-128h-768v128h896v-128z" />
    <glyph glyph-name="A" unicode="A" horiz-adv-x="1536" 
d="M1280 0h-128v640h128v-512h128v-128h-128zM128 0h-128v128h128v512h128v-640h-128zM1152 640h-128h-768v256h128v-128h640v128h128v-256zM1024 896h-128v256h128v-256zM384 896v128v128h128v-256h-128zM896 1152h-128v256h128v-256zM512 1152v128v128h128v-256h-128z
M768 1408h-128v128h128v-128z" />
    <glyph glyph-name="B" unicode="B" horiz-adv-x="1408" 
d="M896 128h128v128h128v384h-128v128h-768v-640h640zM896 0h-128h-640v1536h768v-128h128v-128h128v-384h-128v384h-128v128h-640v-512h768v-128h128v-128h128v-384h-128v-128h-128v-128h-128z" />
    <glyph glyph-name="C" unicode="C" horiz-adv-x="1536" 
d="M896 128h128v-128h-640v128h512zM1024 128v128h128v-128h-128zM384 128h-128v128h128v-128zM1152 256v128v128h256v-128h-128v-128h-128zM256 256h-128v128h128v-128zM128 384h-128v768h128v-768zM1280 1024h-128v256h128v-128h128v-128h-128zM128 1152v128h128v-128
h-128zM1152 1280h-128v128h128v-128zM256 1280v128h128v-128h-128zM1024 1408h-128h-512v128h640v-128z" />
    <glyph glyph-name="D" unicode="D" horiz-adv-x="1536" 
d="M896 128h128v128h128v128h128v768h-128v128h-128v128h-768v-1280h640zM896 0h-128h-640v1536h896v-128h128v-128h128v-128h128v-768h-128v-128h-128v-128h-128v-128h-128z" />
    <glyph glyph-name="E" unicode="E" horiz-adv-x="1408" 
d="M1152 1280v128h-896v-512h768v-128h-768v-640h896v128h128v-256h-1280v128h128v1280h-128v128h1280v-256h-128z" />
    <glyph glyph-name="F" unicode="F" horiz-adv-x="1280" 
d="M1024 1280v128h-768v-512h640v-128h-640v-640h128v-128h-384v128h128v1280h-128v128h1152v-256h-128z" />
    <glyph glyph-name="G" unicode="G" horiz-adv-x="1664" 
d="M1280 1152v128v128h128v-256h-128zM1024 128h128v-128h-768v128h640zM1152 128v128h128v-128h-128zM384 128h-128v128h128v-128zM1280 256v128v256h-512v128h768v-128h-128v-384h-128zM256 256h-128v128h128v-128zM128 384h-128v768h128v-768zM128 1152v128h128v-128
h-128zM256 1280v128h128v-128h-128zM1280 1408h-128h-768v128h896v-128z" />
    <glyph glyph-name="H" unicode="H" horiz-adv-x="1536" 
d="M1280 0h-128h-128v128h128v640h-896v-640h128v-128h-384v128h128v1280h-128v128h384v-128h-128v-512h896v512h-128v128h384v-128h-128v-1280h128v-128h-128z" />
    <glyph glyph-name="I" unicode="I" horiz-adv-x="896" 
d="M640 128h128v-128h-896v128h384v1280h-384v128h896v-128h-384v-1280h256z" />
    <glyph glyph-name="J" unicode="J" horiz-adv-x="1408" 
d="M512 128h128v-128h-512v128h384zM640 128v128h128v-128h-128zM128 128h-128v128h128v-128zM768 256v128v1024h-384v128h896v-128h-384v-1152h-128zM0 256h-128v256h128v-256z" />
    <glyph glyph-name="K" unicode="K" horiz-adv-x="1536" 
d="M1280 0h-128v256h128v-128h128v-128h-128zM128 0h-128v128h128v1280h-128v128h256v-640h256v128h128v-256h128v-128h128v-128h128v-128h128v-128h-128v128h-128v128h-128v128h-128v128h-256v-128h-128v-640h-128zM640 1024v128h128v-128h-128zM768 1152v128h128v-128
h-128zM896 1280v128h128v-128h-128zM1024 1408v128h128v-128h-128z" />
    <glyph glyph-name="L" unicode="L" horiz-adv-x="1280" 
d="M1024 0h-128h-768v1408h-128v128h384v-128h-128v-1280h768v128h128v-256h-128z" />
    <glyph glyph-name="M" unicode="M" horiz-adv-x="1792" 
d="M768 384v128v128h128v-256h-128zM1536 0h-128h-128v128h128v1152h-128v-128h-128v-256h-128v-256h-128v256h128v256h128v128h128v128h128v128h128v-1408h128v-128h-128zM256 0h-128h-128v128h128v1408h128v-128h128v-128h128v-128h128v-256h128v-256h-128v256h-128v256
h-128v128h-128v-1152h128v-128h-128z" />
    <glyph glyph-name="N" unicode="N" horiz-adv-x="1536" 
d="M1152 0v128h-128v256h128v1024h-128v128h384v-128h-128v-1408h-128zM256 0h-128h-128v128h128v1408h256v-256h128v-128h128v-256h128v-128h128v-256h128v-128h-128v128h-128v256h-128v128h-128v256h-128v128h-128v-1152h128v-128h-128z" />
    <glyph glyph-name="O" unicode="O" horiz-adv-x="1664" 
d="M896 128h128v-128h-512v128h384zM1152 256h128v-128h-256v128h128zM512 128h-128h-128v128h256v-128zM1280 256v128v128h128v-256h-128zM256 256h-128v256h128v-256zM1408 512v128v384h128v-512h-128zM128 512h-128v512h128v-512zM1408 1024h-128v256h128v-256zM128 1024
v128v128h128v-256h-128zM1280 1280h-128h-128v128h256v-128zM384 1408h128v-128h-256v128h128zM1024 1408h-128h-384v128h512v-128z" />
    <glyph glyph-name="P" unicode="P" horiz-adv-x="1408" 
d="M128 0v128v1408h896v-128h128v-128h128v-384h-128v-128h-128v128h128v384h-128v128h-768v-640h768v-128h-768v-640h-128z" />
    <glyph glyph-name="Q" unicode="Q" horiz-adv-x="1536" 
d="M1280 -128v128h128v-128h-128zM1280 0h-128v128h128v-128zM896 128h128v-128h-640v128h512zM1152 128h-128v128h128v-128zM384 128h-128v128h128v-128zM1152 256v128h128v-128h-128zM1024 256h-128v128h128v-128zM256 256h-128v256h128v-256zM1280 384v128v640h128v-768
h-128zM896 384h-128v128h128v-128zM128 512h-128v512h128v-512zM128 1024v128v128h128v-256h-128zM1280 1152h-128v128h128v-128zM1152 1280h-128v128h128v-128zM256 1280v128h128v-128h-128zM1024 1408h-128h-512v128h640v-128z" />
    <glyph glyph-name="R" unicode="R" horiz-adv-x="1536" 
d="M128 0v128v1408h896v-128h128v-128h128v-384h-128v-128h-128v128h128v384h-128v128h-768v-640h768v-256h128v-256h128v-128h128v-128h-256v256h-128v256h-128v128h-640v-640h-128z" />
    <glyph glyph-name="S" unicode="S" horiz-adv-x="1280" 
d="M1024 1024v128v128h128v-256h-128zM768 128h128v-128h-512v128h384zM896 128v128h128v-128h-128zM384 128h-128v128h128v-128zM1024 256v128v128h128v-256h-128zM256 256h-128v256h128v-256zM1024 512h-128v128h128v-128zM896 640h-128h-128v128h256v-128zM640 768h-128
h-128v128h256v-128zM384 896h-128v128h128v-128zM256 1024h-128v256h128v-256zM1024 1280h-128v128h128v-128zM256 1280v128h128v-128h-128zM896 1408h-128h-384v128h512v-128z" />
    <glyph glyph-name="T" unicode="T" horiz-adv-x="1280" 
d="M512 0v128v1280h-512v128h1152v-128h-512v-1408h-128z" />
    <glyph glyph-name="U" unicode="U" horiz-adv-x="1664" 
d="M896 128h128v-128h-512v128h384zM1152 256h128v-128h-256v128h128zM512 128h-128h-128v128h256v-128zM1280 256v128v1024h-128v128h384v-128h-128v-1152h-128zM256 256h-128v1152h-128v128h384v-128h-128v-1152z" />
    <glyph glyph-name="V" unicode="V" horiz-adv-x="1664" 
d="M640 0v128h128v-128h-128zM768 128v128v128h128v-256h-128zM640 128h-128v256h128v-256zM896 384v128v128h128v-256h-128zM512 384h-128v256h128v-256zM1024 640v128v256h128v-384h-128zM384 640h-128v384h128v-384zM1152 1024v128v128h128v-256h-128zM256 1024h-128v256
h128v-256zM1280 1280v128h-128v128h384v-128h-128v-128h-128zM128 1280h-128v128h-128v128h384v-128h-128v-128z" />
    <glyph glyph-name="W" unicode="W" horiz-adv-x="1920" 
d="M1152 0v128v128h128v-256h-128zM384 0v128v128h128v-256h-128zM1280 256v128v384h128v-512h-128zM1152 256h-128v128h128v-128zM512 256v128h128v-128h-128zM384 256h-128v512h128v-512zM1024 384h-128v256h128v-256zM640 384v128v128h128v-256h-128zM896 640h-128v384
h128v-384zM1408 768v128v256h128v-384h-128zM256 768h-128v384h128v-384zM1536 1152v128v256h256v-128h-128v-256h-128zM128 1152h-128v256h-128v128h256v-384z" />
    <glyph glyph-name="X" unicode="X" horiz-adv-x="1536" 
d="M1280 0h-128v256h128v-128h128v-128h-128zM128 0h-128v128h128v128h128v-256h-128zM1152 256h-128v128h128v-128zM256 256v128h128v-128h-128zM1024 384h-128v128h128v-128zM384 384v128h128v-128h-128zM896 512h-128v128h128v-128zM512 512v128h128v-128h-128zM768 640
h-128v128h128v-128zM768 768v128h128v-128h-128zM640 768h-128v128h128v-128zM896 896v128h128v-128h-128zM512 896h-128v128h128v-128zM1024 1024v128v128h128v-256h-128zM384 1024h-128v256h128v-256zM1152 1280v128v128h256v-128h-128v-128h-128zM256 1280h-128v128h-128
v128h256v-256z" />
    <glyph glyph-name="Y" unicode="Y" horiz-adv-x="1536" 
d="M768 0h-128h-128v128h128v640h128v-640h128v-128h-128zM768 768v128h128v-128h-128zM640 768h-128v128h128v-128zM896 896v128h128v-128h-128zM512 896h-128v128h128v-128zM1024 1024v128v128h128v-256h-128zM384 1024h-128v256h128v-256zM1152 1280v128v128h256v-128
h-128v-128h-128zM256 1280h-128v128h-128v128h256v-256z" />
    <glyph glyph-name="Z" unicode="Z" horiz-adv-x="1408" 
d="M0 1280v128v128h1280v-256h-128v-128h-128v-128h-128v-128h-128v-128h-128v-128h-128v-128h-128v-128h-128v-128h-128v-128h1024v128h128v-256h-1280v256h128v128h128v128h128v128h128v128h128v128h128v128h128v128h128v128h128v128h-1024v-128h-128z" />
    <glyph glyph-name="bracketleft" unicode="[" horiz-adv-x="768" 
d="M512 -256h128v-128h-512v1920h512v-128h-384v-1664h256z" />
    <glyph glyph-name="backslash" unicode="\" horiz-adv-x="896" 
d="M640 0v128h128v-128h-128zM640 128h-128v256h128v-256zM512 384h-128v256h128v-256zM384 640h-128v256h128v-256zM256 896h-128v256h128v-256zM128 1152h-128v256h128v-256z" />
    <glyph glyph-name="bracketright" unicode="]" horiz-adv-x="512" 
d="M256 -384h-128h-256v128h384v1664h-384v128h512v-1920h-128z" />
    <glyph glyph-name="asciicircum" unicode="^" 
d="M768 768v128h128v-128h-128zM0 768v128h128v-128h-128zM768 896h-128v256h128v-256zM128 896v128v128h128v-256h-128zM640 1152h-128v128h128v-128zM256 1152v128h128v-128h-128zM512 1280h-128v256h128v-256z" />
    <glyph glyph-name="underscore" unicode="_" horiz-adv-x="1280" 
d="M1024 -256h128v-128h-1152v128h1024z" />
    <glyph glyph-name="grave" unicode="`" horiz-adv-x="896" 
d="M640 768v128h-128v128h-128v128h-128v128h-128v128h384v-128h128v-256h128v-256h-128z" />
    <glyph glyph-name="a" unicode="a" horiz-adv-x="1280" 
d="M128 768v128h128v-128h-128zM1024 0h-128v128h-128v128h128v256h-640v-384h512v-128h-512v128h-128v384h128v128h640v256h128v-768h128v-128h-128zM896 896h-128h-512v128h640v-128z" />
    <glyph glyph-name="b" unicode="b" horiz-adv-x="1280" 
d="M768 128h128v-128h-512v128h384zM128 0h-128v128h128v1280h-128v128h256v-640h128v-128h-128v-512h128v-128h-128v-128h-128zM896 128v128h128v-128h-128zM1024 256v128v384h128v-512h-128zM1024 768h-128v128h128v-128zM896 896h-128h-384v128h512v-128z" />
    <glyph glyph-name="c" unicode="c" horiz-adv-x="1152" 
d="M768 768v128h-512v-128h-128v-512h128v-128h512v-128h-512v128h-128v128h-128v512h128v128h128v128h640v-256h-128zM768 128v128h128v-128h-128zM896 256v128h128v-128h-128z" />
    <glyph glyph-name="d" unicode="d" horiz-adv-x="1280" 
d="M1024 0h-128v128h-128v-128h-512v128h512v128h128v512h-128v128h128v512h-128v128h256v-1408h128v-128h-128zM256 128h-128v128h128v-128zM128 256h-128v512h128v-512zM128 768v128h128v-128h-128zM768 896h-128h-384v128h512v-128z" />
    <glyph glyph-name="e" unicode="e" horiz-adv-x="1152" 
d="M768 128h128v-128h-640v128h512zM896 128v128h128v-128h-128zM256 128h-128v128h128v-128zM128 256h-128v512h128v-128h768v128h128v-256h-896v-256zM896 768h-128v128h128v-128zM128 768v128h128v-128h-128zM768 896h-128h-384v128h512v-128z" />
    <glyph glyph-name="f" unicode="f" 
d="M768 1152v128v128h128v-256h-128zM384 0h-128h-128v128h128v640h-256v128h256v512h128v-512h384v-128h-384v-640h128v-128h-128zM768 1408h-128h-256v128h384v-128z" />
    <glyph glyph-name="g" unicode="g" horiz-adv-x="1280" 
d="M640 -384h128v-128h-512v128h384zM768 -384v128h128v-128h-128zM256 -384h-128v128h128v-128zM896 -256v128v256h-128v-128h-512v128h512v128h128v512h-128v128h128v128h256v-128h-128v-1152h-128zM256 128h-128v128h128v-128zM128 256h-128v512h128v-512zM128 768v128
h128v-128h-128zM768 896h-128h-384v128h512v-128z" />
    <glyph glyph-name="h" unicode="h" horiz-adv-x="1408" 
d="M1152 0h-128v768h128v-640h128v-128h-128zM256 0h-128v1408h-128v128h256v-640h128v-128h-128v-640h128v-128h-128zM1024 768h-128v128h128v-128zM896 896h-128h-384v128h512v-128z" />
    <glyph glyph-name="i" unicode="i" horiz-adv-x="512" 
d="M256 0h-128h-128v128h128v768h-128v128h256v-896h128v-128h-128zM128 1280h-128v256h256v-256h-128z" />
    <glyph glyph-name="j" unicode="j" horiz-adv-x="512" 
d="M128 -384h128v-128h-384v128h256zM256 -384v128v1152h-128v128h256v-1408h-128zM-128 -384h-128v128h128v-128zM256 1280h-128v256h256v-256h-128z" />
    <glyph glyph-name="k" unicode="k" horiz-adv-x="1280" 
d="M1024 0h-128v256h128v-128h128v-128h-128zM256 0h-128v128h128v1280h-128v128h256v-768h128v-128h128v-128h128v-128h128v-128h-128v128h-128v128h-128v128h-128v-640h-128zM512 768v128h128v-128h-128zM640 896v128h128v-128h-128zM768 1024v128h128v-128h-128z" />
    <glyph glyph-name="l" unicode="l" horiz-adv-x="512" 
d="M256 0h-128h-128v128h128v1280h-128v128h256v-1408h128v-128h-128z" />
    <glyph glyph-name="m" unicode="m" horiz-adv-x="1920" 
d="M1664 0h-128v768h128v-640h128v-128h-128zM896 0h-128v896h256v-128h-128v-640h128v-128h-128zM256 0h-128h-128v128h128v768h-128v128h256v-128h128v-128h-128v-640h128v-128h-128zM1536 768h-128v128h128v-128zM1408 896h-128h-256v128h384v-128zM768 896h-128h-256
v128h384v-128z" />
    <glyph glyph-name="n" unicode="n" horiz-adv-x="1280" 
d="M1024 0h-128v896h128v-768h128v-128h-128zM256 0h-128h-128v128h128v768h-128v128h256v-128h128v-128h-128v-640h128v-128h-128zM896 896h-128h-384v128h512v-128z" />
    <glyph glyph-name="o" unicode="o" horiz-adv-x="1280" 
d="M768 128h128v-128h-512v128h384zM896 128v128h128v-128h-128zM384 128h-128v128h128v-128zM1024 256v128v384h128v-512h-128zM256 256h-128v512h128v-512zM1024 768h-128v128h128v-128zM256 768v128h128v-128h-128zM896 896h-128h-384v128h512v-128z" />
    <glyph glyph-name="p" unicode="p" horiz-adv-x="1280" 
d="M256 -512h-128h-128v128h128v1280h-128v128h256v-128h128v-128h-128v-512h128v-128h512v-128h-512v128h-128v-512h128v-128h-128zM896 128v128h128v-128h-128zM1024 256v128v384h128v-512h-128zM1024 768h-128v128h128v-128zM896 896h-128h-384v128h512v-128z" />
    <glyph glyph-name="q" unicode="q" horiz-adv-x="1280" 
d="M1024 -512h-128h-128v128h128v512h-128v-128h-512v128h512v128h128v512h-128v128h128v128h256v-128h-128v-1280h128v-128h-128zM256 128h-128v128h128v-128zM128 256h-128v512h128v-512zM128 768v128h128v-128h-128zM768 896h-128h-384v128h512v-128z" />
    <glyph glyph-name="r" unicode="r" 
d="M768 640v128v128h128v-256h-128zM256 0h-128h-128v128h128v768h-128v128h256v-128h128v-128h-128v-640h128v-128h-128zM768 896h-128h-256v128h384v-128z" />
    <glyph glyph-name="s" unicode="s" 
d="M768 768v128h128v-128h-128zM640 128h128v-128h-512v128h384zM768 128v128v128h128v-256h-128zM256 128h-128v128h128v-128zM768 384h-128h-128v128h256v-128zM512 512h-128h-128v128h256v-128zM256 640h-128v256h128v-256zM768 896h-128h-384v128h512v-128z" />
    <glyph glyph-name="t" unicode="t" horiz-adv-x="896" 
d="M512 128h128v-128h-256v128h128zM640 128v128h128v-128h-128zM384 128h-128v768h-256v128h256v512h128v-512h384v-128h-384v-768z" />
    <glyph glyph-name="u" unicode="u" horiz-adv-x="1408" 
d="M1152 0h-128v128h-128v-128h-512v128h512v128h128v640h-128v128h256v-896h128v-128h-128zM384 128h-128v128h128v-128zM256 256h-128v640h-128v128h256v-768z" />
    <glyph glyph-name="v" unicode="v" horiz-adv-x="1280" 
d="M512 0v128h128v-128h-128zM640 128v128h128v-128h-128zM512 128h-128v128h128v-128zM768 256v128v128h128v-256h-128zM384 256h-128v256h128v-256zM896 512v128v128h128v-256h-128zM256 512h-128v256h128v-256zM1024 768v128h-128v128h256v-256h-128zM128 768h-128v256
h256v-128h-128v-128z" />
    <glyph glyph-name="w" unicode="w" horiz-adv-x="1536" 
d="M896 0v128v128h128v-256h-128zM384 0v128v128h128v-256h-128zM1024 256v128v128h128v-256h-128zM896 256h-128v256h128v-256zM512 256v128v128h128v-256h-128zM384 256h-128v256h128v-256zM1152 512v128v384h256v-128h-128v-384h-128zM768 512h-128v256h128v-256z
M256 512h-128v384h-128v128h256v-512z" />
    <glyph glyph-name="x" unicode="x" horiz-adv-x="1152" 
d="M896 0h-128v256h128v-128h128v-128h-128zM256 0h-128v128h128v128h128v-256h-128zM768 256h-128v128h128v-128zM384 256v128h128v-128h-128zM640 384h-128v256h128v-256zM640 640v128h128v-128h-128zM512 640h-128v128h128v-128zM768 768v128v128h256v-128h-128v-128
h-128zM384 768h-128v128h-128v128h256v-256z" />
    <glyph glyph-name="y" unicode="y" horiz-adv-x="1152" 
d="M128 -256h128v-128h-256v128h128zM256 -256v128h128v-128h-128zM384 -128v128h128v-128h-128zM512 0v128v128h128v-256h-128zM640 256v128h128v-128h-128zM512 256h-128v128h128v-128zM768 384v128v128h128v-256h-128zM384 384h-128v256h128v-256zM896 640v128v128h-128
v128h256v-384h-128zM256 640h-128v256h-128v128h256v-384z" />
    <glyph glyph-name="z" unicode="z" 
d="M128 768v128v128h768v-256h-128v-128h-128v-128h-128v-128h-128v-128h-128v-128h512v128h128v-256h-768v256h128v128h128v128h128v128h128v128h128v128h-512v-128h-128z" />
    <glyph glyph-name="braceleft" unicode="{" horiz-adv-x="768" 
d="M512 -384h128v-128h-256v128h128zM384 -384h-128v768h128v-768zM256 384h-128v128h128v-128zM128 512h-128v128h128v-128zM128 640v128h128v-128h-128zM256 768v128v512h128v-640h-128zM512 1536h128v-128h-256v128h128z" />
    <glyph glyph-name="bar" unicode="|" horiz-adv-x="512" 
d="M256 -384v128v1792h128v-1920h-128z" />
    <glyph glyph-name="braceright" unicode="}" horiz-adv-x="768" 
d="M128 -384h128v-128h-256v128h128zM256 -384v128v640h128v-768h-128zM384 384v128h128v-128h-128zM512 512v128h128v-128h-128zM512 640h-128v128h128v-128zM384 768h-128v640h128v-640zM256 1408h-128h-128v128h256v-128z" />
    <glyph glyph-name="asciitilde" unicode="~" horiz-adv-x="1536" 
d="M-128 384v128v128h128v-256h-128zM1024 384h128v-128h-384v128h256zM1152 384v128h128v-128h-128zM768 384h-128v256h128v-256zM1280 512v128v128h128v-256h-128zM640 640h-128v128h128v-128zM0 640v128h128v-128h-128zM512 768h-128h-256v128h384v-128z" />
    <glyph glyph-name="uni00A0" unicode="&#xa0;" horiz-adv-x="640" 
 />
    <glyph glyph-name="exclamdown" unicode="&#xa1;" horiz-adv-x="640" 
d="M384 -384h-128v896h256v-896h-128zM384 768h-128v256h256v-256h-128z" />
    <glyph glyph-name="cent" unicode="&#xa2;" horiz-adv-x="1152" 
d="M128 -128v128h128v-128h-128zM896 768v128h128v-128h-128zM640 128h128v-128h-512v128h128v256h128v-256h128zM768 128v128h128v-128h-128zM256 128h-128v128h128v-128zM896 256v128h128v-128h-128zM128 256h-128v640h128v-640zM512 384v128v128h128v-256h-128zM640 640
v128v128h128v-256h-128zM896 896h-128v128h128v-128zM128 896v128h128v-128h-128zM896 1024v128h128v-128h-128zM768 1024h-128h-384v128h512v-128z" />
    <glyph glyph-name="sterling" unicode="&#xa3;" horiz-adv-x="1280" 
d="M896 1152v128h128v-128h-128zM896 128h128v-128h-256v128h128zM256 128h128v-128h-384v256h128v-128h128zM1024 128v128h128v-128h-128zM768 128h-128h-256v128h384v-128zM128 256v128h128v-128h-128zM256 384v128v128h-256v128h256v128h128v-128h512v-128h-512v-256
h-128zM256 896h-128v512h128v-512zM896 1280h-128v128h128v-128zM768 1408h-128h-384v128h512v-128z" />
    <glyph glyph-name="currency" unicode="&#xa4;" horiz-adv-x="1152" 
d="M896 256v128h128v-128h-128zM128 256v128h128v-128h-128zM640 384h128v-128h-384v128h256zM896 384h-128v128h128v-128zM384 384h-128v128h128v-128zM896 512v128v256h128v-384h-128zM256 512h-128v384h128v-384zM896 896h-128v128h128v-128zM256 896v128h128v-128h-128z
M896 1024v128h128v-128h-128zM768 1024h-128h-256v128h384v-128zM256 1024h-128v128h128v-128z" />
    <glyph glyph-name="yen" unicode="&#xa5;" horiz-adv-x="1280" 
d="M512 0v128v256h-384v128h384v128h-384v128h384v128h128v-128h384v-128h-384v-128h384v-128h-384v-384h-128zM640 896v128h128v-128h-128zM512 896h-128v128h128v-128zM768 1024v128h128v-128h-128zM384 1024h-128v128h128v-128zM896 1152v128h128v-128h-128zM256 1152
h-128v128h128v-128zM1024 1280v128h128v-128h-128zM128 1280h-128v128h128v-128z" />
    <glyph glyph-name="brokenbar" unicode="&#xa6;" horiz-adv-x="512" 
d="M256 -384v128v640h128v-768h-128zM256 640v128v640h128v-768h-128z" />
    <glyph glyph-name="section" unicode="&#xa7;" horiz-adv-x="1152" 
d="M768 1024v128v128h128v-256h-128zM768 -256h128v-128h-640v128h512zM896 -256v128v128h128v-256h-128zM256 -256h-128v256h128v-256zM896 0h-128h-128v128h256v-128zM896 128v128v256h128v-384h-128zM640 128h-128h-128v128h256v-128zM384 256h-128v128h128v-128z
M256 384h-128v384h128v-384zM896 512h-128v128h128v-128zM768 640h-128h-128v128h256v-128zM512 768h-128h-128v256h128v-128h128v-128zM256 1024h-128v256h128v-256zM768 1280h-128h-384v128h512v-128z" />
    <glyph glyph-name="dieresis" unicode="&#xa8;" horiz-adv-x="896" 
d="M640 1152h-128v256h256v-256h-128zM128 1152h-128v256h256v-256h-128z" />
    <glyph glyph-name="copyright" unicode="&#xa9;" horiz-adv-x="1664" 
d="M1024 896v128h128v-128h-128zM1024 128h128v-128h-768v128h640zM1152 128v128h128v-128h-128zM384 128h-128v128h128v-128zM1280 256v128h128v-128h-128zM896 384h128v-128h-512v128h384zM256 256h-128v128h128v-128zM1408 384v128v512h128v-640h-128zM1024 384v128h128
v-128h-128zM512 384h-128v128h128v-128zM128 384h-128v640h128v-640zM384 512h-128v384h128v-384zM384 896v128h128v-128h-128zM1408 1024h-128v128h128v-128zM1024 1024h-128h-384v128h512v-128zM128 1024v128h128v-128h-128zM1280 1152h-128v128h128v-128zM256 1152v128
h128v-128h-128zM1152 1280h-128h-640v128h768v-128z" />
    <glyph glyph-name="ordfeminine" unicode="&#xaa;" horiz-adv-x="768" 
d="M128 1280v128h128v-128h-128zM512 768h-128h-256v128h-128v128h128v128h256v-128h-128v-128h256v512h128v-640h-128zM512 1408h-128h-128v128h256v-128z" />
    <glyph glyph-name="guillemotleft" unicode="&#xab;" 
d="M768 128v128h-128v128h-128v-256h-128v128h-128v128h-128v256h128v128h128v-384h128v256h128v128h128v-384h128v-256h-128zM768 768v128h128v-128h-128zM384 768v128h128v-128h-128z" />
    <glyph glyph-name="logicalnot" unicode="&#xac;" horiz-adv-x="1152" 
d="M896 384v128v384h-768v128h896v-640h-128z" />
    <glyph glyph-name="registered" unicode="&#xae;" horiz-adv-x="1536" 
d="M896 384v128h128v-128h-128zM384 384v128v640h512v-128h128v-256h-128v256h-384v-256h384v-256h-128v128h-256v-256h-128zM896 128h128v-128h-640v128h512zM1024 128v128h128v-128h-128zM384 128h-128v128h128v-128zM1152 256v128h128v-128h-128zM256 256h-128v128h128
v-128zM1280 384v128v512h128v-640h-128zM128 384h-128v640h128v-640zM1280 1024h-128v256h128v-256zM128 1024v128v128h128v-256h-128zM1152 1280h-128h-128v128h256v-128zM384 1408h128v-128h-256v128h128zM896 1408h-128h-256v128h384v-128z" />
    <glyph glyph-name="macron" unicode="&#xaf;" horiz-adv-x="1280" 
d="M1024 896h128v-128h-1024v128h896z" />
    <glyph glyph-name="degree" unicode="&#xb0;" horiz-adv-x="768" 
d="M384 1024h128v-128h-256v128h128zM512 1024v128v128h128v-256h-128zM256 1024h-128v256h128v-256zM512 1280h-128h-128v128h256v-128z" />
    <glyph glyph-name="plusminus" unicode="&#xb1;" horiz-adv-x="1152" 
d="M896 256h128v-128h-896v128h384v384h-384v128h384v256h128v-256h384v-128h-384v-384h256z" />
    <glyph glyph-name="uni00B2" unicode="&#xb2;" horiz-adv-x="768" 
d="M0 1280v128h128v-128h-128zM512 896h128v-128h-640v128h128v128h128v-128h256zM384 1152h128v-128h-256v128h128zM512 1152v128v128h128v-256h-128zM512 1408h-128h-256v128h384v-128z" />
    <glyph glyph-name="uni00B3" unicode="&#xb3;" horiz-adv-x="640" 
d="M0 1280v128h128v-128h-128zM384 640h-128h-128v128h256v256h-256v128h256v256h128v-768h-128zM128 768h-128v128h128v-128zM384 1408h-128h-128v128h256v-128z" />
    <glyph glyph-name="acute" unicode="&#xb4;" horiz-adv-x="768" 
d="M384 1280h-128v128h128v128h256v-128h-128v-128h-128z" />
    <glyph glyph-name="uni00B5" unicode="&#xb5;" horiz-adv-x="1152" 
d="M256 -384h-128v1408h256v-896h384v896h256v-896h-128v-128h-512v-384h-128z" />
    <glyph glyph-name="paragraph" unicode="&#xb6;" horiz-adv-x="1280" 
d="M768 -384v128v1536h-256v-1664h-128v1024h-256v128h-128v512h128v128h1024v-128h-256v-1664h-128z" />
    <glyph glyph-name="periodcentered" unicode="&#xb7;" horiz-adv-x="512" 
d="M256 640v128v128h128v-256h-128z" />
    <glyph glyph-name="cedilla" unicode="&#xb8;" horiz-adv-x="640" 
d="M384 -384h-128h-128v128h256v128h128v-256h-128zM384 -128h-128v128h128v-128z" />
    <glyph glyph-name="uni00B9" unicode="&#xb9;" horiz-adv-x="640" 
d="M384 768h-128v384h-128v256h384v-640h-128z" />
    <glyph glyph-name="ordmasculine" unicode="&#xba;" horiz-adv-x="768" 
d="M384 896h128v-128h-384v128h256zM512 896v128v256h128v-384h-128zM128 896h-128v384h128v-384zM512 1280h-128h-256v128h384v-128z" />
    <glyph glyph-name="guillemotright" unicode="&#xbb;" 
d="M512 0v128h128v-128h-128zM128 0v128h128v-128h-128zM640 128v128v128h128v-256h-128zM256 128v128v128h128v-256h-128zM768 384v128v128h128v-256h-128zM384 384v128v128h128v-256h-128zM768 640h-128v256h128v-256zM384 640h-128v256h128v-256zM640 896h-128v128h128
v-128zM256 896h-128v128h128v-128z" />
    <glyph glyph-name="onequarter" unicode="&#xbc;" horiz-adv-x="1792" 
d="M1408 0v128h-384v128h128v256h128v128h128v128h128v-512h128v-128h-128v-128h-128zM384 128v128h128v-128h-128zM1408 256v128h-128v-128h128zM512 256v128h128v-128h-128zM640 384v128v128h128v128h128v-256h-128v-128h-128zM896 768v128v128h128v128h128v-256h-128
v-128h-128zM384 768h-128v384h-128v256h384v-640h-128zM1152 1152v128h128v-128h-128zM1280 1280v128h128v-128h-128z" />
    <glyph glyph-name="onehalf" unicode="&#xbd;" horiz-adv-x="1792" 
d="M1152 512v128h128v-128h-128zM1536 128h128v-128h-640v128h128v128h256v-128h128zM384 0h-128v128h128v128h128v-256h-128zM1408 256v128h128v-128h-128zM512 256v128v128h128v128h128v-256h-128v-128h-128zM1536 384v128h-128v128h-128v128h256v-128h128v-256h-128z
M768 640v128h128v-128h-128zM896 768v128v128h128v128h128v-256h-128v-128h-128zM384 768h-128v384h-128v256h384v-640h-128zM1152 1152v128v128h128v128h128v-256h-128v-128h-128z" />
    <glyph glyph-name="threequarters" unicode="&#xbe;" horiz-adv-x="1792" 
d="M1408 0v128h-384v128h128v256h128v128h128v128h128v-512h128v-128h-128v-128h-128zM384 0v128v128h128v-256h-128zM128 1280v128h128v-128h-128zM1408 256v128h-128v-128h128zM512 256v128h128v-128h-128zM640 384v128v128h128v128h128v-256h-128v-128h-128zM896 768v128
h128v-128h-128zM512 768h-128h-256v128h384v128h128v-256h-128zM1024 896v128v128h128v-256h-128zM512 1024h-128h-128v128h128v256h256v-128h-128v-256zM1152 1152v128h128v-128h-128zM1280 1280v128h128v-128h-128zM384 1408h-128v128h128v-128z" />
    <glyph glyph-name="questiondown" unicode="&#xbf;" horiz-adv-x="1152" 
d="M768 -384h-128h-384v128h-128v384h128v128h128v128h128v256h256v-128h-128v-256h-128v-128h-128v-384h384v128h128v128h128v-256h-128v-128h-128zM640 1024h128v-128h-256v128h128z" />
    <glyph glyph-name="Agrave" unicode="&#xc0;" horiz-adv-x="1280" 
d="M1024 0v128h-128v256h-640v-384h-256v256h128v256h128v384h128v256h128v128h128v128h128v-384h128v-384h128v-256h128v-384h-128zM640 512h128v384h-128v128h-128v-256h-128v-256h256zM640 1408h-128v128h128v-128z" />
    <glyph glyph-name="Aacute" unicode="&#xc1;" horiz-adv-x="1280" 
d="M1024 0v128h-128v256h-640v-384h-256v256h128v256h128v384h128v256h128v128h256v-256h128v-384h128v-256h128v-384h-128zM512 1408v128h128v-128h-128zM640 512h128v384h-128v128h-128v-256h-128v-256h256z" />
    <glyph glyph-name="Acircumflex" unicode="&#xc2;" horiz-adv-x="1280" 
d="M1024 0v128h-128v256h-640v-384h-256v256h128v256h128v384h128v256h128v128h256v-256h128v-384h128v-256h128v-384h-128zM640 1408v128h128v-128h-128zM384 1408v128h128v-128h-128zM640 512h128v384h-128v128h-128v-256h-128v-256h256z" />
    <glyph glyph-name="Atilde" unicode="&#xc3;" horiz-adv-x="1280" 
d="M1024 0v128h-128v256h-640v-384h-256v256h128v256h128v384h128v256h128v128h256v-256h128v-384h128v-256h128v-384h-128zM640 512h128v384h-128v128h-128v-256h-128v-256h256zM768 1536h128v-128h-640v128h512z" />
    <glyph glyph-name="Adieresis" unicode="&#xc4;" horiz-adv-x="1280" 
d="M1024 0v128h-128v256h-640v-384h-256v256h128v256h128v384h128v256h128v128h256v-256h128v-384h128v-256h128v-384h-128zM384 1408v128h128v-128h-128zM640 512h128v384h-128v128h-128v-256h-128v-256h256zM768 1536h128v-128h-256v128h128z" />
    <glyph glyph-name="Aring" unicode="&#xc5;" horiz-adv-x="1280" 
d="M1024 0v128h-128v256h-640v-384h-256v256h128v256h128v384h128v256h128v256h128v128h128v-512h128v-384h128v-256h128v-384h-128zM640 512h128v384h-128v128h-128v-256h-128v-256h256zM512 1408h-128v128h128v-128z" />
    <glyph glyph-name="AE" unicode="&#xc6;" horiz-adv-x="1920" 
d="M1664 128h128v-128h-896v384h-512v-128h-128v-256h-256v128h128v256h128v256h128v256h128v384h1152v-128h-640v-384h640v-128h-640v-512h640zM768 512h128v640h-256v-384h-128v-256h256z" />
    <glyph glyph-name="Ccedilla" unicode="&#xc7;" horiz-adv-x="1280" 
d="M1024 896v128v128h128v-256h-128zM640 -384h-128v128h128v128h-128v128h-128v128h-128v128h-128v768h128v-640h128v-128h128v-128h384v128h128v128h128v-256h-128v-128h-256v-128h128v-128h-128v-128h-128zM256 1024v128v128h384v128h128v-128h256v-128h-640v-128h-128z
" />
    <glyph glyph-name="Egrave" unicode="&#xc8;" horiz-adv-x="1280" 
d="M1024 128h128v-128h-1024v1280h896v-128h-768v-384h768v-128h-640v-128h-128v-256h128v-128h640zM640 1536h128v-128h-256v128h128z" />
    <glyph glyph-name="Eacute" unicode="&#xc9;" horiz-adv-x="1280" 
d="M512 1408v128h128v-128h-128zM1024 128h128v-128h-1024v1280h896v-128h-768v-384h768v-128h-640v-128h-128v-256h128v-128h640z" />
    <glyph glyph-name="Ecircumflex" unicode="&#xca;" horiz-adv-x="1280" 
d="M384 1408v128h128v-128h-128zM1024 128h128v-128h-1024v1280h896v-128h-768v-384h768v-128h-640v-128h-128v-256h128v-128h640zM768 1536h128v-128h-256v128h128z" />
    <glyph glyph-name="Edieresis" unicode="&#xcb;" horiz-adv-x="1280" 
d="M384 1408v128h128v-128h-128zM1024 128h128v-128h-1024v1280h896v-128h-768v-384h768v-128h-640v-128h-128v-256h128v-128h640zM768 1536h128v-128h-256v128h128z" />
    <glyph glyph-name="Igrave" unicode="&#xcc;" horiz-adv-x="512" 
d="M256 1408v128h128v-128h-128zM256 0h-128v1280h256v-1280h-128z" />
    <glyph glyph-name="Iacute" unicode="&#xcd;" horiz-adv-x="512" 
d="M128 1408v128h128v-128h-128zM256 0h-128v1280h256v-1280h-128z" />
    <glyph glyph-name="Icircumflex" unicode="&#xce;" horiz-adv-x="640" 
d="M0 1408v128h128v-128h-128zM256 0h-128v1280h256v-1280h-128zM384 1536h128v-128h-256v128h128z" />
    <glyph glyph-name="Idieresis" unicode="&#xcf;" horiz-adv-x="640" 
d="M384 1408v128h128v-128h-128zM0 1408v128h128v-128h-128zM256 0h-128v1280h256v-1280h-128z" />
    <glyph glyph-name="Eth" unicode="&#xd0;" horiz-adv-x="1408" 
d="M768 0h-128h-512v640h-128v128h128v512h896v-128h128v-384h128v-256h-128v-256h-128v768h-128v128h-640v-384h384v-128h-256v-128h-128v-256h128v-128h384v128h256v-128h-128v-128h-128z" />
    <glyph glyph-name="Ntilde" unicode="&#xd1;" horiz-adv-x="1280" 
d="M128 0v128v1152h256v-128h128v-256h128v-128h128v-256h128v-128h128v896h128v-1280h-256v256h-128v128h-128v256h-128v128h-128v128h-128v-896h-128zM384 1408v128h128v-128h-128zM768 1536h128v-128h-256v128h128z" />
    <glyph glyph-name="Ograve" unicode="&#xd2;" horiz-adv-x="1536" 
d="M896 0h-128h-384v128h-128v128h-128v768h128v256h384v256h128v-256h384v-128h128v-384h128v-128h-128v-384h-128v-128h-128v-128h-128zM768 128h128v128h128v128h128v640h-128v128h-640v-128h-128v-640h128v-128h128v-128h256z" />
    <glyph glyph-name="Oacute" unicode="&#xd3;" horiz-adv-x="1536" 
d="M896 0h-128h-384v128h-128v128h-128v768h128v256h384v256h128v-256h384v-128h128v-384h128v-128h-128v-384h-128v-128h-128v-128h-128zM768 128h128v128h128v128h128v640h-128v128h-640v-128h-128v-640h128v-128h128v-128h256z" />
    <glyph glyph-name="Ocircumflex" unicode="&#xd4;" horiz-adv-x="1536" 
d="M896 0h-128h-384v128h-128v128h-128v768h128v256h384v128h128v-128h384v-128h128v-384h128v-128h-128v-384h-128v-128h-128v-128h-128zM768 128h128v128h128v128h128v640h-128v128h-640v-128h-128v-640h128v-128h128v-128h256zM768 1408v128h128v-128h-128zM640 1408
h-128v128h128v-128z" />
    <glyph glyph-name="Otilde" unicode="&#xd5;" horiz-adv-x="1536" 
d="M896 0h-128h-384v128h-128v128h-128v768h128v256h384v128h-256v128h640v-128h-256v-128h384v-128h128v-384h128v-128h-128v-384h-128v-128h-128v-128h-128zM768 128h128v128h128v128h128v640h-128v128h-640v-128h-128v-640h128v-128h128v-128h256z" />
    <glyph glyph-name="Odieresis" unicode="&#xd6;" horiz-adv-x="1536" 
d="M896 0h-128h-384v128h-128v128h-128v768h128v256h384v128h128v-128h384v-128h128v-384h128v-128h-128v-384h-128v-128h-128v-128h-128zM768 128h128v128h128v128h128v640h-128v128h-640v-128h-128v-640h128v-128h128v-128h256zM896 1536h128v-128h-256v128h128zM640 1408
h-128v128h128v-128z" />
    <glyph glyph-name="multiply" unicode="&#xd7;" 
d="M768 256v128h-128v128h-256v-128h-128v-128h-128v128h128v128h128v256h-128v128h-128v128h256v-128h128v-128h128v-128h128v-128h128v-256h-128zM640 768v128h128v-128h-128zM768 896v128h128v-128h-128z" />
    <glyph glyph-name="Oslash" unicode="&#xd8;" horiz-adv-x="1408" 
d="M128 0v128h128v-128h-128zM896 0h-128h-384v128h-128v128h-128v768h128v256h384v128h128v-128h512v-1024h-128v-128h-128v-128h-128zM768 128h128v128h128v128h128v512h-256v-128h-128v128h128v128h128v128h-640v-128h-128v-640h128v128h128v128h128v128h128v-256h-128
v-128h-128v-256h256z" />
    <glyph glyph-name="Ugrave" unicode="&#xd9;" horiz-adv-x="1280" 
d="M896 0h-128h-384v128h512v128h128v1024h128v-1152h-128v-128h-128zM384 128h-128v128h-128v1024h128v-896h128v-256zM640 1536h128v-128h-256v128h128z" />
    <glyph glyph-name="Uacute" unicode="&#xda;" horiz-adv-x="1280" 
d="M896 0h-128h-384v128h512v128h128v1024h128v-1152h-128v-128h-128zM384 128h-128v128h-128v1024h128v-896h128v-256zM640 1536h128v-128h-256v128h128z" />
    <glyph glyph-name="Ucircumflex" unicode="&#xdb;" horiz-adv-x="1280" 
d="M768 1408v128h128v-128h-128zM896 0h-128h-384v128h512v128h128v1024h128v-1152h-128v-128h-128zM384 128h-128v128h-128v1024h128v-896h128v-256zM512 1536h128v-128h-256v128h128z" />
    <glyph glyph-name="Udieresis" unicode="&#xdc;" horiz-adv-x="1280" 
d="M768 1408v128h128v-128h-128zM384 1408v128h128v-128h-128zM896 0h-128h-384v128h512v128h128v1024h128v-1152h-128v-128h-128zM384 128h-128v128h-128v1024h128v-896h128v-256z" />
    <glyph glyph-name="Yacute" unicode="&#xdd;" horiz-adv-x="1280" 
d="M512 0v128v512h-128v256h128v-128h128v128h128v128h128v-256h-128v-128h-128v-640h-128zM512 1408v128h128v-128h-128zM384 896h-128v128h-128v256h128v-128h128v-256zM896 1024v128v128h256v-128h-128v-128h-128z" />
    <glyph glyph-name="Thorn" unicode="&#xde;" horiz-adv-x="1280" 
d="M128 0v128v1152h128v-128h128v-128h640v-128h128v-384h-128v-128h-128v-128h-640v-256h-128zM640 384h128v128h128v384h-640v-384h128v-128h256z" />
    <glyph glyph-name="germandbls" unicode="&#xdf;" horiz-adv-x="1152" 
d="M128 0v128v1024h128v-1152h-128zM768 128h128v-128h-384v128h-128v128h256v-128h128zM896 128v128v128h-128v128h-128v128h-128v128h128v384h-384v128h512v-128h128v-128h-128v-384h128v-128h128v-384h-128z" />
    <glyph glyph-name="agrave" unicode="&#xe0;" 
d="M768 0v128h-128v128h128v128h-512v-256h384v-128h-512v512h512v128h128v128h-128v128h256v-896h-128zM128 640v128v128h256v-128h-128v-128h-128zM640 896h-128h-128v128h128v128h128v-256zM512 1152h-128v128h128v-128z" />
    <glyph glyph-name="aacute" unicode="&#xe1;" 
d="M768 0v128h-128v128h128v128h-512v-256h384v-128h-512v512h512v128h128v128h-128v128h256v-896h-128zM128 640v128v128h256v-128h-128v-128h-128zM512 1152v128h128v-128h-128zM640 896h-128h-128v128h256v-128z" />
    <glyph glyph-name="acircumflex" unicode="&#xe2;" 
d="M768 0v128h-128v128h128v128h-512v-256h384v-128h-512v512h512v128h128v128h-128v128h256v-896h-128zM128 640v128v128h256v-128h-128v-128h-128zM640 896h-128h-128v128h256v-128zM640 1024v128h128v-128h-128zM384 1024h-128v256h384v-128h-256v-128z" />
    <glyph glyph-name="atilde" unicode="&#xe3;" 
d="M768 0v128h-128v128h128v128h-512v-256h384v-128h-512v512h512v128h128v128h-128v128h256v-896h-128zM128 640v128v128h256v-128h-128v-128h-128zM640 896h-128h-128v128h256v-128zM640 1280h128v-128h-512v128h384z" />
    <glyph glyph-name="adieresis" unicode="&#xe4;" 
d="M768 0v128h-128v128h128v128h-512v-256h384v-128h-512v512h512v128h128v128h-128v128h256v-896h-128zM128 640v128v128h256v-128h-128v-128h-128zM256 1152v128h128v-128h-128zM640 896h-128h-128v128h256v-128zM640 1280h128v-128h-256v128h128z" />
    <glyph glyph-name="aring" unicode="&#xe5;" 
d="M768 0v128h-128v128h128v128h-512v-256h384v-128h-512v512h512v128h128v128h-128v128h256v-896h-128zM128 640v128v128h256v-128h-128v-128h-128zM384 1280v128h128v-128h-128zM640 896h-128h-128v256h256v-256z" />
    <glyph glyph-name="ae" unicode="&#xe6;" horiz-adv-x="1664" 
d="M128 640v128v128h256v-128h-128v-128h-128zM1280 0h-128h-256v128h384v128h256v-128h-128v-128h-128zM512 128h128v256h-384v-256h256zM512 0h-128h-256v128h-128v256h128v128h384v128h128v256h384v-128h-128v-128h512v128h128v-384h-640v-256h-256v-128h-128zM1408 768
h-128v128h128v-128zM1280 896h-128h-128v128h256v-128zM640 896h-128h-128v128h256v-128z" />
    <glyph glyph-name="ccedilla" unicode="&#xe7;" 
d="M768 640v128h128v-128h-128zM384 -256h128v-128h-256v128h128zM512 -256v128h128v-128h-128zM512 -128h-128v128h-128v128h384v128h128v128h128v-256h-128v-128h-256v-128zM256 128h-128v256h-128v128h128v384h256v-128h-128v-640zM768 768h-128v128h128v-128zM640 896
h-128h-128v128h256v-128z" />
    <glyph glyph-name="egrave" unicode="&#xe8;" 
d="M384 1152v128h128v-128h-128zM640 0h-128h-256v128h-128v256h-128v128h128v384h256v-128h-128v-128h512v128h-128v128h256v-512h-640v-128h128v-128h256v128h256v-128h-128v-128h-128zM640 896h-128h-128v128h256v-128z" />
    <glyph glyph-name="eacute" unicode="&#xe9;" 
d="M512 1152v128h128v-128h-128zM640 0h-128h-256v128h-128v256h-128v128h128v384h256v-128h-128v-128h512v128h-128v128h256v-512h-640v-128h128v-128h256v128h256v-128h-128v-128h-128zM640 896h-128h-128v128h256v-128z" />
    <glyph glyph-name="ecircumflex" unicode="&#xea;" 
d="M640 0h-128h-256v128h-128v256h-128v128h128v384h256v-128h-128v-128h512v128h-128v128h256v-512h-640v-128h128v-128h256v128h256v-128h-128v-128h-128zM640 896h-128h-128v128h256v-128zM640 1024v128h128v-128h-128zM384 1024h-128v256h384v-128h-256v-128z" />
    <glyph glyph-name="edieresis" unicode="&#xeb;" 
d="M640 1152v128h128v-128h-128zM256 1152v128h128v-128h-128zM640 0h-128h-256v128h-128v256h-128v128h128v384h256v-128h-128v-128h512v128h-128v128h256v-512h-640v-128h128v-128h256v128h256v-128h-128v-128h-128zM640 896h-128h-128v128h256v-128z" />
    <glyph glyph-name="igrave" unicode="&#xec;" horiz-adv-x="512" 
d="M128 1152v128h128v-128h-128zM256 0h-128v896h256v-896h-128z" />
    <glyph glyph-name="iacute" unicode="&#xed;" horiz-adv-x="512" 
d="M256 1152v128h128v-128h-128zM256 0h-128v896h256v-896h-128z" />
    <glyph glyph-name="icircumflex" unicode="&#xee;" horiz-adv-x="640" 
d="M384 1024v128h128v-128h-128zM0 1024v128h128v-128h-128zM256 0h-128v896h256v-896h-128zM384 1152h-128h-128v128h256v-128z" />
    <glyph glyph-name="idieresis" unicode="&#xef;" horiz-adv-x="640" 
d="M384 1152v128h128v-128h-128zM0 1152v128h128v-128h-128zM256 0h-128v896h256v-896h-128z" />
    <glyph glyph-name="eth" unicode="&#xf0;" 
d="M640 0h-128h-256v128h-128v256h-128v128h128v384h256v128h-128v128h128v128h384v-384h128v-768h-128v-128h-128zM512 128h128v128h128v512h-512v-640h256zM640 896v128h-128v-128h128z" />
    <glyph glyph-name="ntilde" unicode="&#xf1;" 
d="M768 0v128v640h-128v128h256v-896h-128zM128 0v128v896h128v-128h128v128h256v-128h-128v-128h-256v-768h-128zM640 1280h128v-128h-512v128h384z" />
    <glyph glyph-name="ograve" unicode="&#xf2;" 
d="M384 1152v128h128v-128h-128zM640 0h-128h-256v128h384v128h128v512h-128v128h256v-768h-128v-128h-128zM256 128h-128v256h-128v256h128v256h256v-128h-128v-640zM640 896h-128h-128v128h256v-128z" />
    <glyph glyph-name="oacute" unicode="&#xf3;" 
d="M512 1152v128h128v-128h-128zM640 0h-128h-256v128h384v128h128v512h-128v128h256v-768h-128v-128h-128zM256 128h-128v256h-128v256h128v256h256v-128h-128v-640zM640 896h-128h-128v128h256v-128z" />
    <glyph glyph-name="ocircumflex" unicode="&#xf4;" 
d="M640 0h-128h-256v128h384v128h128v512h-128v128h256v-768h-128v-128h-128zM256 128h-128v256h-128v256h128v256h256v-128h-128v-640zM640 896h-128h-128v128h256v-128zM640 1024v128h128v-128h-128zM384 1024h-128v256h384v-128h-256v-128z" />
    <glyph glyph-name="otilde" unicode="&#xf5;" 
d="M640 0h-128h-256v128h384v128h128v512h-128v128h256v-768h-128v-128h-128zM256 128h-128v256h-128v256h128v256h256v-128h-128v-640zM640 896h-128h-128v128h256v-128zM640 1280h128v-128h-512v128h384z" />
    <glyph glyph-name="odieresis" unicode="&#xf6;" 
d="M640 1152v128h128v-128h-128zM256 1152v128h128v-128h-128zM640 0h-128h-256v128h384v128h128v512h-128v128h256v-768h-128v-128h-128zM256 128h-128v256h-128v256h128v256h256v-128h-128v-640zM640 896h-128h-128v128h256v-128z" />
    <glyph glyph-name="divide" unicode="&#xf7;" 
d="M384 256v128v128h-256v256h768v-256h-384v-256h-128zM512 1024h128v-128h-256v128h128z" />
    <glyph glyph-name="oslash" unicode="&#xf8;" horiz-adv-x="1152" 
d="M640 128h128v512h-128v-256h-128v-128h-128v128h128v256h128v256h-128v-128h-128v-128h-128v-384h128v-128h256zM640 0h-128h-384v768h128v128h128v128h256v-128h256v-128h128v-512h-128v-128h-128v-128h-128z" />
    <glyph glyph-name="ugrave" unicode="&#xf9;" 
d="M768 0v128h-128v-128h-384v128h-128v896h128v-768h128v-128h256v128h128v640h128v-896h-128zM512 1024v128h-128v128h256v-256h-128z" />
    <glyph glyph-name="uacute" unicode="&#xfa;" 
d="M768 0v128h-128v-128h-384v128h-128v896h128v-768h128v-128h256v128h128v640h128v-896h-128zM512 1152v128h128v-128h-128z" />
    <glyph glyph-name="ucircumflex" unicode="&#xfb;" 
d="M768 0v128h-128v-128h-384v128h-128v896h128v-768h128v-128h256v128h128v640h128v-896h-128zM640 1024v128h128v-128h-128zM256 1024v128v128h384v-128h-256v-128h-128z" />
    <glyph glyph-name="udieresis" unicode="&#xfc;" 
d="M768 0v128h-128v-128h-384v128h-128v896h128v-768h128v-128h256v128h128v640h128v-896h-128zM256 1152v128h128v-128h-128zM640 1280h128v-128h-256v128h128z" />
    <glyph glyph-name="yacute" unicode="&#xfd;" 
d="M384 1024v128v128h256v-128h-128v-128h-128zM256 -384h-128v128h128v128h128v256h-128v384h-128v384h128v-256h128v-384h128v256h128v384h256v-128h-128v-384h-128v-256h-128v-384h-128v-128h-128z" />
    <glyph glyph-name="thorn" unicode="&#xfe;" 
d="M128 -384v128v1536h128v-384h128v-128h-128v-512h128v-128h256v128h128v512h-128v128h256v-768h-128v-128h-512v-384h-128zM640 896h-128h-128v128h256v-128z" />
    <glyph glyph-name="ydieresis" unicode="&#xff;" 
d="M256 1152v128h128v-128h-128zM256 -384h-128v128h128v128h128v256h-128v384h-128v384h128v-256h128v-384h128v256h128v384h256v-128h-128v-384h-128v-256h-128v-384h-128v-128h-128zM640 1280h128v-128h-256v128h128z" />
    <glyph glyph-name="Amacron" unicode="&#x100;" horiz-adv-x="1280" 
d="M1024 0v128h-128v256h-640v-384h-256v256h128v256h128v384h128v256h128v128h256v-256h128v-384h128v-256h128v-384h-128zM640 512h128v384h-128v128h-128v-256h-128v-256h256zM768 1536h128v-128h-512v128h384z" />
    <glyph glyph-name="amacron" unicode="&#x101;" 
d="M768 0v128h-128v128h128v128h-512v-256h384v-128h-512v512h512v128h128v128h-128v128h256v-896h-128zM128 640v128v128h256v-128h-128v-128h-128zM640 896h-128h-128v128h256v-128zM640 1280h128v-128h-512v128h384z" />
    <glyph glyph-name="Abreve" unicode="&#x102;" horiz-adv-x="1280" 
d="M1024 0v128h-128v256h-640v-384h-256v256h128v256h128v384h128v256h128v128h256v-256h128v-384h128v-256h128v-384h-128zM640 512h128v384h-128v128h-128v-256h-128v-256h256zM640 1536h128v-128h-384v128h256z" />
    <glyph glyph-name="abreve" unicode="&#x103;" 
d="M768 0v128h-128v128h128v128h-512v-256h384v-128h-512v512h512v128h128v128h-128v128h256v-896h-128zM128 640v128v128h256v-128h-128v-128h-128zM640 1152v128h128v-128h-128zM640 896h-128h-128v128h256v-128zM384 1280h128v-128h-256v128h128z" />
    <glyph glyph-name="Aogonek" unicode="&#x104;" horiz-adv-x="1408" 
d="M1152 -256h128v-128h-256v128h128zM1024 -256h-128v128h128v-128zM1024 -128v128v128h-128v256h-640v-384h-256v256h128v256h128v384h128v256h128v128h256v-256h128v-384h128v-256h128v-512h-128zM640 512h128v384h-128v128h-128v-256h-128v-256h256z" />
    <glyph glyph-name="aogonek" unicode="&#x105;" horiz-adv-x="1152" 
d="M128 640v128v128h256v-128h-128v-128h-128zM896 -256h128v-128h-256v128h128zM768 -256h-128v128h128v-128zM768 -128v128v128h-128v128h128v128h-512v-256h384v-128h-512v512h512v128h128v128h-128v128h256v-1024h-128zM640 896h-128h-128v128h256v-128z" />
    <glyph glyph-name="Cacute" unicode="&#x106;" horiz-adv-x="1280" 
d="M1024 896v128v128h128v-256h-128zM896 0h-128h-384v128h-128v128h-128v768h128v-640h128v-128h128v-128h384v128h128v128h128v-256h-128v-128h-128zM256 1024v128v128h384v256h128v-256h256v-128h-640v-128h-128z" />
    <glyph glyph-name="cacute" unicode="&#x107;" 
d="M768 640v128h128v-128h-128zM640 0h-128h-256v128h384v128h128v128h128v-256h-128v-128h-128zM256 128h-128v256h-128v128h128v384h256v-128h-128v-640zM768 768h-128v128h128v-128zM640 896h-128h-128v384h256v-128h-128v-128h128v-128z" />
    <glyph glyph-name="Ccircumflex" unicode="&#x108;" horiz-adv-x="1280" 
d="M1024 896v128v128h128v-256h-128zM896 0h-128h-384v128h-128v128h-128v768h128v-640h128v-128h128v-128h384v128h128v128h128v-256h-128v-128h-128zM256 1024v128v128h384v128h128v-128h256v-128h-640v-128h-128zM768 1408v128h128v-128h-128zM640 1408h-128v128h128
v-128z" />
    <glyph glyph-name="ccircumflex" unicode="&#x109;" 
d="M768 640v128h128v-128h-128zM640 0h-128h-256v128h384v128h128v128h128v-256h-128v-128h-128zM256 128h-128v256h-128v128h128v384h256v-128h-128v-640zM768 768h-128v128h128v-128zM640 896h-128h-128v128h256v-128zM640 1024v128h128v-128h-128zM384 1024h-128v128h128
v-128zM640 1152h-128h-128v128h256v-128z" />
    <glyph glyph-name="Cdotaccent" unicode="&#x10a;" horiz-adv-x="1280" 
d="M1024 896v128v128h128v-256h-128zM896 0h-128h-384v128h-128v128h-128v768h128v-640h128v-128h128v-128h384v128h128v128h128v-256h-128v-128h-128zM256 1024v128v128h384v256h128v-256h256v-128h-640v-128h-128z" />
    <glyph glyph-name="cdotaccent" unicode="&#x10b;" 
d="M768 640v128h128v-128h-128zM640 0h-128h-256v128h384v128h128v128h128v-256h-128v-128h-128zM256 128h-128v256h-128v128h128v384h256v-128h-128v-640zM768 768h-128v128h128v-128zM640 896h-128h-128v128h256v-128zM512 1280h128v-128h-256v128h128z" />
    <glyph glyph-name="Ccaron" unicode="&#x10c;" horiz-adv-x="1280" 
d="M1024 896v128v128h128v-256h-128zM896 0h-128h-384v128h-128v128h-128v768h128v-640h128v-128h128v-128h384v128h128v128h128v-256h-128v-128h-128zM256 1024v128v128h384v128h-128v128h384v-128h-128v-128h256v-128h-640v-128h-128z" />
    <glyph glyph-name="ccaron" unicode="&#x10d;" 
d="M768 640v128h128v-128h-128zM640 0h-128h-256v128h384v128h128v128h128v-256h-128v-128h-128zM256 128h-128v256h-128v128h128v384h256v-128h-128v-640zM768 768h-128v128h128v-128zM640 896h-128h-128v256h-128v128h384v-128h-128v-128h128v-128z" />
    <glyph glyph-name="Dcaron" unicode="&#x10e;" horiz-adv-x="1408" 
d="M768 0h-128h-512v1280h896v-128h128v-384h128v-256h-128v-256h-128v768h-128v128h-640v-896h128v-128h384v128h256v-128h-128v-128h-128zM512 1536h128v-128h-256v128h128z" />
    <glyph glyph-name="dcaron" unicode="&#x10f;" horiz-adv-x="1280" 
d="M1024 1024v128h-128v-1152h-640v128h384v128h128v384h-128v128h-128v128h256v384h384v-256h-128zM256 128h-128v256h-128v256h128v256h256v-128h-128v-640zM512 896h-128v128h128v-128z" />
    <glyph glyph-name="Dcroat" unicode="&#x110;" horiz-adv-x="1408" 
d="M768 0h-128h-512v640h-128v128h128v512h896v-128h128v-384h128v-256h-128v-256h-128v768h-128v128h-640v-384h384v-128h-256v-128h-128v-256h128v-128h384v128h256v-128h-128v-128h-128z" />
    <glyph glyph-name="dcroat" unicode="&#x111;" 
d="M768 0h-128h-384v128h384v128h128v384h-128v128h-128v128h256v128h-128v128h-128v128h384v-1280h-128zM256 128h-128v256h-128v256h128v256h256v-128h-128v-640zM512 896h-128v128h128v-128z" />
    <glyph glyph-name="Emacron" unicode="&#x112;" horiz-adv-x="1280" 
d="M1024 128h128v-128h-1024v1280h896v-128h-768v-384h768v-128h-640v-128h-128v-256h128v-128h640zM768 1536h128v-128h-512v128h384z" />
    <glyph glyph-name="emacron" unicode="&#x113;" 
d="M640 0h-128h-256v128h-128v256h-128v128h128v384h256v-128h-128v-128h512v128h-128v128h256v-512h-640v-128h128v-128h256v128h256v-128h-128v-128h-128zM640 896h-128h-128v128h256v-128zM640 1280h128v-128h-512v128h384z" />
    <glyph glyph-name="Ebreve" unicode="&#x114;" horiz-adv-x="1280" 
d="M1024 128h128v-128h-1024v1280h896v-128h-768v-384h768v-128h-640v-128h-128v-256h128v-128h640zM640 1536h128v-128h-256v128h128z" />
    <glyph glyph-name="ebreve" unicode="&#x115;" 
d="M640 1152v128h128v-128h-128zM640 0h-128h-256v128h-128v256h-128v128h128v384h256v-128h-128v-128h512v128h-128v128h256v-512h-640v-128h128v-128h256v128h256v-128h-128v-128h-128zM640 896h-128h-128v128h256v-128zM384 1280h128v-128h-256v128h128z" />
    <glyph glyph-name="Edotaccent" unicode="&#x116;" horiz-adv-x="1280" 
d="M1024 128h128v-128h-1024v1280h896v-128h-768v-384h768v-128h-640v-128h-128v-256h128v-128h640zM640 1536h128v-128h-256v128h128z" />
    <glyph glyph-name="edotaccent" unicode="&#x117;" 
d="M640 0h-128h-256v128h-128v256h-128v128h128v384h256v-128h-128v-128h512v128h-128v128h256v-512h-640v-128h128v-128h256v128h256v-128h-128v-128h-128zM640 896h-128h-128v128h128v128h-128v128h256v-384z" />
    <glyph glyph-name="Eogonek" unicode="&#x118;" horiz-adv-x="1280" 
d="M1024 -384h-128v128h-128v128h128v128h-768v1280h896v-128h-768v-384h768v-128h-640v-128h-128v-256h128v-128h768v-128h-128v-256h128v-128h-128z" />
    <glyph glyph-name="eogonek" unicode="&#x119;" 
d="M640 -256h128v-128h-256v128h128zM512 -256h-128v128h128v-128zM512 -128v128h-256v128h-128v256h-128v128h128v384h256v-128h-128v-128h512v128h-128v128h256v-512h-640v-128h128v-128h256v128h256v-128h-128v-128h-128v-128h-128zM640 896h-128h-128v128h256v-128z" />
    <glyph glyph-name="Ecaron" unicode="&#x11a;" horiz-adv-x="1280" 
d="M1024 128h128v-128h-1024v1280h896v-128h-768v-384h768v-128h-640v-128h-128v-256h128v-128h640zM640 1536h128v-128h-384v128h256z" />
    <glyph glyph-name="ecaron" unicode="&#x11b;" 
d="M640 0h-128h-256v128h-128v256h-128v128h128v384h256v-128h-128v-128h512v128h-128v128h256v-512h-640v-128h128v-128h256v128h256v-128h-128v-128h-128zM640 896h-128h-128v256h-128v128h512v-128h-128v-256z" />
    <glyph glyph-name="Gcircumflex" unicode="&#x11c;" horiz-adv-x="1408" 
d="M1152 896v128h-128v128h-640v-256h-128v-512h128v-128h128v-128h512v128h128v256h-384v128h512v-512h-128v-128h-768v128h-128v128h-128v768h128v128h128v128h128v256h512v-128h-128v-128h256v-128h128v-256h-128z" />
    <glyph glyph-name="gcircumflex" unicode="&#x11d;" 
d="M640 -384h-128h-256v128h384v128h128v128h-512v128h-128v256h-128v256h128v256h256v128h256v-128h128v128h128v-1280h-128v-128h-128zM256 -256h-128v128h128v-128zM512 128h128v128h128v384h-128v128h-128v128h-128v-128h-128v-512h128v-128h128zM384 1024h-128v256h384
v-128h-256v-128z" />
    <glyph glyph-name="Gbreve" unicode="&#x11e;" horiz-adv-x="1408" 
d="M1152 896v128h-128v128h-640v-256h-128v-512h128v-128h128v-128h512v128h128v256h-384v128h512v-512h-128v-128h-768v128h-128v128h-128v768h128v128h128v128h256v256h256v-128h-128v-128h384v-128h128v-256h-128z" />
    <glyph glyph-name="gbreve" unicode="&#x11f;" 
d="M256 1152v128h128v-128h-128zM640 -384h-128h-256v128h384v128h128v128h-512v128h-128v256h-128v256h128v256h256v128h256v-128h128v128h128v-1280h-128v-128h-128zM256 -256h-128v128h128v-128zM512 128h128v128h128v384h-128v128h-128v128h-128v-128h-128v-512h128
v-128h128zM640 1280h128v-128h-256v128h128z" />
    <glyph glyph-name="Gdotaccent" unicode="&#x120;" horiz-adv-x="1408" 
d="M1152 896v128h-128v128h-640v-256h-128v-512h128v-128h128v-128h512v128h128v256h-384v128h512v-512h-128v-128h-768v128h-128v128h-128v768h128v128h128v128h256v256h256v-256h256v-128h128v-256h-128z" />
    <glyph glyph-name="gdotaccent" unicode="&#x121;" 
d="M640 -384h-128h-256v128h384v128h128v128h-512v128h-128v256h-128v256h128v256h256v384h256v-128h-128v-128h128v-128h128v128h128v-1280h-128v-128h-128zM256 -256h-128v128h128v-128zM512 128h128v128h128v384h-128v128h-128v128h-128v-128h-128v-512h128v-128h128z
" />
    <glyph glyph-name="Gcommaaccent" unicode="&#x122;" horiz-adv-x="1408" 
d="M1152 896v128h-128v128h-640v-256h-128v-512h128v-128h128v-128h512v128h128v256h-384v128h512v-512h-128v-128h-256v-384h-384v128h256v128h-128v128h-256v128h-128v128h-128v768h128v128h128v128h256v128h128v-128h384v-128h128v-256h-128z" />
    <glyph glyph-name="gcommaaccent" unicode="&#x123;" 
d="M640 -384h-128h-256v128h384v128h128v128h-512v128h-128v256h-128v256h128v256h256v512h128v-384h128v-128h128v128h128v-1280h-128v-128h-128zM256 -256h-128v128h128v-128zM512 128h128v128h128v384h-128v128h-128v128h-128v-128h-128v-512h128v-128h128z" />
    <glyph glyph-name="Hcircumflex" unicode="&#x124;" horiz-adv-x="1280" 
d="M1024 0v128v512h-640v-128h-128v-512h-128v1280h128v-384h128v-128h640v512h128v-1280h-128zM768 1408v128h128v-128h-128zM512 1408v128h128v-128h-128z" />
    <glyph glyph-name="hcircumflex" unicode="&#x125;" 
d="M768 0v128v640h-128v128h256v-896h-128zM128 0v128v1152h128v-384h128v128h256v-128h-128v-128h-256v-768h-128zM640 1408v128h128v-128h-128zM384 1408v128h128v-128h-128z" />
    <glyph glyph-name="Hbar" unicode="&#x126;" horiz-adv-x="1408" 
d="M1024 0v128v512h-640v-128h-128v-512h-128v1024h-128v128h128v128h128v-128h768v128h128v-128h128v-128h-128v-1024h-128zM896 768h128v256h-640v-256h512z" />
    <glyph glyph-name="hbar" unicode="&#x127;" 
d="M768 0v128v640h-128v128h256v-896h-128zM128 0v128v896h-128v128h128v128h128v-128h256v-128h128v-128h-128v-128h-256v-768h-128zM384 896v128h-128v-128h128z" />
    <glyph glyph-name="Itilde" unicode="&#x128;" horiz-adv-x="640" 
d="M0 1408v128h128v-128h-128zM256 0h-128v1280h256v-1280h-128zM384 1536h128v-128h-256v128h128z" />
    <glyph glyph-name="itilde" unicode="&#x129;" horiz-adv-x="640" 
d="M256 0h-128v896h256v-896h-128zM384 1280h128v-128h-512v128h384z" />
    <glyph glyph-name="Imacron" unicode="&#x12a;" horiz-adv-x="640" 
d="M256 0h-128v1280h256v-1280h-128zM384 1536h128v-128h-512v128h384z" />
    <glyph glyph-name="imacron" unicode="&#x12b;" horiz-adv-x="640" 
d="M256 0h-128v896h256v-896h-128zM384 1280h128v-128h-512v128h384z" />
    <glyph glyph-name="Ibreve" unicode="&#x12c;" horiz-adv-x="640" 
d="M256 0h-128v1280h256v-1280h-128zM384 1536h128v-128h-512v128h384z" />
    <glyph glyph-name="ibreve" unicode="&#x12d;" horiz-adv-x="640" 
d="M0 1152v128h128v-128h-128zM256 0h-128v896h256v-896h-128zM384 1280h128v-128h-256v128h128z" />
    <glyph glyph-name="Iogonek" unicode="&#x12e;" horiz-adv-x="512" 
d="M256 -384h-128v1664h256v-1280h-128v-256h128v-128h-128z" />
    <glyph glyph-name="iogonek" unicode="&#x12f;" horiz-adv-x="384" 
d="M128 1152v128h128v-128h-128zM128 -384h-128v256h128v-128h128v-128h-128zM128 -128v128v1024h128v-1152h-128z" />
    <glyph glyph-name="Idotaccent" unicode="&#x130;" horiz-adv-x="512" 
d="M256 0h-128v1280h256v-1280h-128zM256 1536h128v-128h-256v128h128z" />
    <glyph glyph-name="dotlessi" unicode="&#x131;" horiz-adv-x="512" 
d="M256 0h-128v896h256v-896h-128z" />
    <glyph glyph-name="IJ" unicode="&#x132;" horiz-adv-x="1408" 
d="M1024 0h-128h-256v128h-128v256h128v-128h128v-128h256v1152h256v-1152h-128v-128h-128zM256 0h-128v1280h256v-1280h-128z" />
    <glyph glyph-name="ij" unicode="&#x133;" horiz-adv-x="896" 
d="M128 0v128v896h128v-1024h-128zM128 1152v128h128v-128h-128zM512 -384h-128v128h128v1152h256v-1024h-128v-256h-128zM640 1280h128v-128h-256v128h128z" />
    <glyph glyph-name="Jcircumflex" unicode="&#x134;" 
d="M768 1408v128h128v-128h-128zM512 1408v128h128v-128h-128zM512 0h-128h-256v256h-128v128h256v-256h256v128h128v1024h128v-1152h-128v-128h-128z" />
    <glyph glyph-name="jcircumflex" unicode="&#x135;" horiz-adv-x="512" 
d="M128 -384h-128h-128v128h256v1280h128v-1408h-128zM256 1024v128h-128v-128h-128v256h384v-256h-128z" />
    <glyph glyph-name="Kcommaaccent" unicode="&#x136;" horiz-adv-x="1280" 
d="M128 0v128v1152h128v-512h256v128h128v-256h128v-128h128v-128h128v-256h128v-128h-256v256h-128v128h-128v256h-256v-128h-128v-512h-128zM640 -256h128v-128h-256v128h128zM768 -256v128h128v-128h-128zM768 -128h-128v128h128v-128zM640 896v128h128v-128h-128z
M768 1024v128h128v-128h-128zM896 1152v128h128v-128h-128z" />
    <glyph glyph-name="kcommaaccent" unicode="&#x137;" 
d="M128 0v128v1152h128v-640h128v128h128v128h256v-128h-128v-128h-128v-128h128v-256h128v-128h128v-128h-256v-128h128v-128h-128v-128h-256v128h128v256h128v256h-128v128h-256v-384h-128z" />
    <glyph glyph-name="kgreenlandic" unicode="&#x138;" 
d="M128 0v128v896h128v-384h128v128h128v128h256v-128h-128v-128h-128v-128h128v-256h128v-128h128v-128h-256v256h-128v128h-256v-384h-128z" />
    <glyph glyph-name="Lacute" unicode="&#x139;" 
d="M768 128h128v-128h-768v1280h128v-1024h128v-128h384zM384 1536h128v-128h-256v128h128z" />
    <glyph glyph-name="lacute" unicode="&#x13a;" horiz-adv-x="384" 
d="M128 0v128v1152h128v-1280h-128zM128 1408v128h128v-128h-128z" />
    <glyph glyph-name="Lcommaaccent" unicode="&#x13b;" 
d="M640 -384h-128h-128v128h256v128h128v-256h-128zM640 -128h-128v128h-384v1280h128v-1024h128v-128h512v-128h-256v-128z" />
    <glyph glyph-name="lcommaaccent" unicode="&#x13c;" horiz-adv-x="512" 
d="M128 -256h128v-128h-256v128h128zM256 -256v128h128v-128h-128zM256 -128h-128v1408h128v-1408z" />
    <glyph glyph-name="Lcaron" unicode="&#x13d;" 
d="M640 896v128h128v-128h-128zM640 1152v128h128v-128h-128zM768 128h128v-128h-768v1280h128v-1024h128v-128h384z" />
    <glyph glyph-name="lcaron" unicode="&#x13e;" horiz-adv-x="640" 
d="M128 0v128v1152h128v-1280h-128zM384 1024v128v128h128v-256h-128z" />
    <glyph glyph-name="Ldot" unicode="&#x13f;" 
d="M768 128h128v-128h-768v1280h128v-1024h128v-128h384zM512 768h128v-128h-256v128h128z" />
    <glyph glyph-name="ldot" unicode="&#x140;" horiz-adv-x="512" 
d="M128 0v128v1152h128v-512h128v-256h-128v-512h-128z" />
    <glyph glyph-name="Lslash" unicode="&#x141;" 
d="M768 128h128v-128h-768v512h-128v128h128v640h128v-384h256v-128h-128v-128h-128v-512h512zM512 896v128h128v-128h-128z" />
    <glyph glyph-name="lslash" unicode="&#x142;" horiz-adv-x="512" 
d="M128 0v128v384h-128v128h128v640h128v-384h128v-256h-128v-640h-128z" />
    <glyph glyph-name="Nacute" unicode="&#x143;" horiz-adv-x="1280" 
d="M128 0v128v1152h256v-128h128v-256h128v-128h128v-256h128v-128h128v896h128v-1280h-256v256h-128v128h-128v256h-128v128h-128v128h-128v-896h-128zM512 1408v128h128v-128h-128z" />
    <glyph glyph-name="nacute" unicode="&#x144;" 
d="M768 0v128v640h-128v128h256v-896h-128zM128 0v128v896h128v-128h128v128h256v-128h-128v-128h-256v-768h-128zM512 1152v128h128v-128h-128z" />
    <glyph glyph-name="Ncommaaccent" unicode="&#x145;" horiz-adv-x="1280" 
d="M128 0v128v1152h256v-128h128v-256h128v-128h128v-256h128v-128h128v896h128v-1280h-256v256h-128v128h-128v256h-128v128h-128v128h-128v-896h-128zM768 -384h-128h-128v128h256v128h128v-256h-128zM768 -128h-128v128h128v-128z" />
    <glyph glyph-name="ncommaaccent" unicode="&#x146;" 
d="M768 0v128v640h-128v128h256v-896h-128zM128 0v128v896h128v-128h128v128h256v-128h-128v-128h-256v-768h-128zM512 -384h-128v128h128v128h-128v128h256v-384h-128z" />
    <glyph glyph-name="Ncaron" unicode="&#x147;" horiz-adv-x="1280" 
d="M128 0v128v1152h256v-128h128v-256h128v-128h128v-256h128v-128h128v896h128v-1280h-256v256h-128v128h-128v256h-128v128h-128v128h-128v-896h-128zM640 1536h128v-128h-256v128h128z" />
    <glyph glyph-name="ncaron" unicode="&#x148;" 
d="M768 0v128v640h-128v128h256v-896h-128zM128 0v128v896h128v-128h128v256h-128v128h512v-128h-128v-256h-128v-128h-256v-768h-128z" />
    <glyph glyph-name="napostrophe" unicode="&#x149;" horiz-adv-x="1280" 
d="M384 0v128v768h256v-128h-128v-768h-128zM128 896v128v384h128v-512h-128zM1024 0h-128v768h-128v128h-128v128h256v-128h128v-128h128v-768h-128z" />
    <glyph glyph-name="Eng" unicode="&#x14a;" horiz-adv-x="1408" 
d="M896 0h-128h-128v128h256v128h128v768h-128v128h-512v-1152h-256v1280h512v128h128v-128h256v-128h128v-256h128v-384h-128v-384h-128v-128h-128z" />
    <glyph glyph-name="eng" unicode="&#x14b;" 
d="M128 0v128v896h128v-128h128v128h256v-128h256v-1152h-128v-128h-256v128h256v1024h-128v128h-128v-128h-256v-768h-128z" />
    <glyph glyph-name="Omacron" unicode="&#x14c;" horiz-adv-x="1536" 
d="M896 0h-128h-384v128h-128v128h-128v768h128v256h384v128h-128v128h512v-128h-256v-128h384v-128h128v-384h128v-128h-128v-384h-128v-128h-128v-128h-128zM768 128h128v128h128v128h128v640h-128v128h-640v-128h-128v-640h128v-128h128v-128h256z" />
    <glyph glyph-name="omacron" unicode="&#x14d;" 
d="M640 0h-128h-256v128h384v128h128v512h-128v128h256v-768h-128v-128h-128zM256 128h-128v256h-128v256h128v256h256v-128h-128v-640zM640 896h-128h-128v128h256v-128zM640 1280h128v-128h-512v128h384z" />
    <glyph glyph-name="Obreve" unicode="&#x14e;" horiz-adv-x="1536" 
d="M896 0h-128h-384v128h-128v128h-128v768h128v256h384v128h-128v128h384v-128h-128v-128h384v-128h128v-384h128v-128h-128v-384h-128v-128h-128v-128h-128zM768 128h128v128h128v128h128v640h-128v128h-640v-128h-128v-640h128v-128h128v-128h256z" />
    <glyph glyph-name="obreve" unicode="&#x14f;" 
d="M256 1152v128h128v-128h-128zM640 0h-128h-256v128h384v128h128v512h-128v128h256v-768h-128v-128h-128zM256 128h-128v256h-128v256h128v256h256v-128h-128v-640zM640 896h-128h-128v128h256v-128zM640 1280h128v-128h-256v128h128z" />
    <glyph glyph-name="Ohungarumlaut" unicode="&#x150;" horiz-adv-x="1536" 
d="M896 0h-128h-384v128h-128v128h-128v768h128v256h384v128h128v-128h384v-128h128v-384h128v-128h-128v-384h-128v-128h-128v-128h-128zM768 128h128v128h128v128h128v640h-128v128h-640v-128h-128v-640h128v-128h128v-128h256zM768 1408v128h128v-128h-128zM640 1408
h-128h-128v128h256v-128z" />
    <glyph glyph-name="ohungarumlaut" unicode="&#x151;" 
d="M640 1152v128h128v-128h-128zM640 0h-128h-256v128h384v128h128v512h-128v128h256v-768h-128v-128h-128zM256 128h-128v256h-128v256h128v256h256v-128h-128v-640zM640 896h-128h-128v128h256v-128zM384 1024h-128v256h256v-128h-128v-128z" />
    <glyph glyph-name="OE" unicode="&#x152;" horiz-adv-x="1920" 
d="M1664 128h128v-128h-768v128h-128v-128h-512v128h-128v128h-128v768h128v256h1536v-128h-640v-384h512v-128h-512v-512h512zM640 128h128v128h128v128h128v512h-128v256h-512v-256h-128v-512h128v-128h128v-128h128z" />
    <glyph glyph-name="oe" unicode="&#x153;" horiz-adv-x="1792" 
d="M1408 0h-128h-256v128h384v128h256v-128h-128v-128h-128zM640 0h-128h-256v128h-128v256h-128v128h128v384h256v-128h-128v-512h128v-128h256v128h128v512h-128v128h384v128h384v-128h128v-128h128v-384h-640v-256h-256v-128h-128zM1280 640h128v128h-128v128h-128v-128
h-128v-128h256zM640 896h-128h-128v128h256v-128z" />
    <glyph glyph-name="Racute" unicode="&#x154;" horiz-adv-x="1408" 
d="M128 0v128v1152h1024v-512h-128v-128h-128v-128h128v-128h128v-256h128v-128h-256v128h-128v256h-128v128h-128v128h-256v-128h-128v-512h-128zM512 1408v128h128v-128h-128zM768 768h128v128h128v256h-768v-384h512z" />
    <glyph glyph-name="racute" unicode="&#x155;" horiz-adv-x="768" 
d="M128 0v128v896h128v-128h128v128h128v-128h128v-128h-384v-768h-128zM384 1024h-128v256h256v-128h-128v-128z" />
    <glyph glyph-name="Rcommaaccent" unicode="&#x156;" horiz-adv-x="1408" 
d="M128 0v128v1152h1024v-512h-128v-128h-128v-128h128v-128h128v-256h128v-128h-256v128h-128v256h-128v128h-128v128h-256v-128h-128v-512h-128zM768 -384h-128h-128v128h256v128h128v-256h-128zM768 -128h-128v128h128v-128zM768 768h128v128h128v256h-768v-384h512z" />
    <glyph glyph-name="rcommaaccent" unicode="&#x157;" horiz-adv-x="768" 
d="M256 -256h128v-128h-256v128h128zM384 -256v128h128v-128h-128zM384 -128h-128v128h128v-128zM256 0h-128v1024h128v-128h128v128h128v-128h128v-128h-384v-768z" />
    <glyph glyph-name="Rcaron" unicode="&#x158;" horiz-adv-x="1408" 
d="M128 0v128v1152h1024v-512h-128v-128h-128v-128h128v-128h128v-256h128v-128h-256v128h-128v256h-128v128h-128v128h-256v-128h-128v-512h-128zM768 768h128v128h128v256h-768v-384h512zM640 1536h128v-128h-384v128h256z" />
    <glyph glyph-name="rcaron" unicode="&#x159;" horiz-adv-x="768" 
d="M128 0v128v896h128v-128h128v128h128v-128h128v-128h-384v-768h-128zM384 1024h-128v128h-128v128h384v-128h-128v-128z" />
    <glyph glyph-name="Sacute" unicode="&#x15a;" horiz-adv-x="1280" 
d="M896 896v128v128h-512v-128h-128v-128h128v-128h512v-128h128v-128h128v-256h-128v-128h-128v-128h-640v128h-128v256h128v-128h128v-128h512v384h-128v128h-512v128h-128v384h128v128h256v256h128v-256h384v-384h-128z" />
    <glyph glyph-name="sacute" unicode="&#x15b;" 
d="M640 640v128h-128v128h-128v-128h-128v-128h256v-128h256v-128h128v-128h-128v-256h-640v256h128v-128h384v256h-384v128h-128v384h128v128h128v256h256v-128h-128v-128h128v-128h128v-256h-128z" />
    <glyph glyph-name="Scircumflex" unicode="&#x15c;" horiz-adv-x="1280" 
d="M896 896v128v128h-512v-128h-128v-128h128v-128h512v-128h128v-128h128v-256h-128v-128h-128v-128h-640v128h-128v256h128v-128h128v-128h512v384h-128v128h-512v128h-128v384h128v128h256v128h128v-128h384v-384h-128zM640 1408v128h128v-128h-128zM512 1408h-128v128
h128v-128z" />
    <glyph glyph-name="scircumflex" unicode="&#x15d;" 
d="M640 640v128h-128v128h-128v-128h-128v-128h256v-128h256v-128h128v-128h-128v-256h-640v256h128v-128h384v256h-384v128h-128v384h128v384h384v-128h-256v-128h256v-128h128v-256h-128z" />
    <glyph glyph-name="Scedilla" unicode="&#x15e;" horiz-adv-x="1280" 
d="M896 896v128v128h-512v-128h-128v-128h128v-128h512v-128h128v-128h128v-256h-128v-128h-128v-128h-256v-128h128v-256h-384v128h256v128h-128v128h-256v128h-128v256h128v-128h128v-128h512v384h-128v128h-512v128h-128v384h128v128h256v128h128v-128h384v-384h-128z
" />
    <glyph glyph-name="scedilla" unicode="&#x15f;" 
d="M640 640v128h-128v128h-128v-128h-128v-128h256v-128h256v-128h128v-128h-128v-256h-256v-128h128v-128h-128v-128h-256v128h128v256h-256v256h128v-128h384v256h-384v128h-128v384h128v128h384v-128h128v-256h-128z" />
    <glyph glyph-name="Scaron" unicode="&#x160;" horiz-adv-x="1280" 
d="M896 896v128v128h-512v-128h-128v-128h128v-128h512v-128h128v-128h128v-256h-128v-128h-128v-128h-640v128h-128v256h128v-128h128v-128h512v384h-128v128h-512v128h-128v384h128v128h256v128h-128v128h384v-128h-128v-128h384v-384h-128z" />
    <glyph glyph-name="scaron" unicode="&#x161;" 
d="M640 640v128h-128v128h-128v-128h-128v-128h256v-128h256v-128h128v-128h-128v-256h-640v256h128v-128h384v256h-384v128h-128v384h128v128h128v128h-128v128h384v-128h-128v-128h128v-128h128v-256h-128z" />
    <glyph glyph-name="Tcommaaccent" unicode="&#x162;" horiz-adv-x="1152" 
d="M512 -384h-128v128h128v1408h-512v128h1024v-128h-384v-1280h128v-128h-128v-128h-128z" />
    <glyph glyph-name="tcommaaccent" unicode="&#x163;" horiz-adv-x="640" 
d="M384 -384h-128h-128v128h256v128h128v-256h-128zM384 -128h-128v128h-128v1280h128v-256h128v-256h-128v-512h128v-128h128v-128h-128v-128z" />
    <glyph glyph-name="Tcaron" unicode="&#x164;" horiz-adv-x="1152" 
d="M512 0v128v1024h-512v128h1024v-128h-384v-1152h-128zM512 1536h128v-128h-256v128h128z" />
    <glyph glyph-name="tcaron" unicode="&#x165;" horiz-adv-x="768" 
d="M512 896v128h128v-128h-128zM512 1152v128h128v-128h-128zM384 0h-128h-128v1280h128v-256h128v-256h-128v-512h128v-128h128v-128h-128z" />
    <glyph glyph-name="Tbar" unicode="&#x166;" horiz-adv-x="1152" 
d="M512 0v128v384h-256v128h128v128h128v384h-512v128h1024v-128h-384v-512h256v-128h-256v-512h-128z" />
    <glyph glyph-name="tbar" unicode="&#x167;" horiz-adv-x="640" 
d="M384 128h128v-128h-384v512h-128v128h128v128h-128v256h128v256h128v-256h128v-256h-128v-128h128v-256h-128v-256h128z" />
    <glyph glyph-name="Utilde" unicode="&#x168;" horiz-adv-x="1280" 
d="M384 1408v128h128v-128h-128zM896 0h-128h-384v128h512v128h128v1024h128v-1152h-128v-128h-128zM384 128h-128v128h-128v1024h128v-896h128v-256zM768 1536h128v-128h-256v128h128z" />
    <glyph glyph-name="utilde" unicode="&#x169;" 
d="M768 0v128h-128v-128h-384v128h-128v896h128v-768h128v-128h256v128h128v640h128v-896h-128zM640 1280h128v-128h-512v128h384z" />
    <glyph glyph-name="Umacron" unicode="&#x16a;" horiz-adv-x="1280" 
d="M896 0h-128h-384v128h512v128h128v1024h128v-1152h-128v-128h-128zM384 128h-128v128h-128v1024h128v-896h128v-256zM768 1536h128v-128h-512v128h384z" />
    <glyph glyph-name="umacron" unicode="&#x16b;" 
d="M768 0v128h-128v-128h-384v128h-128v896h128v-768h128v-128h256v128h128v640h128v-896h-128zM640 1280h128v-128h-512v128h384z" />
    <glyph glyph-name="Ubreve" unicode="&#x16c;" horiz-adv-x="1280" 
d="M896 0h-128h-384v128h512v128h128v1024h128v-1152h-128v-128h-128zM384 128h-128v128h-128v1024h128v-896h128v-256zM768 1536h128v-128h-384v128h256z" />
    <glyph glyph-name="ubreve" unicode="&#x16d;" 
d="M768 0v128h-128v-128h-384v128h-128v896h128v-768h128v-128h256v128h128v640h128v-896h-128zM640 1152v128h128v-128h-128zM256 1152v128h128v-128h-128z" />
    <glyph glyph-name="Uring" unicode="&#x16e;" horiz-adv-x="1280" 
d="M896 0h-128h-384v128h512v128h128v1024h128v-1152h-128v-128h-128zM384 128h-128v128h-128v1024h128v-896h128v-256z" />
    <glyph glyph-name="uring" unicode="&#x16f;" 
d="M768 0v128h-128v-128h-384v128h-128v896h128v-768h128v-128h256v128h128v640h128v-896h-128zM384 1280v128h128v-128h-128zM512 1152h128v-128h-256v128h128z" />
    <glyph glyph-name="Uhungarumlaut" unicode="&#x170;" horiz-adv-x="1280" 
d="M768 1408v128h128v-128h-128zM896 0h-128h-384v128h512v128h128v1024h128v-1152h-128v-128h-128zM384 128h-128v128h-128v1024h128v-896h128v-256zM512 1536h128v-128h-256v128h128z" />
    <glyph glyph-name="uhungarumlaut" unicode="&#x171;" 
d="M768 0v128h-128v-128h-384v128h-128v896h128v-768h128v-128h256v128h128v640h128v-896h-128zM512 1024v128h128v-128h-128zM256 1152v128h128v-128h-128zM640 1152v128h128v-128h-128z" />
    <glyph glyph-name="Uogonek" unicode="&#x172;" horiz-adv-x="1280" 
d="M768 -384h-128v384h-256v128h512v128h128v1024h128v-1152h-128v-128h-256v-256h128v-128h-128zM384 128h-128v128h-128v1024h128v-896h128v-256z" />
    <glyph glyph-name="uogonek" unicode="&#x173;" 
d="M768 -384h-128v384h128v-256h128v-128h-128zM768 0v128h-128v-128h-384v128h-128v896h128v-768h128v-128h256v128h128v640h128v-896h-128z" />
    <glyph glyph-name="Wcircumflex" unicode="&#x174;" horiz-adv-x="1792" 
d="M384 0v128h-128v512h-128v512h-128v128h256v-512h128v-384h128v256h128v-512h-128v-128h-128zM640 1408v128h128v-128h-128zM1280 0h-128v384h128v128h128v512h128v256h128v-384h-128v-512h-128v-384h-128zM1152 384h-128v384h-128v256h-128v-384h-128v512h128v128h256
v-384h128v-512zM1024 1536h128v-128h-256v128h128z" />
    <glyph glyph-name="wcircumflex" unicode="&#x175;" horiz-adv-x="1408" 
d="M768 1024v128h-256v128h384v-256h-128zM896 0h-128v512h-128v-128h-128v-384h-256v256h-128v512h-128v128h256v-512h128v128h128v384h256v-256h128v-256h128v384h128v256h128v-384h-128v-384h-128v-256h-128z" />
    <glyph glyph-name="Ycircumflex" unicode="&#x176;" horiz-adv-x="1280" 
d="M512 0v128v512h-128v256h128v-128h128v128h128v128h128v-256h-128v-128h-128v-640h-128zM384 1408v128h128v-128h-128zM384 896h-128v128h-128v256h128v-128h128v-256zM896 1024v128v128h256v-128h-128v-128h-128zM768 1536h128v-128h-256v128h128z" />
    <glyph glyph-name="ycircumflex" unicode="&#x177;" 
d="M640 1024v128h128v-128h-128zM256 1024v128v128h384v-128h-256v-128h-128zM256 -384h-128v128h128v128h128v256h-128v384h-128v384h128v-256h128v-384h128v256h128v384h256v-128h-128v-384h-128v-256h-128v-384h-128v-128h-128z" />
    <glyph glyph-name="Ydieresis" unicode="&#x178;" horiz-adv-x="1280" 
d="M512 0v128v512h-128v256h128v-128h128v128h128v128h128v-256h-128v-128h-128v-640h-128zM384 1408v128h128v-128h-128zM384 896h-128v128h-128v256h128v-128h128v-256zM896 1024v128v128h256v-128h-128v-128h-128zM768 1536h128v-128h-256v128h128z" />
    <glyph glyph-name="Zacute" unicode="&#x179;" horiz-adv-x="1152" 
d="M896 128h128v-128h-1024v256h128v128h128v128h128v128h128v-256h-128v-128h-128v-128h640zM512 640v128v128h128v128h128v128h-640v128h896v-256h-128v-128h-128v-128h-128v-128h-128zM512 1536h128v-128h-256v128h128z" />
    <glyph glyph-name="zacute" unicode="&#x17a;" 
d="M768 128h128v-128h-896v128h128v256h128v128h128v128h128v128h-384v256h256v256h256v-128h-128v-128h256v-384h-128v-128h-128v-128h-128v-128h-128v-128h512z" />
    <glyph glyph-name="Zdotaccent" unicode="&#x17b;" horiz-adv-x="1152" 
d="M512 1408v128h128v-128h-128zM896 128h128v-128h-1024v256h128v128h128v128h128v128h128v-256h-128v-128h-128v-128h640zM512 640v128v128h128v128h128v128h-640v128h896v-256h-128v-128h-128v-128h-128v-128h-128z" />
    <glyph glyph-name="zdotaccent" unicode="&#x17c;" 
d="M768 128h128v-128h-896v128h128v256h128v128h128v128h128v128h-384v256h256v256h128v-256h256v-384h-128v-128h-128v-128h-128v-128h-128v-128h512z" />
    <glyph glyph-name="Zcaron" unicode="&#x17d;" horiz-adv-x="1152" 
d="M896 128h128v-128h-1024v256h128v128h128v128h128v128h128v-256h-128v-128h-128v-128h640zM512 640v128v128h128v128h128v128h-640v128h896v-256h-128v-128h-128v-128h-128v-128h-128zM512 1536h128v-128h-256v128h128z" />
    <glyph glyph-name="zcaron" unicode="&#x17e;" 
d="M768 128h128v-128h-896v128h128v256h128v128h128v128h128v128h-384v256h256v128h-128v128h384v-128h-128v-128h256v-384h-128v-128h-128v-128h-128v-128h-128v-128h512z" />
    <glyph glyph-name="Euro" unicode="&#x20ac;" horiz-adv-x="1280" 
d="M1024 1152v128h128v-128h-128zM896 128h128v-128h-640v128h512zM1024 128v128h128v-128h-128zM384 128h-128v128h128v-128zM256 256h-128v256h-256v128h256v128h-256v128h256v256h128v-256h768v-128h-768v-128h768v-128h-768v-256zM256 1152v128h128v-128h-128z
M1024 1280h-128h-512v128h640v-128z" />
    <glyph glyph-name="SF100000" unicode="&#x2500;" horiz-adv-x="1408" 
d="M1152 640h128v-128h-1280v128h1152z" />
    <glyph glyph-name="uni2501" unicode="&#x2501;" horiz-adv-x="1920" 
d="M1664 512h-128h-1536v256h1792v-256h-128z" />
    <glyph glyph-name="SF110000" unicode="&#x2502;" horiz-adv-x="640" 
d="M384 -512v128v1920h128v-2048h-128z" />
    <glyph glyph-name="uni2503" unicode="&#x2503;" horiz-adv-x="1152" 
d="M896 -256h-128v1792h256v-1792h-128z" />
    <glyph glyph-name="uni2504" unicode="&#x2504;" horiz-adv-x="1920" 
d="M1664 768h128v-128h-384v128h256zM1024 768h128v-128h-384v128h256zM384 768h128v-128h-384v128h256z" />
    <glyph glyph-name="uni2505" unicode="&#x2505;" horiz-adv-x="1920" 
d="M1664 512h-128h-256v256h512v-256h-128zM1024 512h-128h-256v256h512v-256h-128zM384 512h-128h-256v256h512v-256h-128z" />
    <glyph glyph-name="uni2506" unicode="&#x2506;" horiz-adv-x="1152" 
d="M896 -128v128v256h128v-384h-128zM896 512v128v256h128v-384h-128zM896 1152v128v256h128v-384h-128z" />
    <glyph glyph-name="uni2507" unicode="&#x2507;" horiz-adv-x="1152" 
d="M896 -256h-128v512h256v-512h-128zM896 384h-128v512h256v-512h-128zM896 1024h-128v512h256v-512h-128z" />
    <glyph glyph-name="uni2508" unicode="&#x2508;" horiz-adv-x="1664" 
d="M1408 768h128v-128h-256v128h128zM1024 768h128v-128h-256v128h128zM640 768h128v-128h-256v128h128zM256 768h128v-128h-256v128h128z" />
    <glyph glyph-name="uni2509" unicode="&#x2509;" horiz-adv-x="1920" 
d="M1664 512h-128h-128v256h384v-256h-128zM1152 512h-128h-128v256h384v-256h-128zM640 512h-128h-128v256h384v-256h-128zM128 512h-128h-128v256h384v-256h-128z" />
    <glyph glyph-name="uni250A" unicode="&#x250a;" horiz-adv-x="1152" 
d="M896 -256v128v128h128v-256h-128zM896 256v128v128h128v-256h-128zM896 768v128v128h128v-256h-128zM896 1280v128v128h128v-256h-128z" />
    <glyph glyph-name="uni250B" unicode="&#x250b;" horiz-adv-x="1152" 
d="M896 -256h-128v256h256v-256h-128zM896 256h-128v256h256v-256h-128zM896 768h-128v256h256v-256h-128zM896 1280h-128v256h256v-256h-128z" />
    <glyph glyph-name="SF010000" unicode="&#x250c;" horiz-adv-x="1408" 
d="M640 -512h-128v1152h768v-128h-512v-1024h-128z" />
    <glyph glyph-name="uni250D" unicode="&#x250d;" horiz-adv-x="1920" 
d="M896 -256v128v896h896v-256h-768v-768h-128z" />
    <glyph glyph-name="uni250E" unicode="&#x250e;" horiz-adv-x="1920" 
d="M896 -256h-128v1024h1024v-128h-768v-896h-128z" />
    <glyph glyph-name="uni250F" unicode="&#x250f;" horiz-adv-x="1920" 
d="M896 -256h-128v1024h1024v-256h-768v-768h-128z" />
    <glyph glyph-name="SF030000" unicode="&#x2510;" horiz-adv-x="896" 
d="M640 -512h-128v1024h-512v128h768v-1152h-128z" />
    <glyph glyph-name="uni2511" unicode="&#x2511;" horiz-adv-x="1152" 
d="M896 -256v128v640h-896v256h1024v-1024h-128z" />
    <glyph glyph-name="uni2512" unicode="&#x2512;" horiz-adv-x="1152" 
d="M896 -256h-128v896h-768v128h1024v-1024h-128z" />
    <glyph glyph-name="uni2513" unicode="&#x2513;" horiz-adv-x="1152" 
d="M896 -256h-128v768h-768v256h1024v-1024h-128z" />
    <glyph glyph-name="SF020000" unicode="&#x2514;" horiz-adv-x="1408" 
d="M1152 640h128v-128h-768v1024h256v-896h384z" />
    <glyph glyph-name="uni2515" unicode="&#x2515;" horiz-adv-x="1920" 
d="M1664 512h-128h-640v1024h128v-768h768v-256h-128z" />
    <glyph glyph-name="uni2516" unicode="&#x2516;" horiz-adv-x="1920" 
d="M1664 768h128v-128h-1024v896h256v-768h640z" />
    <glyph glyph-name="uni2517" unicode="&#x2517;" horiz-adv-x="1920" 
d="M1664 512h-128h-768v1024h256v-768h768v-256h-128z" />
    <glyph glyph-name="SF040000" unicode="&#x2518;" horiz-adv-x="896" 
d="M640 512h-128h-512v128h512v896h256v-1024h-128z" />
    <glyph glyph-name="uni2519" unicode="&#x2519;" horiz-adv-x="1152" 
d="M896 512h-128h-768v256h896v768h128v-1024h-128z" />
    <glyph glyph-name="uni251A" unicode="&#x251a;" horiz-adv-x="1152" 
d="M896 640h-128h-768v128h768v768h256v-896h-128z" />
    <glyph glyph-name="uni251B" unicode="&#x251b;" horiz-adv-x="1152" 
d="M896 512h-128h-768v256h768v768h256v-1024h-128z" />
    <glyph glyph-name="SF080000" unicode="&#x251c;" horiz-adv-x="1408" 
d="M640 -512h-128v2048h256v-896h512v-128h-512v-1024h-128z" />
    <glyph glyph-name="uni251D" unicode="&#x251d;" horiz-adv-x="1920" 
d="M896 -256v128v1664h128v-768h768v-256h-768v-768h-128z" />
    <glyph glyph-name="uni251E" unicode="&#x251e;" horiz-adv-x="1920" 
d="M896 -256v128v768h-128v896h256v-768h768v-128h-768v-896h-128z" />
    <glyph glyph-name="uni251F" unicode="&#x251f;" horiz-adv-x="1920" 
d="M896 -256h-128v1024h128v768h128v-768h768v-128h-768v-896h-128z" />
    <glyph glyph-name="uni2520" unicode="&#x2520;" horiz-adv-x="1920" 
d="M896 -256h-128v1792h256v-768h768v-128h-768v-896h-128z" />
    <glyph glyph-name="uni2521" unicode="&#x2521;" horiz-adv-x="1920" 
d="M896 -256v128v640h-128v1024h256v-768h768v-256h-768v-768h-128z" />
    <glyph glyph-name="uni2522" unicode="&#x2522;" horiz-adv-x="1920" 
d="M896 -256h-128v1024h128v768h128v-768h768v-256h-768v-768h-128z" />
    <glyph glyph-name="uni2523" unicode="&#x2523;" horiz-adv-x="1920" 
d="M896 -256h-128v1792h256v-768h768v-256h-768v-768h-128z" />
    <glyph glyph-name="SF090000" unicode="&#x2524;" horiz-adv-x="896" 
d="M640 -512h-128v1024h-512v128h512v896h256v-2048h-128z" />
    <glyph glyph-name="uni2525" unicode="&#x2525;" horiz-adv-x="1152" 
d="M896 -256v128v640h-896v256h896v768h128v-1792h-128z" />
    <glyph glyph-name="uni2526" unicode="&#x2526;" horiz-adv-x="1152" 
d="M896 -256v128v768h-896v128h768v768h256v-1792h-128z" />
    <glyph glyph-name="uni2527" unicode="&#x2527;" horiz-adv-x="1152" 
d="M896 -256h-128v896h-768v128h896v768h128v-1792h-128z" />
    <glyph glyph-name="uni2528" unicode="&#x2528;" horiz-adv-x="1152" 
d="M896 -256h-128v896h-768v128h768v768h256v-1792h-128z" />
    <glyph glyph-name="uni2529" unicode="&#x2529;" horiz-adv-x="1152" 
d="M896 -256v128v640h-896v256h768v768h256v-1792h-128z" />
    <glyph glyph-name="uni252A" unicode="&#x252a;" horiz-adv-x="1152" 
d="M896 -256h-128v768h-768v256h896v768h128v-1792h-128z" />
    <glyph glyph-name="uni252B" unicode="&#x252b;" horiz-adv-x="1152" 
d="M896 -256h-128v768h-768v256h768v768h256v-1792h-128z" />
    <glyph glyph-name="SF060000" unicode="&#x252c;" horiz-adv-x="1408" 
d="M640 -512h-128v1024h-512v128h1280v-128h-512v-1024h-128z" />
    <glyph glyph-name="uni252D" unicode="&#x252d;" horiz-adv-x="1920" 
d="M896 -256v128v640h-896v256h1792v-128h-768v-896h-128z" />
    <glyph glyph-name="uni252E" unicode="&#x252e;" horiz-adv-x="1920" 
d="M896 -256v128v768h-896v128h1792v-256h-768v-768h-128z" />
    <glyph glyph-name="uni252F" unicode="&#x252f;" horiz-adv-x="1920" 
d="M896 -256v128v640h-896v256h1792v-256h-768v-768h-128z" />
    <glyph glyph-name="uni2530" unicode="&#x2530;" horiz-adv-x="1920" 
d="M896 -256h-128v896h-768v128h1792v-128h-768v-896h-128z" />
    <glyph glyph-name="uni2531" unicode="&#x2531;" horiz-adv-x="1920" 
d="M896 -256h-128v768h-768v256h1792v-128h-768v-896h-128z" />
    <glyph glyph-name="uni2532" unicode="&#x2532;" horiz-adv-x="1920" 
d="M896 -256h-128v896h-768v128h1792v-256h-768v-768h-128z" />
    <glyph glyph-name="uni2533" unicode="&#x2533;" horiz-adv-x="1920" 
d="M896 -256h-128v768h-768v256h1792v-256h-768v-768h-128z" />
    <glyph glyph-name="SF070000" unicode="&#x2534;" horiz-adv-x="1408" 
d="M1152 640h128v-128h-1280v128h512v896h256v-896h384z" />
    <glyph glyph-name="uni2535" unicode="&#x2535;" horiz-adv-x="1920" 
d="M768 512h-128h-640v256h896v768h128v-768h768v-128h-896v-128h-128z" />
    <glyph glyph-name="uni2536" unicode="&#x2536;" horiz-adv-x="1920" 
d="M1664 512h-128h-640v128h-896v128h896v768h128v-768h768v-256h-128z" />
    <glyph glyph-name="uni2537" unicode="&#x2537;" horiz-adv-x="1920" 
d="M1664 512h-128h-1536v256h896v768h128v-768h768v-256h-128z" />
    <glyph glyph-name="uni2538" unicode="&#x2538;" horiz-adv-x="1920" 
d="M1664 768h128v-128h-1792v128h768v768h256v-768h640z" />
    <glyph glyph-name="uni2539" unicode="&#x2539;" horiz-adv-x="1920" 
d="M896 512h-128h-768v256h768v768h256v-768h768v-128h-768v-128h-128z" />
    <glyph glyph-name="uni253A" unicode="&#x253a;" horiz-adv-x="1920" 
d="M1664 512h-128h-768v128h-768v128h768v768h256v-768h768v-256h-128z" />
    <glyph glyph-name="uni253B" unicode="&#x253b;" horiz-adv-x="1920" 
d="M1664 512h-128h-1536v256h768v768h256v-768h768v-256h-128z" />
    <glyph glyph-name="SF050000" unicode="&#x253c;" horiz-adv-x="1408" 
d="M640 -512h-128v1024h-512v128h512v896h256v-896h512v-128h-512v-1024h-128z" />
    <glyph glyph-name="uni253D" unicode="&#x253d;" horiz-adv-x="1920" 
d="M896 -256v128v640h-896v256h896v768h128v-768h768v-128h-768v-896h-128z" />
    <glyph glyph-name="uni253E" unicode="&#x253e;" horiz-adv-x="1920" 
d="M896 -256v128v768h-896v128h896v768h128v-768h768v-256h-768v-768h-128z" />
    <glyph glyph-name="uni253F" unicode="&#x253f;" horiz-adv-x="1920" 
d="M896 -256v128v640h-896v256h896v768h128v-768h768v-256h-768v-768h-128z" />
    <glyph glyph-name="uni2540" unicode="&#x2540;" horiz-adv-x="1920" 
d="M896 -256v128v768h-896v128h768v768h256v-768h768v-128h-768v-896h-128z" />
    <glyph glyph-name="uni2541" unicode="&#x2541;" horiz-adv-x="1920" 
d="M896 -256h-128v896h-768v128h896v768h128v-768h768v-128h-768v-896h-128z" />
    <glyph glyph-name="uni2542" unicode="&#x2542;" horiz-adv-x="1920" 
d="M896 -256h-128v896h-768v128h768v768h256v-768h768v-128h-768v-896h-128z" />
    <glyph glyph-name="uni2543" unicode="&#x2543;" horiz-adv-x="1920" 
d="M896 -256v128v640h-896v256h768v768h256v-768h768v-128h-768v-896h-128z" />
    <glyph glyph-name="uni2544" unicode="&#x2544;" horiz-adv-x="1920" 
d="M896 -256v128v640h-128v128h-768v128h768v768h256v-768h768v-256h-768v-768h-128z" />
    <glyph glyph-name="uni2545" unicode="&#x2545;" horiz-adv-x="1920" 
d="M896 -256h-128v768h-768v256h896v768h128v-768h768v-128h-768v-896h-128z" />
    <glyph glyph-name="uni2546" unicode="&#x2546;" horiz-adv-x="1920" 
d="M896 -256h-128v896h-768v128h896v768h128v-768h768v-256h-768v-768h-128z" />
    <glyph glyph-name="uni2547" unicode="&#x2547;" horiz-adv-x="1920" 
d="M896 -256v128v640h-896v256h768v768h256v-768h768v-256h-768v-768h-128z" />
    <glyph glyph-name="uni2548" unicode="&#x2548;" horiz-adv-x="1920" 
d="M896 -256h-128v768h-768v256h896v768h128v-768h768v-256h-768v-768h-128z" />
    <glyph glyph-name="uni2549" unicode="&#x2549;" horiz-adv-x="1920" 
d="M896 -256h-128v768h-768v256h768v768h256v-768h768v-128h-768v-896h-128z" />
    <glyph glyph-name="uni254A" unicode="&#x254a;" horiz-adv-x="1920" 
d="M896 -256h-128v896h-768v128h768v768h256v-768h768v-256h-768v-768h-128z" />
    <glyph glyph-name="uni254B" unicode="&#x254b;" horiz-adv-x="1920" 
d="M896 -256h-128v768h-768v256h768v768h256v-768h768v-256h-768v-768h-128z" />
    <glyph glyph-name="uni254C" unicode="&#x254c;" horiz-adv-x="1280" 
d="M1024 384h-128h-256v256h512v-256h-128zM384 384h-128h-256v256h512v-256h-128z" />
    <glyph glyph-name="uni254D" unicode="&#x254d;" horiz-adv-x="1280" 
d="M1024 384h-128h-256v256h512v-256h-128zM384 384h-128h-256v256h512v-256h-128z" />
    <glyph glyph-name="uni254E" unicode="&#x254e;" horiz-adv-x="768" 
d="M512 -512v128v768h128v-896h-128zM512 640v128v768h128v-896h-128z" />
    <glyph glyph-name="uni254F" unicode="&#x254f;" horiz-adv-x="768" 
d="M512 -512h-128v896h256v-896h-128zM512 640h-128v896h256v-896h-128z" />
    <glyph glyph-name="SF430000" unicode="&#x2550;" horiz-adv-x="1408" 
d="M1152 256h-128h-1024v256h1280v-256h-128zM1152 768h128v-128h-1280v128h1152z" />
    <glyph glyph-name="SF240000" unicode="&#x2551;" 
d="M768 -512v128v1920h128v-2048h-128zM384 -512v128v1920h128v-2048h-128z" />
    <glyph glyph-name="SF510000" unicode="&#x2552;" horiz-adv-x="1408" 
d="M640 -512h-128v1280h768v-128h-512v-128h512v-256h-512v-768h-128z" />
    <glyph glyph-name="SF520000" unicode="&#x2553;" horiz-adv-x="1408" 
d="M768 -512v128v768h-256v-896h-128v1152h896v-128h-384v-1024h-128z" />
    <glyph glyph-name="SF390000" unicode="&#x2554;" horiz-adv-x="1408" 
d="M768 -512v128v896h512v-256h-384v-768h-128zM384 -512v128v1152h896v-128h-768v-1152h-128z" />
    <glyph glyph-name="SF220000" unicode="&#x2555;" horiz-adv-x="896" 
d="M640 -512h-128v768h-512v256h512v128h-512v128h768v-1280h-128z" />
    <glyph glyph-name="SF210000" unicode="&#x2556;" 
d="M768 -512v128v896h-256v-1024h-128v1024h-384v128h896v-1152h-128z" />
    <glyph glyph-name="SF250000" unicode="&#x2557;" 
d="M768 -512v128v1024h-768v128h896v-1280h-128zM384 -512v128v640h-384v256h512v-1024h-128z" />
    <glyph glyph-name="SF500000" unicode="&#x2558;" horiz-adv-x="1408" 
d="M1152 256h-128h-512v1280h256v-768h512v-128h-512v-128h512v-256h-128z" />
    <glyph glyph-name="SF490000" unicode="&#x2559;" horiz-adv-x="1408" 
d="M1152 640h128v-128h-896v1024h128v-896h256v896h128v-896h256z" />
    <glyph glyph-name="SF380000" unicode="&#x255a;" horiz-adv-x="1408" 
d="M1152 256h-128h-640v1280h128v-1024h768v-256h-128zM1152 768h128v-128h-512v896h128v-768h256z" />
    <glyph glyph-name="SF280000" unicode="&#x255b;" horiz-adv-x="896" 
d="M640 256h-128h-512v256h512v128h-512v128h512v768h256v-1280h-128z" />
    <glyph glyph-name="SF270000" unicode="&#x255c;" 
d="M768 512h-128h-640v128h384v896h128v-896h256v896h128v-1024h-128z" />
    <glyph glyph-name="SF260000" unicode="&#x255d;" 
d="M768 256h-128h-640v256h768v1024h128v-1280h-128zM384 640h-128h-256v128h384v768h128v-896h-128z" />
    <glyph glyph-name="SF360000" unicode="&#x255e;" horiz-adv-x="1408" 
d="M640 -512h-128v2048h256v-768h512v-128h-512v-128h512v-256h-512v-768h-128z" />
    <glyph glyph-name="SF370000" unicode="&#x255f;" horiz-adv-x="1408" 
d="M768 -512v128v1920h128v-896h384v-128h-384v-1024h-128zM384 -512v128v1920h128v-2048h-128z" />
    <glyph glyph-name="SF420000" unicode="&#x2560;" horiz-adv-x="1408" 
d="M768 -512v128v896h512v-256h-384v-768h-128zM384 -512v128v1920h128v-2048h-128zM1152 768h128v-128h-512v896h128v-768h256z" />
    <glyph glyph-name="SF190000" unicode="&#x2561;" horiz-adv-x="896" 
d="M640 -512h-128v768h-512v256h512v128h-512v128h512v768h256v-2048h-128z" />
    <glyph glyph-name="SF200000" unicode="&#x2562;" 
d="M768 -512v128v1920h128v-2048h-128zM384 -512v128v896h-384v128h384v896h128v-2048h-128z" />
    <glyph glyph-name="SF230000" unicode="&#x2563;" 
d="M768 -512v128v1920h128v-2048h-128zM384 -512v128v640h-384v256h512v-1024h-128zM384 640h-128h-256v128h384v768h128v-896h-128z" />
    <glyph glyph-name="SF470000" unicode="&#x2564;" horiz-adv-x="1408" 
d="M640 -512h-128v768h-512v256h1280v-256h-512v-768h-128zM1152 768h128v-128h-1280v128h1152z" />
    <glyph glyph-name="SF480000" unicode="&#x2565;" horiz-adv-x="1408" 
d="M768 -512v128v768h-256v-896h-128v1024h-384v128h1280v-128h-384v-1024h-128z" />
    <glyph glyph-name="SF410000" unicode="&#x2566;" horiz-adv-x="1408" 
d="M768 -512v128v896h512v-256h-384v-768h-128zM384 -512v128v640h-384v256h512v-1024h-128zM1152 768h128v-128h-1280v128h1152z" />
    <glyph glyph-name="SF450000" unicode="&#x2567;" horiz-adv-x="1408" 
d="M1152 256h-128h-1024v256h1280v-256h-128zM1152 768h128v-128h-1280v128h512v768h256v-768h384z" />
    <glyph glyph-name="SF460000" unicode="&#x2568;" horiz-adv-x="1408" 
d="M1152 640h128v-128h-1280v128h384v896h128v-896h256v896h128v-896h256z" />
    <glyph glyph-name="SF400000" unicode="&#x2569;" horiz-adv-x="1408" 
d="M1152 256h-128h-1024v256h1280v-256h-128zM1152 768h128v-128h-512v896h128v-768h256zM384 640h-128h-256v128h384v768h128v-896h-128z" />
    <glyph glyph-name="SF540000" unicode="&#x256a;" horiz-adv-x="1408" 
d="M640 -512h-128v768h-512v256h512v128h-512v128h512v768h256v-768h512v-128h-512v-128h512v-256h-512v-768h-128z" />
    <glyph glyph-name="SF530000" unicode="&#x256b;" horiz-adv-x="1408" 
d="M768 -512v128v896h-256v-1024h-128v1024h-384v128h384v896h128v-896h256v896h128v-896h384v-128h-384v-1024h-128z" />
    <glyph glyph-name="SF440000" unicode="&#x256c;" horiz-adv-x="1408" 
d="M768 -512v128v896h512v-256h-384v-768h-128zM384 -512v128v640h-384v256h512v-1024h-128zM1152 768h128v-128h-512v896h128v-768h256zM384 640h-128h-256v128h384v768h128v-896h-128z" />
    <glyph glyph-name="uni256D" unicode="&#x256d;" horiz-adv-x="1920" 
d="M768 -256v128v512h128v-640h-128zM896 384v128h128v-128h-128zM1024 512v128h128v-128h-128zM1664 768h128v-128h-640v128h512z" />
    <glyph glyph-name="uni256E" unicode="&#x256e;" horiz-adv-x="1152" 
d="M896 -256v128v512h128v-640h-128zM896 384h-128v128h128v-128zM768 512h-128v128h128v-128zM640 640h-128h-512v128h640v-128z" />
    <glyph glyph-name="uni256F" unicode="&#x256f;" horiz-adv-x="1152" 
d="M512 640h128v-128h-640v128h512zM640 640v128h128v-128h-128zM768 768v128h128v-128h-128zM896 896v128v512h128v-640h-128z" />
    <glyph glyph-name="uni2570" unicode="&#x2570;" horiz-adv-x="1920" 
d="M1664 640h128v-128h-640v128h512zM1152 640h-128v128h128v-128zM1024 768h-128v128h128v-128zM896 896h-128v640h128v-640z" />
    <glyph glyph-name="uni2571" unicode="&#x2571;" horiz-adv-x="1920" 
d="M0 -256v128h128v-128h-128zM128 -128v128h128v-128h-128zM256 0v128h128v-128h-128zM384 128v128h128v-128h-128zM512 256v128h128v-128h-128zM640 384v128h128v-128h-128zM768 512v128h128v-128h-128zM896 640v128h128v-128h-128zM1024 768v128h128v-128h-128zM1152 896
v128h128v-128h-128zM1280 1024v128h128v-128h-128zM1408 1152v128h128v-128h-128zM1536 1280v128h128v-128h-128zM1664 1408v128h128v-128h-128z" />
    <glyph glyph-name="uni2572" unicode="&#x2572;" horiz-adv-x="1920" 
d="M1664 -256v128h128v-128h-128zM1664 -128h-128v128h128v-128zM1536 0h-128v128h128v-128zM1408 128h-128v128h128v-128zM1280 256h-128v128h128v-128zM1152 384h-128v128h128v-128zM1024 512h-128v128h128v-128zM896 640h-128v128h128v-128zM768 768h-128v128h128v-128z
M640 896h-128v128h128v-128zM512 1024h-128v128h128v-128zM384 1152h-128v128h128v-128zM256 1280h-128v128h128v-128zM128 1408h-128v128h128v-128z" />
    <glyph glyph-name="uni2573" unicode="&#x2573;" horiz-adv-x="1920" 
d="M1664 -256v128h128v-128h-128zM0 -256v128h128v-128h-128zM1664 -128h-128v128h128v-128zM128 -128v128h128v-128h-128zM1536 0h-128v128h128v-128zM256 0v128h128v-128h-128zM1408 128h-128v128h128v-128zM384 128v128h128v-128h-128zM1280 256h-128v128h128v-128z
M512 256v128h128v-128h-128zM1152 384h-128v128h128v-128zM640 384v128h128v-128h-128zM1024 512h-128h-128v256h256v-256zM1024 768v128h128v-128h-128zM768 768h-128v128h128v-128zM1152 896v128h128v-128h-128zM640 896h-128v128h128v-128zM1280 1024v128h128v-128h-128z
M512 1024h-128v128h128v-128zM1408 1152v128h128v-128h-128zM384 1152h-128v128h128v-128zM1536 1280v128h128v-128h-128zM256 1280h-128v128h128v-128zM1664 1408v128h128v-128h-128zM128 1408h-128v128h128v-128z" />
    <glyph glyph-name="uni2574" unicode="&#x2574;" 
d="M768 768h128v-128h-896v128h768z" />
    <glyph glyph-name="uni2575" unicode="&#x2575;" horiz-adv-x="768" 
d="M512 512v128v896h128v-1024h-128z" />
    <glyph glyph-name="uni2576" unicode="&#x2576;" horiz-adv-x="1280" 
d="M1024 384h-128h-256v256h512v-256h-128z" />
    <glyph glyph-name="uni2577" unicode="&#x2577;" horiz-adv-x="768" 
d="M512 -512v128v896h128v-1024h-128z" />
    <glyph glyph-name="uni2578" unicode="&#x2578;" horiz-adv-x="640" 
d="M384 384h-128h-256v256h512v-256h-128z" />
    <glyph glyph-name="uni2579" unicode="&#x2579;" horiz-adv-x="768" 
d="M512 512h-128v1024h256v-1024h-128z" />
    <glyph glyph-name="uni257A" unicode="&#x257a;" horiz-adv-x="1280" 
d="M1024 384h-128h-384v256h640v-256h-128z" />
    <glyph glyph-name="uni257B" unicode="&#x257b;" horiz-adv-x="768" 
d="M512 -512h-128v1024h256v-1024h-128z" />
    <glyph glyph-name="uni257C" unicode="&#x257c;" horiz-adv-x="1280" 
d="M1024 384h-128h-384v128h-512v128h1152v-256h-128z" />
    <glyph glyph-name="uni257D" unicode="&#x257d;" horiz-adv-x="768" 
d="M512 -512h-128v1024h128v1024h128v-2048h-128z" />
    <glyph glyph-name="uni257E" unicode="&#x257e;" horiz-adv-x="1280" 
d="M512 384h-128h-384v256h1152v-128h-512v-128h-128z" />
    <glyph glyph-name="uni257F" unicode="&#x257f;" horiz-adv-x="768" 
d="M512 -512v128v896h-128v1024h256v-2048h-128z" />
    <glyph glyph-name="upblock" unicode="&#x2580;" horiz-adv-x="1536" 
d="M1280 640h-128h-1152v896h1408v-896h-128z" />
    <glyph glyph-name="uni2581" unicode="&#x2581;" horiz-adv-x="1920" 
d="M1664 -256h-128h-1536v256h1792v-256h-128z" />
    <glyph glyph-name="uni2582" unicode="&#x2582;" horiz-adv-x="1920" 
d="M1664 -256h-128h-1536v512h1792v-512h-128z" />
    <glyph glyph-name="uni2583" unicode="&#x2583;" horiz-adv-x="1920" 
d="M1664 -256h-128h-1536v768h1792v-768h-128z" />
    <glyph glyph-name="dnblock" unicode="&#x2584;" horiz-adv-x="1536" 
d="M1280 -512h-128h-1152v1152h1408v-1152h-128z" />
    <glyph glyph-name="uni2585" unicode="&#x2585;" horiz-adv-x="1920" 
d="M1664 -256h-128h-1536v1280h1792v-1280h-128z" />
    <glyph glyph-name="uni2586" unicode="&#x2586;" horiz-adv-x="1920" 
d="M1664 -256h-128h-1536v1536h1792v-1536h-128z" />
    <glyph glyph-name="uni2587" unicode="&#x2587;" horiz-adv-x="1920" 
d="M1664 -256h-128h-1536v1792h1792v-1792h-128z" />
    <glyph glyph-name="block" unicode="&#x2588;" horiz-adv-x="1536" 
d="M1280 -512h-128h-1152v2048h1408v-2048h-128z" />
    <glyph glyph-name="uni2589" unicode="&#x2589;" horiz-adv-x="1920" 
d="M1664 -256h-128h-1536v1792h1792v-1792h-128z" />
    <glyph glyph-name="uni258A" unicode="&#x258a;" horiz-adv-x="1664" 
d="M1408 -256h-128h-1280v1792h1536v-1792h-128z" />
    <glyph glyph-name="uni258B" unicode="&#x258b;" horiz-adv-x="1408" 
d="M1152 -256h-128h-1024v1792h1280v-1792h-128z" />
    <glyph glyph-name="lfblock" unicode="&#x258c;" horiz-adv-x="896" 
d="M640 -512h-128h-512v2048h768v-2048h-128z" />
    <glyph glyph-name="uni258D" unicode="&#x258d;" horiz-adv-x="896" 
d="M640 -256h-128h-512v1792h768v-1792h-128z" />
    <glyph glyph-name="uni258E" unicode="&#x258e;" horiz-adv-x="640" 
d="M384 -256h-128h-256v1792h512v-1792h-128z" />
    <glyph glyph-name="uni258F" unicode="&#x258f;" horiz-adv-x="384" 
d="M128 -256h-128v1792h256v-1792h-128z" />
    <glyph glyph-name="ltshade" unicode="&#x2591;" horiz-adv-x="1408" 
d="M384 -512v128h128v-128h-128zM640 -256v128h128v-128h-128zM128 -256v128h128v-128h-128zM384 0v128h128v-128h-128zM640 256v128h128v-128h-128zM128 256v128h128v-128h-128zM384 512v128h128v-128h-128zM128 768v128h128v-128h-128zM1152 -128h128v-128h-256v128h128z
" />
    <glyph glyph-name="shade" unicode="&#x2592;" horiz-adv-x="1536" 
d="M512 -512v128h128v-128h-128zM256 -512v128h128v-128h-128zM0 -512v128h128v-128h-128zM640 -256v128h128v-128h-128zM384 -256v128h128v-128h-128zM128 -256v128h128v-128h-128zM768 0v128h128v-128h-128zM512 0v128h128v-128h-128zM256 0v128h128v-128h-128zM0 0v128
h128v-128h-128zM640 256v128h128v-128h-128zM384 256v128h128v-128h-128zM128 256v128h128v-128h-128zM512 512v128h128v-128h-128zM256 512v128h128v-128h-128zM0 512v128h128v-128h-128zM128 768v128h128v-128h-128zM0 1024v128h128v-128h-128zM1280 -128h128v-128h-512
v128h384z" />
    <glyph glyph-name="dkshade" unicode="&#x2593;" horiz-adv-x="1664" 
d="M1280 -512v128h-128v-128h-128v128h-128v-128h-128v128h-128v-128h-128v128h-128v-128h-128v128h-128v-128h-128v256h128v128h-128v384h128v128h-128v384h128v128h-128v384h128v128h-128v128h1408v-128h128v-256h-128v-256h128v-256h-128v-128h128v-384h-128v-128h128
v-384h-128v-128h-128zM1408 -256v128h-128v-128h128zM1152 -256v128h-128v-128h128zM896 -256v128h-128v-128h128zM640 -256v128h-128v-128h128zM384 -256v128h-128v-128h128zM1280 0v128h-128v-128h128zM1024 0v128h-128v-128h128zM768 0v128h-128v-128h128zM512 0v128
h-128v-128h128zM256 0v128h-128v-128h128zM1408 256v128h-128v-128h128zM1152 256v128h-128v-128h128zM896 256v128h-128v-128h128zM640 256v128h-128v-128h128zM384 256v128h-128v-128h128zM1280 512v128h-128v-128h128zM1024 512v128h-128v-128h128zM768 512v128h-128
v-128h128zM512 512v128h-128v-128h128zM256 512v128h-128v-128h128zM896 768v128h-128v-128h128zM640 768v128h-128v-128h128zM384 768v128h-128v-128h128zM1024 1024v128h-128v-128h128zM768 1024v128h-128v-128h128zM512 1024v128h-128v-128h128zM256 1024v128h-128v-128
h128zM896 1280v128h-128v-128h128zM640 1280v128h-128v-128h128zM384 1280v128h-128v-128h128z" />
    <glyph glyph-name="uni2596" unicode="&#x2596;" horiz-adv-x="768" 
d="M512 -512h-128h-384v1024h640v-1024h-128z" />
    <glyph glyph-name="uni2597" unicode="&#x2597;" horiz-adv-x="1408" 
d="M1152 -512h-128h-384v1024h640v-1024h-128z" />
    <glyph glyph-name="uni2598" unicode="&#x2598;" horiz-adv-x="768" 
d="M512 512h-128h-384v1024h640v-1024h-128z" />
    <glyph glyph-name="uni2599" unicode="&#x2599;" horiz-adv-x="1408" 
d="M1152 -512h-128h-1024v2048h640v-1024h640v-1024h-128z" />
    <glyph glyph-name="uni259A" unicode="&#x259a;" horiz-adv-x="1408" 
d="M1152 -512h-128h-384v1024h640v-1024h-128zM640 512h-128h-512v1024h640v-1024z" />
    <glyph glyph-name="uni259B" unicode="&#x259b;" horiz-adv-x="1408" 
d="M512 -512h-128h-384v2048h1280v-1024h-640v-1024h-128z" />
    <glyph glyph-name="uni259C" unicode="&#x259c;" horiz-adv-x="1408" 
d="M1152 -512h-128h-384v1024h-640v1024h1280v-2048h-128z" />
    <glyph glyph-name="uni259D" unicode="&#x259d;" horiz-adv-x="1408" 
d="M1152 512h-128h-384v1024h640v-1024h-128z" />
    <glyph glyph-name="uni259E" unicode="&#x259e;" horiz-adv-x="1408" 
d="M512 -512h-128h-384v1024h640v-1024h-128zM1152 512h-128h-384v1024h640v-1024h-128z" />
    <glyph glyph-name="uni259F" unicode="&#x259f;" horiz-adv-x="1408" 
d="M1152 -512h-128h-1024v1024h640v1024h640v-2048h-128z" />
    <glyph glyph-name="uni3000" unicode="&#x3000;" horiz-adv-x="2048" 
 />
  </font>
</defs>
</svg>
