<?xml version="1.0" standalone="no"?>
<!DOCTYPE svg PUBLIC "-//W3C//DTD SVG 1.1//EN" "http://www.w3.org/Graphics/SVG/1.1/DTD/svg11.dtd" >
<svg xmlns="http://www.w3.org/2000/svg" xmlns:xlink="http://www.w3.org/1999/xlink" version="1.1">
<metadata>
Created by FontForge 20170731 at Sat Sep 18 17:09:50 2021
 By Aleksey,,,
EmilyHuo
</metadata>
<defs>
<font id="RaccoonSerif-Mini" horiz-adv-x="768" >
  <font-face 
    font-family="RaccoonSerif"
    font-weight="500"
    font-stretch="normal"
    units-per-em="2048"
    panose-1="2 0 6 3 0 0 0 0 0 0"
    ascent="1536"
    descent="-512"
    x-height="640"
    cap-height="896"
    bbox="-256 -512 1152 1364"
    underline-thickness="102"
    underline-position="-304"
    unicode-range="U+0020-3000"
  />
<missing-glyph horiz-adv-x="748" 
d="M68 0h544v1364h-544v-1364zM136 68v1228h408v-1228h-408z" />
    <glyph glyph-name=".notdef" horiz-adv-x="748" 
d="M68 0h544v1364h-544v-1364zM136 68v1228h408v-1228h-408z" />
    <glyph glyph-name=".null" horiz-adv-x="0" 
 />
    <glyph glyph-name="nonmarkingreturn" horiz-adv-x="682" 
 />
    <glyph glyph-name="space" unicode=" " horiz-adv-x="640" 
 />
    <glyph glyph-name="exclam" unicode="!" horiz-adv-x="384" 
d="M128 256h128v640h-128v-640zM128 0h128v128h-128v-128z" />
    <glyph glyph-name="quotedbl" unicode="&#x22;" horiz-adv-x="640" 
d="M384 512h128v384h-128v-384zM128 512h128v384h-128v-384z" />
    <glyph glyph-name="numbersign" unicode="#" horiz-adv-x="1024" 
d="M384 0h128v128h256v128h-128v256h256v128h-128v128h-128v-128h-128v128h-128v-128h-256v-128h128v-256h-256v-128h128v-128h128v128h128v-128zM512 256h-128v256h128v-256z" />
    <glyph glyph-name="dollar" unicode="$" 
d="M128 128v-128h128v-128h128v128h128v128h-128v256h128v-256h128v256h-128v128h-128v256h128v-128h128v128h-128v128h-128v128h-128v-128h-128v-128h-128v-256h128v-128h128v-256h-128v128h-128v-128h128zM256 512h-128v256h128v-256z" />
    <glyph glyph-name="percent" unicode="%" horiz-adv-x="1280" 
d="M896 640h128v128h-128v-128zM512 640v128h-256v-128h256zM768 512h128v128h-128v-128zM640 512v128h-128v-128h128zM256 512v128h-128v-128h128zM768 384v128h-128v-128h128zM512 384v128h-256v-128h256zM1024 256v128h-256v-128h256zM640 256v128h-128v-128h128z
M1024 128h128v128h-128v-128zM768 128v128h-128v-128h128zM384 128h128v128h-128v-128zM256 0h128v128h-128v-128zM1024 128h-256v-128h256v128z" />
    <glyph glyph-name="ampersand" unicode="&#x26;" horiz-adv-x="1024" 
d="M512 768v128h-256v-128h256zM512 512h128v256h-128v-256zM256 512v256h-128v-256h128zM512 384v128h-256v-128h256zM256 128v256h-128v-256h128zM640 256v128h-128v-128h128zM768 128v128h-128v-128h128zM768 0h128v128h-128v-128zM256 128v-128h384v128h-384z" />
    <glyph glyph-name="quotesingle" unicode="'" horiz-adv-x="512" 
d="M256 512h128v384h-128v-384z" />
    <glyph glyph-name="parenleft" unicode="(" horiz-adv-x="512" 
d="M256 768h128v128h-128v-128zM128 640h128v128h-128v-128zM128 128v512h-128v-512h128zM256 0v128h-128v-128h128zM256 -128h128v128h-128v-128z" />
    <glyph glyph-name="parenright" unicode=")" horiz-adv-x="512" 
d="M128 768v128h-128v-128h128zM256 640v128h-128v-128h128zM256 128h128v512h-128v-512zM128 0h128v128h-128v-128zM0 -128h128v128h-128v-128z" />
    <glyph glyph-name="asterisk" unicode="*" horiz-adv-x="640" 
d="M384 768h128v128h-128v-128zM128 768v128h-128v-128h128zM384 384v128h128v128h-128v128h-256v-128h-128v-128h128v-128h256zM384 256h128v128h-128v-128zM0 256h128v128h-128v-128z" />
    <glyph glyph-name="plus" unicode="+" 
d="M256 128h128v256h256v128h-256v256h-128v-256h-256v-128h256v-256z" />
    <glyph glyph-name="comma" unicode="," horiz-adv-x="512" 
d="M256 -128h128v256h-256v-128h128v-128zM128 -256h128v128h-128v-128z" />
    <glyph glyph-name="hyphen" unicode="-" 
d="M640 512h-640v-128h640v128z" />
    <glyph glyph-name="period" unicode="." horiz-adv-x="384" 
d="M128 0h128v128h-128v-128z" />
    <glyph glyph-name="slash" unicode="/" horiz-adv-x="640" 
d="M384 640h128v128h-128v-128zM256 384h128v256h-128v-256zM128 128h128v256h-128v-256zM0 0h128v128h-128v-128z" />
    <glyph glyph-name="zero" unicode="0" 
d="M512 768v128h-384v-128h384zM512 128h128v640h-128v-128h-128v-128h-128v-128h128v128h128v-384zM128 256h128v128h-128v384h-128v-640h128v128zM512 128h-384v-128h384v128z" />
    <glyph glyph-name="one" unicode="1" horiz-adv-x="896" 
d="M768 128h-256v768h-128v-128h-128v-128h128v-512h-256v-128h640v128zM128 512h128v128h-128v-128z" />
    <glyph glyph-name="two" unicode="2" 
d="M512 768v128h-384v-128h384zM0 640h128v128h-128v-128zM512 512h128v256h-128v-256zM512 512h-256v-128h256v128zM128 256h128v128h-128v-128zM640 256h-128v-128h-384v128h-128v-256h640v256z" />
    <glyph glyph-name="three" unicode="3" 
d="M512 768v128h-384v-128h384zM0 640h128v128h-128v-128zM512 512h128v256h-128v-256zM512 384v128h-256v-128h256zM512 128h128v256h-128v-256zM128 128v128h-128v-128h128zM512 128h-384v-128h384v128z" />
    <glyph glyph-name="four" unicode="4" horiz-adv-x="896" 
d="M768 128h-128v128h128v128h-128v512h-256v-128h-128v-128h-128v-128h-128v-256h512v-128h-128v-128h384v128zM128 384v128h128v128h128v128h128v-384h-384z" />
    <glyph glyph-name="five" unicode="5" 
d="M512 384v128h-384v256h512v128h-640v-512h512zM512 128h128v256h-128v-256zM128 128v128h-128v-128h128zM512 128h-384v-128h384v128z" />
    <glyph glyph-name="six" unicode="6" 
d="M512 768v128h-384v-128h384zM512 640h128v128h-128v-128zM128 128v256h384v128h-384v256h-128v-640h128zM512 128h128v256h-128v-256zM128 128v-128h384v128h-384z" />
    <glyph glyph-name="seven" unicode="7" 
d="M0 640h128v128h384v-128h-128v-128h-128v-128h128v128h128v128h128v256h-640v-256zM128 0h128v384h-128v-384z" />
    <glyph glyph-name="eight" unicode="8" 
d="M512 768v128h-384v-128h384zM512 512h128v256h-128v-256zM128 512v256h-128v-256h128zM512 384v128h-384v-128h384zM512 128h128v256h-128v-256zM128 128v256h-128v-256h128zM128 128v-128h384v128h-384z" />
    <glyph glyph-name="nine" unicode="9" 
d="M512 768v128h-384v-128h384zM128 384v-128h384v-128h128v640h-128v-384h-384v384h-128v-384h128zM512 128h-384v-128h384v128z" />
    <glyph glyph-name="colon" unicode=":" horiz-adv-x="384" 
d="M128 512h128v128h-128v-128zM128 0h128v128h-128v-128z" />
    <glyph glyph-name="semicolon" unicode=";" horiz-adv-x="512" 
d="M384 640h-256v-256h256v256zM256 -128h128v256h-256v-128h128v-128zM128 -256h128v128h-128v-128z" />
    <glyph glyph-name="less" unicode="&#x3c;" 
d="M640 640h-256v-128h256v128zM384 512h-256v-128h256v128zM128 256v128h-128v-128h128zM384 128v128h-256v-128h256zM640 128h-256v-128h256v128z" />
    <glyph glyph-name="equal" unicode="=" 
d="M640 640h-640v-128h640v128zM640 384h-640v-128h640v128z" />
    <glyph glyph-name="greater" unicode="&#x3e;" 
d="M256 512v128h-256v-128h256zM512 384v128h-256v-128h256zM512 256h128v128h-128v-128zM512 256h-256v-128h256v128zM256 128h-256v-128h256v128z" />
    <glyph glyph-name="question" unicode="?" 
d="M512 768v128h-256v-128h256zM128 640h128v128h-128v-128zM512 512h128v256h-128v-256zM384 384h128v128h-128v-128zM256 256h128v128h-128v-128zM256 0h128v128h-128v-128z" />
    <glyph glyph-name="at" unicode="@" horiz-adv-x="1280" 
d="M896 640v128h-512v-128h512zM1024 512v128h-128v-128h128zM256 512h128v128h-128v-128zM512 128v-128h384v-128h128v128h128v512h-128v-384h-128v256h-128v-256h-256v256h-128v-256h128zM256 0v512h-128v-512h128zM768 384v128h-256v-128h256zM384 -128v128h-128v-128
h128zM896 -128h-512v-128h512v128z" />
    <glyph glyph-name="A" unicode="A" horiz-adv-x="1024" 
d="M512 768v128h-128v-128h128zM640 512v256h-128v-256h128zM256 512h128v256h-128v-256zM640 512v-128h-384v128h-128v-384h-128v-128h256v256h384v-256h256v128h-128v384h-128z" />
    <glyph glyph-name="B" unicode="B" horiz-adv-x="896" 
d="M768 384h-128v384h-128v-256h-384v256h384v128h-512v-896h640v128h-512v256h512v-256h128v256z" />
    <glyph glyph-name="C" unicode="C" horiz-adv-x="1024" 
d="M640 768v128h-384v-128h384zM896 640h-128v128h-128v-256h256v128zM128 640h128v128h-128v-128zM128 256v384h-128v-384h128zM640 128h128v128h-128v-128zM256 128v128h-128v-128h128zM640 128h-384v-128h384v128z" />
    <glyph glyph-name="D" unicode="D" horiz-adv-x="1024" 
d="M768 256h128v384h-128v128h-128v128h-640v-896h640v128h-512v640h512v-128h128v-384h-128v-128h128v128z" />
    <glyph glyph-name="E" unicode="E" horiz-adv-x="896" 
d="M640 640h128v256h-768v-896h768v256h-128v-128h-512v256h384v128h-384v256h512v-128z" />
    <glyph glyph-name="F" unicode="F" horiz-adv-x="1024" 
d="M768 640h128v256h-768v-768h-128v-128h384v128h-128v256h384v128h-384v256h512v-128z" />
    <glyph glyph-name="G" unicode="G" horiz-adv-x="1024" 
d="M640 768v128h-384v-128h384zM640 640h128v128h-128v-128zM128 640h128v128h-128v-128zM128 256v384h-128v-384h128zM640 128h128v256h128v128h-512v-128h256v-256zM256 128v128h-128v-128h128zM640 128h-384v-128h384v128z" />
    <glyph glyph-name="H" unicode="H" horiz-adv-x="1152" 
d="M256 384h512v-384h256v128h-128v640h128v128h-256v-384h-512v384h-256v-128h128v-640h-128v-128h256v384z" />
    <glyph glyph-name="I" unicode="I" 
d="M640 128h-256v640h256v128h-640v-128h256v-640h-256v-128h640v128z" />
    <glyph glyph-name="J" unicode="J" horiz-adv-x="896" 
d="M384 128h128v640h256v128h-640v-128h256v-640zM128 128v256h-128v-256h128zM128 128v-128h256v128h-256z" />
    <glyph glyph-name="K" unicode="K" horiz-adv-x="1024" 
d="M256 384h128v-128h128v-128h128v128h-128v128h-128v128h-128v384h-256v-128h128v-640h-128v-128h256v384zM896 896h-256v-128h256v128zM512 640h128v128h-128v-128zM384 512h128v128h-128v-128zM896 128h-256v-128h256v128z" />
    <glyph glyph-name="L" unicode="L" horiz-adv-x="896" 
d="M768 256h-128v-128h-512v640h128v128h-384v-128h128v-768h768v256z" />
    <glyph glyph-name="M" unicode="M" horiz-adv-x="1280" 
d="M1152 128h-128v768h-128v-128h-128v-128h-128v-128h128v128h128v-512h-128v-128h384v128zM384 128h-128v512h128v-128h128v128h-128v128h-128v128h-128v-768h-128v-128h384v128zM512 384h128v128h-128v-128z" />
    <glyph glyph-name="N" unicode="N" horiz-adv-x="1280" 
d="M640 384v128h-128v256h-128v128h-256v-768h-128v-128h384v128h-128v640h128v-256h128v-128h128v-256h128v-128h256v768h128v128h-256v-768h-128v256h-128z" />
    <glyph glyph-name="O" unicode="O" horiz-adv-x="1024" 
d="M640 768v128h-384v-128h384zM768 640v128h-128v-128h128zM128 640h128v128h-128v-128zM768 256h128v384h-128v-384zM128 256v384h-128v-384h128zM640 128h128v128h-128v-128zM256 128v128h-128v-128h128zM640 128h-384v-128h384v128z" />
    <glyph glyph-name="P" unicode="P" horiz-adv-x="1024" 
d="M384 128h-128v256h512v128h-512v256h512v-256h128v256h-128v128h-768v-128h128v-640h-128v-128h384v128z" />
    <glyph glyph-name="Q" unicode="Q" horiz-adv-x="1152" 
d="M640 768v128h-384v-128h384zM768 640v128h-128v-128h128zM128 640h128v128h-128v-128zM768 256h128v384h-128v-384zM128 256v384h-128v-384h128zM640 256v128h-128v-128h128zM768 128v128h-128v-128h128zM256 128v128h-128v-128h128zM1024 128h-256v-128h256v128z
M640 128h-384v-128h384v128z" />
    <glyph glyph-name="R" unicode="R" horiz-adv-x="1152" 
d="M256 384h512v128h-512v256h512v-256h128v256h-128v128h-640v-768h-128v-128h256v384zM1024 128h-128v256h-128v-384h256v128z" />
    <glyph glyph-name="S" unicode="S" 
d="M512 768v128h-384v-128h384zM512 640h128v128h-128v-128zM128 512v256h-128v-256h128zM512 384v128h-384v-128h384zM512 128h128v256h-128v-256zM128 128v128h-128v-128h128zM512 128h-384v-128h384v128z" />
    <glyph glyph-name="T" unicode="T" 
d="M256 0h128v768h256v128h-640v-128h256v-768z" />
    <glyph glyph-name="U" unicode="U" horiz-adv-x="1280" 
d="M896 256h128v512h128v128h-384v-128h128v-512zM256 256v512h128v128h-384v-128h128v-512h128zM768 128h128v128h-128v-128zM384 128v128h-128v-128h128zM768 128h-384v-128h384v128z" />
    <glyph glyph-name="V" unicode="V" horiz-adv-x="1024" 
d="M640 512h128v256h128v128h-256v-384zM256 512v384h-256v-128h128v-256h128zM512 256h128v256h-128v-256zM384 256v256h-128v-256h128zM384 0h128v256h-128v-256z" />
    <glyph glyph-name="W" unicode="W" horiz-adv-x="1280" 
d="M896 512h128v256h128v128h-256v-384zM256 512v384h-256v-128h128v-256h128zM768 128h128v384h-128v-384zM640 128v384h-128v-384h128zM384 128v384h-128v-384h128zM640 0h128v128h-128v-128zM384 0h128v128h-128v-128z" />
    <glyph glyph-name="X" unicode="X" horiz-adv-x="1024" 
d="M640 640h128v128h128v128h-256v-256zM256 640v256h-256v-128h128v-128h128zM512 512h128v128h-128v-128zM384 512v128h-128v-128h128zM512 384v128h-128v-128h128zM640 256v128h-128v-128h128zM256 256h128v128h-128v-128zM896 128h-128v128h-128v-256h256v128zM256 256
h-128v-128h-128v-128h256v256z" />
    <glyph glyph-name="Y" unicode="Y" horiz-adv-x="1024" 
d="M640 512h128v256h128v128h-256v-384zM256 512v384h-256v-128h128v-256h128zM256 512v-128h128v-256h-128v-128h384v128h-128v256h128v128h-384z" />
    <glyph glyph-name="Z" unicode="Z" horiz-adv-x="896" 
d="M0 640h128v128h512v-128h-128v-128h-128v-128h-128v-128h-128v-128h-128v-128h768v256h-128v-128h-384v128h128v128h128v128h128v128h128v256h-768v-256z" />
    <glyph glyph-name="bracketleft" unicode="[" horiz-adv-x="512" 
d="M384 0h-256v768h256v128h-384v-1024h384v128z" />
    <glyph glyph-name="backslash" unicode="\" horiz-adv-x="640" 
d="M128 640v128h-128v-128h128zM256 384v256h-128v-256h128zM384 128v256h-128v-256h128zM384 0h128v128h-128v-128z" />
    <glyph glyph-name="bracketright" unicode="]" horiz-adv-x="512" 
d="M384 896h-384v-128h256v-768h-256v-128h384v1024z" />
    <glyph glyph-name="asciicircum" unicode="^" 
d="M512 896v128h-128v-128h128zM512 768h128v128h-128v-128zM256 768h128v128h-128v-128z" />
    <glyph glyph-name="underscore" unicode="_" 
d="M640 0h-640v-128h640v128z" />
    <glyph glyph-name="grave" unicode="`" horiz-adv-x="512" 
d="M256 640h128v256h-128v128h-128v-256h128v-128z" />
    <glyph glyph-name="a" unicode="a" horiz-adv-x="896" 
d="M512 512v128h-384v-128h384zM128 384v-128h-128v-128h128v-128h640v128h-128v384h-128v-128h-384v128h-128v-128h128zM128 128v128h384v-128h-384z" />
    <glyph glyph-name="b" unicode="b" 
d="M640 512h-128v128h-384v128h128v128h-384v-128h128v-768h512v128h-384v384h384v-384h128v384z" />
    <glyph glyph-name="c" unicode="c" 
d="M512 512v128h-384v-128h384zM512 384h128v128h-128v-128zM128 128v384h-128v-384h128zM512 128h128v128h-128v-128zM128 128v-128h384v128h-384z" />
    <glyph glyph-name="d" unicode="d" horiz-adv-x="896" 
d="M640 768h128v128h-256v-256h-384v-128h-128v-384h128v-128h512v768zM128 128v384h384v-384h-384z" />
    <glyph glyph-name="e" unicode="e" 
d="M512 512v128h-384v-128h384zM128 128v128h512v256h-128v-128h-384v128h-128v-384h128zM640 128h-512v-128h512v128z" />
    <glyph glyph-name="f" unicode="f" 
d="M512 768v128h-256v-128h256zM512 640h128v128h-128v-128zM384 128h-128v256h256v128h-256v256h-128v-256h-128v-128h128v-256h-128v-128h384v128z" />
    <glyph glyph-name="g" unicode="g" horiz-adv-x="896" 
d="M512 -384h128v896h128v128h-640v-128h-128v-384h128v-128h384v-384zM128 128v384h384v-384h-384zM128 -384v256h-128v-256h128zM128 -384v-128h384v128h-384z" />
    <glyph glyph-name="h" unicode="h" horiz-adv-x="1024" 
d="M384 128h-128v384h384v128h-384v256h-256v-128h128v-640h-128v-128h384v128zM896 128h-128v384h-128v-512h256v128z" />
    <glyph glyph-name="i" unicode="i" horiz-adv-x="512" 
d="M128 768h128v128h-128v-128zM384 128h-128v512h-256v-128h128v-384h-128v-128h384v128z" />
    <glyph glyph-name="j" unicode="j" horiz-adv-x="384" 
d="M128 768h128v128h-128v-128zM128 -128h128v768h-256v-128h128v-640zM-128 -128v128h-128v-128h128zM128 -128h-256v-128h256v128z" />
    <glyph glyph-name="k" unicode="k" horiz-adv-x="896" 
d="M256 384h128v-128h128v128h-128v128h-128v384h128v128h-256v-896h-128v-128h256v384zM512 640h128v128h-128v-128zM384 512h128v128h-128v-128zM768 128h-128v128h-128v-256h256v128z" />
    <glyph glyph-name="l" unicode="l" horiz-adv-x="384" 
d="M256 896h-256v-128h128v-640h-128v-128h256v896z" />
    <glyph glyph-name="m" unicode="m" horiz-adv-x="1280" 
d="M256 512h256v128h-512v-128h128v-384h-128v-128h256v512zM896 512v128h-256v-128h256zM512 0h128v512h-128v-512zM1152 128h-128v384h-128v-512h256v128z" />
    <glyph glyph-name="n" unicode="n" horiz-adv-x="896" 
d="M512 512v128h-256v-128h256zM128 512v128h-128v-128h128zM768 128h-128v384h-128v-512h256v128zM256 512h-128v-384h-128v-128h256v512z" />
    <glyph glyph-name="o" unicode="o" 
d="M512 512v128h-384v-128h384zM512 128h128v384h-128v-384zM128 128v384h-128v-384h128zM128 128v-128h384v128h-384z" />
    <glyph glyph-name="p" unicode="p" horiz-adv-x="896" 
d="M256 0h384v128h-384v384h384v-384h128v384h-128v128h-640v-128h128v-640h-128v-128h256v256z" />
    <glyph glyph-name="q" unicode="q" horiz-adv-x="1152" 
d="M1024 -128h-256v640h128v128h-640v-128h-128v-384h128v-128h384v-128h-128v-128h512v128zM256 128v384h384v-384h-384z" />
    <glyph glyph-name="r" unicode="r" 
d="M384 128h-128v384h256v128h-512v-128h128v-384h-128v-128h384v128zM512 256h128v256h-128v-256z" />
    <glyph glyph-name="s" unicode="s" 
d="M512 384h128v256h-384v-128h-128v-128h128v128h256v-128zM512 256v128h-256v-128h256zM512 128h128v128h-128v-128zM128 128v128h-128v-128h128zM512 128h-384v-128h384v128z" />
    <glyph glyph-name="t" unicode="t" horiz-adv-x="512" 
d="M256 128v384h128v128h-128v256h-128v-256h-128v-128h128v-384h128zM256 0h128v128h-128v-128z" />
    <glyph glyph-name="u" unicode="u" horiz-adv-x="1024" 
d="M256 128v-128h256v128h128v-128h256v128h-128v512h-128v-384h-128v-128h-256v512h-256v-128h128v-384h128z" />
    <glyph glyph-name="v" unicode="v" horiz-adv-x="1024" 
d="M640 256h128v256h128v128h-256v-384zM256 256v384h-256v-128h128v-256h128zM512 128h128v128h-128v-128zM384 128v128h-128v-128h128zM384 0h128v128h-128v-128z" />
    <glyph glyph-name="w" unicode="w" horiz-adv-x="1024" 
d="M640 256h128v256h128v128h-256v-384zM256 256v384h-256v-128h128v-256h128zM512 256v128h-128v-128h128zM512 0h128v256h-128v-256zM256 0h128v256h-128v-256z" />
    <glyph glyph-name="x" unicode="x" 
d="M384 384h128v128h128v128h-256v-256zM256 384v256h-256v-128h128v-128h128zM384 256v128h-128v-128h128zM640 128h-128v128h-128v-256h256v128zM256 256h-128v-128h-128v-128h256v256z" />
    <glyph glyph-name="y" unicode="y" 
d="M256 256v384h-256v-128h128v-256h128zM512 384h128v256h-128v-256zM384 256h128v128h-128v-128zM256 0h128v256h-128v-256zM128 -128h128v128h-128v-128zM128 -128h-256v-128h256v128z" />
    <glyph glyph-name="z" unicode="z" 
d="M0 384h128v128h256v-128h-128v-128h-128v-128h-128v-128h640v256h-128v-128h-256v128h128v128h128v128h128v128h-640v-256z" />
    <glyph glyph-name="braceleft" unicode="{" horiz-adv-x="512" 
d="M256 768h128v128h-128v-128zM128 384h128v384h-128v-384zM128 256v128h-128v-128h128zM256 -128v384h-128v-384h128zM256 -256h128v128h-128v-128z" />
    <glyph glyph-name="bar" unicode="|" horiz-adv-x="384" 
d="M128 -128h128v1024h-128v-1024z" />
    <glyph glyph-name="braceright" unicode="}" horiz-adv-x="512" 
d="M128 768v128h-128v-128h128zM256 384v384h-128v-384h128zM256 256h128v128h-128v-128zM128 -128h128v384h-128v-384zM0 -256h128v128h-128v-128z" />
    <glyph glyph-name="asciitilde" unicode="~" horiz-adv-x="896" 
d="M640 384h128v128h-128v-128zM384 384v128h-256v-128h256zM0 256h128v128h-128v-128zM640 384h-256v-128h256v128z" />
    <glyph glyph-name="uni00A0" unicode="&#xa0;" horiz-adv-x="640" 
 />
    <glyph glyph-name="exclamdown" unicode="&#xa1;" horiz-adv-x="384" 
d="M128 512h128v128h-128v-128zM128 -256h128v512h-128v-512z" />
    <glyph glyph-name="cent" unicode="&#xa2;" 
d="M512 640h128v128h-128v-128zM384 384h256v128h-128v128h-384v-128h256v-128zM128 0v128h128v128h-128v256h-128v-512h128zM256 256h128v128h-128v-128zM512 0h128v128h-128v-128zM-128 -128h128v128h-128v-128zM512 0h-384v-128h384v128z" />
    <glyph glyph-name="sterling" unicode="&#xa3;" 
d="M512 768v128h-256v-128h256zM512 640h128v128h-128v-128zM128 256h128v128h256v128h-256v256h-128v-256h-128v-128h128v-128zM640 128h-512v128h-128v-256h640v128z" />
    <glyph glyph-name="currency" unicode="&#xa4;" horiz-adv-x="1024" 
d="M256 0h384v-128h256v128h-128v640h128v128h-256v-128h-384v128h-256v-128h128v-640h-128v-128h256v128zM256 128v384h384v-384h-384z" />
    <glyph glyph-name="yen" unicode="&#xa5;" 
d="M512 768h128v128h-128v-128zM128 768v128h-128v-128h128zM384 640h128v128h-128v-128zM256 640v128h-128v-128h128zM256 0h128v128h128v128h-128v128h128v128h-128v128h-128v-128h-128v-128h128v-128h-128v-128h128v-128z" />
    <glyph glyph-name="brokenbar" unicode="&#xa6;" horiz-adv-x="384" 
d="M128 384h128v384h-128v-384zM128 -256h128v384h-128v-384z" />
    <glyph glyph-name="section" unicode="&#xa7;" horiz-adv-x="896" 
d="M640 768v128h-256v-128h256zM640 640h128v128h-128v-128zM384 512v256h-128v-256h128zM256 256v256h-128v-256h128zM640 384v128h-256v-128h256zM640 128h128v256h-128v-256zM512 128v128h-256v-128h256zM640 0v128h-128v-128h128zM640 -128h128v128h-128v-128zM256 -128
v128h-128v-128h128zM640 -128h-384v-128h384v128z" />
    <glyph glyph-name="dieresis" unicode="&#xa8;" 
d="M640 896h-256v-256h256v256zM256 896h-256v-256h256v256z" />
    <glyph glyph-name="copyright" unicode="&#xa9;" horiz-adv-x="1280" 
d="M896 768v128h-640v-128h640zM1024 640v128h-128v-128h128zM128 640h128v128h-128v-128zM1024 0h128v640h-128v-640zM128 0v640h-128v-640h128zM768 512v128h-384v-128h384zM768 384h128v128h-128v-128zM384 128v384h-128v-384h128zM768 128h128v128h-128v-128zM384 128
v-128h384v128h-384zM896 -128h128v128h-128v-128zM256 -128v128h-128v-128h128zM896 -128h-640v-128h640v128z" />
    <glyph glyph-name="ordfeminine" unicode="&#xaa;" horiz-adv-x="512" 
d="M256 768v128h-128v-128h128zM256 512h128v256h-128v-256zM0 512h128v128h-128v-128z" />
    <glyph glyph-name="guillemotleft" unicode="&#xab;" horiz-adv-x="640" 
d="M384 128h128v384h-128v-128h-256v-256h128v128h128v-128z" />
    <glyph glyph-name="logicalnot" unicode="&#xac;" 
d="M512 256h128v384h-512v-128h384v-256z" />
    <glyph glyph-name="registered" unicode="&#xae;" horiz-adv-x="1024" 
d="M640 768v128h-384v-128h384zM640 640h128v128h-128v-128zM0 256h128v384h-128v-384zM512 512h-128v128h-128v-256h256v128zM512 512h128v128h-128v-128zM768 256h128v256h-128v-256zM640 128h-384v-128h384v128z" />
    <glyph glyph-name="degree" unicode="&#xb0;" horiz-adv-x="512" 
d="M256 640h128v128h-128v-128zM128 512h128v128h-128v-128z" />
    <glyph glyph-name="plusminus" unicode="&#xb1;" horiz-adv-x="640" 
d="M256 128h128v256h128v128h-384v-128h128v-256z" />
    <glyph glyph-name="uni00B2" unicode="&#xb2;" horiz-adv-x="512" 
d="M256 768v128h-256v-128h256zM256 640h128v128h-128v-128z" />
    <glyph glyph-name="uni00B3" unicode="&#xb3;" horiz-adv-x="384" 
d="M128 640h128v256h-256v-128h128v-128zM128 384h128v128h-128v-128z" />
    <glyph glyph-name="acute" unicode="&#xb4;" horiz-adv-x="512" 
d="M384 896h-256v-128h256v128z" />
    <glyph glyph-name="uni00B5" unicode="&#xb5;" 
d="M128 -256h128v256h256v128h128v512h-128v-128h-128v-384h-128v512h-128v-896z" />
    <glyph glyph-name="paragraph" unicode="&#xb6;" 
d="M384 -128h128v896h128v128h-512v-128h-128v-384h256v384h128v-896z" />
    <glyph glyph-name="periodcentered" unicode="&#xb7;" horiz-adv-x="384" 
d="M128 384h128v128h-128v-128z" />
    <glyph glyph-name="cedilla" unicode="&#xb8;" horiz-adv-x="384" 
d="M128 -256h128v128h-128v-128z" />
    <glyph glyph-name="uni00B9" unicode="&#xb9;" horiz-adv-x="384" 
d="M128 512h128v384h-128v-384z" />
    <glyph glyph-name="ordmasculine" unicode="&#xba;" horiz-adv-x="512" 
d="M256 768v128h-128v-128h128zM256 512h128v256h-128v-256zM0 512h128v256h-128v-256z" />
    <glyph glyph-name="guillemotright" unicode="&#xbb;" horiz-adv-x="640" 
d="M384 128h128v384h-128v-384zM128 384h128v128h-128v-128zM128 128h128v128h-128v-128z" />
    <glyph glyph-name="onequarter" unicode="&#xbc;" horiz-adv-x="1024" 
d="M128 512h128v384h-128v-384zM512 512h128v128h-128v-128zM768 0h128v384h-128v-128h-128v-128h128v-128zM384 256h128v128h-128v-128z" />
    <glyph glyph-name="onehalf" unicode="&#xbd;" horiz-adv-x="1152" 
d="M128 512h128v384h-128v-384zM768 768h128v128h-128v-128zM512 512h128v128h-128v-128zM896 384v128h-128v-128h128zM896 256h128v128h-128v-128zM384 256h128v128h-128v-128zM256 128h128v128h-128v-128zM128 0h128v128h-128v-128zM896 128h-256v-128h256v128z" />
    <glyph glyph-name="threequarters" unicode="&#xbe;" horiz-adv-x="1024" 
d="M128 768h128v128h-128v-128zM256 512h128v128h-128v-128zM768 0h128v384h-128v-128h-128v-128h128v-128zM384 256h128v128h-128v-128z" />
    <glyph glyph-name="questiondown" unicode="&#xbf;" 
d="M256 128h128v256h-128v-256zM512 -128h-256v256h-128v-384h384v128zM512 -128h128v128h-128v-128z" />
    <glyph glyph-name="Euro" unicode="&#x20ac;" horiz-adv-x="896" 
d="M640 768v128h-512v-128h512zM640 640h128v128h-128v-128zM128 128v128h384v128h-384v128h384v128h-384v128h-128v-128h-128v-128h128v-128h-128v-128h128v-128h128zM640 128h128v128h-128v-128zM640 128h-512v-128h512v128z" />
    <glyph glyph-name="uni3000" unicode="&#x3000;" horiz-adv-x="2048" 
 />
    <glyph glyph-name="glyph2" horiz-adv-x="0" 
 />
    <glyph glyph-name="glyph1" horiz-adv-x="0" 
 />
  </font>
</defs>
</svg>
