<?xml version="1.0" standalone="no"?>
<!DOCTYPE svg PUBLIC "-//W3C//DTD SVG 1.1//EN" "http://www.w3.org/Graphics/SVG/1.1/DTD/svg11.dtd" >
<svg xmlns="http://www.w3.org/2000/svg" xmlns:xlink="http://www.w3.org/1999/xlink" version="1.1">
<metadata>
Created by FontForge 20170731 at Sat Sep 18 17:09:50 2021
 By Aleksey,,,
EmilyHuo
</metadata>
<defs>
<font id="RaccoonSerif-Bold" horiz-adv-x="1280" >
  <font-face 
    font-family="RaccoonSerif"
    font-weight="500"
    font-stretch="normal"
    units-per-em="2048"
    panose-1="2 0 6 3 0 0 0 0 0 0"
    ascent="1536"
    descent="-512"
    x-height="1024"
    cap-height="1536"
    bbox="-256 -512 1792 1536"
    underline-thickness="102"
    underline-position="-358"
    unicode-range="U+0020-3000"
  />
<missing-glyph horiz-adv-x="748" 
d="M68 0v1364h544v-1364h-544zM136 68h408v1228h-408v-1228z" />
    <glyph glyph-name=".notdef" horiz-adv-x="748" 
d="M68 0v1364h544v-1364h-544zM136 68h408v1228h-408v-1228z" />
    <glyph glyph-name=".null" horiz-adv-x="0" 
 />
    <glyph glyph-name="nonmarkingreturn" horiz-adv-x="682" 
 />
    <glyph glyph-name="space" unicode=" " horiz-adv-x="640" 
 />
    <glyph glyph-name="exclam" unicode="!" horiz-adv-x="640" 
d="M256 0v128h-128v128h128v128h128v-128h128v-128h-128v-128h-128zM256 512v128h-128v768h128v128h128v-128h128v-768h-128v-128h-128z" />
    <glyph glyph-name="quotedbl" unicode="&#x22;" horiz-adv-x="1024" 
d="M640 768v128v128h-128v384h384v-384h-128v-256h-128zM128 768v128v128h-128v384h384v-384h-128v-256h-128z" />
    <glyph glyph-name="numbersign" unicode="#" horiz-adv-x="1536" 
d="M768 0h-128v384h-256v-384h-256v384h-256v256h384v256h-256v256h384v384h256v-384h256v384h256v-384h256v-256h-384v-256h256v-256h-384v-384h-128zM640 640h128v256h-256v-256h128z" />
    <glyph glyph-name="dollar" unicode="$" horiz-adv-x="1408" 
d="M640 -256h-128v128h-256v128h-128v128h-128v256h256v-256h128v-128h128v640h-256v128h-256v512h256v128h256v128h256v-128h256v-128h128v-128h128v-256h-256v256h-128v128h-128v-512h256v-128h128v-128h128v-384h-128v-128h-128v-128h-256v-128h-128zM896 0v128h128v384
h-128v128h-128v-640h128zM512 768v128v384h-128v-128h-128v-256h128v-128h128z" />
    <glyph glyph-name="percent" unicode="%" horiz-adv-x="1792" 
d="M1408 0h-128h-256v128h-128v384h128v128h512v-128h128v-384h-128v-128h-128zM1280 128h128v384h-256v-384h128zM384 0h-128v128h128v256h128v128h128v256h128v128h128v256h128v256h128v128h256v-128h-128v-256h-128v-256h-128v-128h-128v-256h-128v-128h-128v-256h-128
v-128h-128zM640 768h-128h-384v128h-128v384h128v128h512v-128h128v-384h-128v-128zM384 896h128v384h-256v-384h128z" />
    <glyph glyph-name="ampersand" unicode="&#x26;" horiz-adv-x="1536" 
d="M1280 0v128h-128v128h-128v-128h-128v-128h-512v128h-128v128h-128v384h128v128h128v256h-128v256h128v128h640v-128h128v-256h-128v-128h-128v-256h256v-256h128v-128h128v-256h-128zM640 128h128v128h128v256h-128v128h-128v128h-128v-128h-128v-384h128v-128h128z
M1152 640v128h128v-128h-128zM768 896v128h128v256h-384v-256h128v-128h128z" />
    <glyph glyph-name="quotesingle" unicode="'" horiz-adv-x="512" 
d="M128 896v128v128h-128v384h384v-384h-128v-256h-128z" />
    <glyph glyph-name="parenleft" unicode="(" horiz-adv-x="768" 
d="M512 -256h-128v128h-128v128h-128v1280h128v128h128v128h256v-128h-128v-128h-128v-1280h128v-128h128v-128h-128z" />
    <glyph glyph-name="parenright" unicode=")" horiz-adv-x="512" 
d="M0 -256h-128v128h128v128h128v1280h-128v128h-128v128h256v-128h128v-128h128v-1280h-128v-128h-128v-128h-128z" />
    <glyph glyph-name="asterisk" unicode="*" horiz-adv-x="1024" 
d="M768 768h-128h-128v128h-128v-128h-384v256h128v128h-128v256h256v128h384v-128h256v-256h-128v-128h128v-256h-128z" />
    <glyph glyph-name="plus" unicode="+" horiz-adv-x="1152" 
d="M512 128h-128v384h-384v256h384v384h256v-384h384v-256h-384v-384h-128z" />
    <glyph glyph-name="comma" unicode="," horiz-adv-x="512" 
d="M128 -384h-128v128h128v128h-128v128h-128v256h128v128h256v-128h128v-512h-128v-128h-128z" />
    <glyph glyph-name="hyphen" unicode="-" horiz-adv-x="1024" 
d="M768 512h-128h-512v256h768v-256h-128z" />
    <glyph glyph-name="period" unicode="." horiz-adv-x="640" 
d="M256 0v128h-128v128h128v128h128v-128h128v-128h-128v-128h-128z" />
    <glyph glyph-name="slash" unicode="/" horiz-adv-x="896" 
d="M0 0h-128v128h128v256h128v256h128v256h128v256h128v256h256v-256h-128v-256h-128v-256h-128v-256h-128v-256h-128v-128h-128z" />
    <glyph glyph-name="zero" unicode="0" horiz-adv-x="1536" 
d="M1024 0h-128h-640v128h-128v128h-128v896h128v128h128v128h896v-128h128v-128h128v-896h-128v-128h-128v-128h-128zM768 128h128v128h128v640h-128v-256h-128v-256h-128v-256h128zM512 384v128v128h128v256h128v256h128v128h-384v-128h-128v-768h128z" />
    <glyph glyph-name="one" unicode="1" horiz-adv-x="1408" 
d="M1152 128h128v-128h-1152v128h384v1024h-128v-128h-256v128h128v128h128v128h512v-1280h256z" />
    <glyph glyph-name="two" unicode="2" 
d="M1024 0h-128h-896v384h128v128h128v128h128v128h256v128h128v384h-384v-256h-384v256h128v128h896v-128h128v-384h-128v-128h-128v-128h-128v-128h-128v-128h-256v-256h512v128h256v-256h-128z" />
    <glyph glyph-name="three" unicode="3" 
d="M896 0h-128h-640v128h-128v256h384v-256h256v128h128v256h-128v128h-256v256h384v256h-128v128h-256v-256h-384v256h128v128h896v-128h128v-384h-128v-256h128v-512h-128v-128h-128z" />
    <glyph glyph-name="four" unicode="4" horiz-adv-x="1408" 
d="M1152 0h-128h-384v128h128v256h-768v256h128v128h128v128h128v256h128v128h128v128h512v-1280h128v-128h-128zM640 512h128v512h-128v-256h-128v-128h-128v-128h256z" />
    <glyph glyph-name="five" unicode="5" horiz-adv-x="1408" 
d="M896 0h-128h-640v128h-128v256h256v-128h128v-128h384v128h128v512h-128v128h-384v-128h-128v-128h-256v768h1152v-128h-768v-256h640v-128h128v-128h128v-512h-128v-128h-128v-128h-128z" />
    <glyph glyph-name="six" unicode="6" horiz-adv-x="1408" 
d="M896 0h-128h-512v128h-128v128h-128v896h128v128h128v128h768v-128h128v-128h128v-128h-384v256h-384v-128h-128v-256h640v-128h128v-128h128v-384h-128v-128h-128v-128h-128zM640 128h128v128h128v384h-128v128h-256v-128h-128v-384h128v-128h128z" />
    <glyph glyph-name="seven" unicode="7" 
d="M512 0h-128h-128v512h128v256h128v256h128v128h128v128h-512v-128h-256v256h1152v-384h-128v-128h-128v-128h-128v-256h-128v-512h-128z" />
    <glyph glyph-name="eight" unicode="8" horiz-adv-x="1408" 
d="M896 0h-128h-512v128h-128v128h-128v384h128v128h128v128h-128v384h128v128h768v-128h128v-384h-128v-128h128v-128h128v-384h-128v-128h-128v-128h-128zM640 128h128v128h128v384h-128v128h-256v-128h-128v-384h128v-128h128zM640 896h128v128h128v128h-128v128h-256
v-128h-128v-128h128v-128h128z" />
    <glyph glyph-name="nine" unicode="9" horiz-adv-x="1408" 
d="M896 0h-128h-512v128h-128v128h384v-128h256v128h128v256h-640v128h-128v128h-128v384h128v128h128v128h768v-128h128v-128h128v-896h-128v-128h-128v-128h-128zM640 640h128v128h128v384h-128v128h-256v-128h-128v-384h128v-128h128z" />
    <glyph glyph-name="colon" unicode=":" horiz-adv-x="512" 
d="M256 0h-128v256h256v-256h-128zM256 768h-128v256h256v-256h-128z" />
    <glyph glyph-name="semicolon" unicode=";" horiz-adv-x="512" 
d="M128 -256v128h128v-128h-128zM256 -128v128h-128v256h256v-384h-128zM256 768h-128v256h256v-256h-128z" />
    <glyph glyph-name="less" unicode="&#x3c;" horiz-adv-x="1408" 
d="M1152 128h-128v128h-384v128h-256v128h-256v128h-128v128h128v128h256v128h256v128h256v128h384v-128h-128v-128h-256v-128h-256v-128h-256v-128h256v-128h256v-128h256v-128h128v-128h-128z" />
    <glyph glyph-name="equal" unicode="=" horiz-adv-x="1152" 
d="M896 384h-128h-768v256h1024v-256h-128zM896 768h-128h-768v256h1024v-256h-128z" />
    <glyph glyph-name="greater" unicode="&#x3e;" 
d="M384 256h-128h-256v128h256v128h256v128h256v128h-256v128h-256v128h-256v128h512v-128h256v-128h256v-128h128v-128h-128v-128h-256v-128h-256v-128h-128z" />
    <glyph glyph-name="question" unicode="?" horiz-adv-x="1152" 
d="M512 0h-128h-128v256h384v-256h-128zM512 384h-128h-128v256h128v128h256v128h128v384h-128v128h-256v-128h-128v-256h-384v256h128v128h128v128h768v-128h128v-512h-128v-128h-128v-128h-128v-256h-128z" />
    <glyph glyph-name="at" unicode="@" horiz-adv-x="1920" 
d="M1408 -384h-128h-1024v128h-128v256h-128v1024h128v128h128v128h128v128h1024v-128h128v-128h128v-128h128v-1152h-128v-128h-128v-128h-128zM1152 -256h128v128h128v128h-128v128h-128v-128h-512v128h-128v128h-128v512h128v128h128v128h512v-128h128v-640h128v-128h128
v896h-128v128h-128v128h-768v-128h-128v-128h-128v-1024h128v-128h128v-128h640zM896 128v128h128v512h-128v128h-128v-128h-128v-512h128v-128h128z" />
    <glyph glyph-name="A" unicode="A" horiz-adv-x="1664" 
d="M1408 0h-128h-256v640h-640v-640h-512v128h128v512h128v256h128v256h128v256h128v128h384v-128h128v-256h128v-256h128v-256h128v-512h128v-128h-128zM768 768h128v128h-128v256h-128v-256h-128v-128h256z" />
    <glyph glyph-name="B" unicode="B" horiz-adv-x="1536" 
d="M1024 0h-128h-896v1536h1024v-128h128v-128h128v-384h-128v-128h128v-128h128v-384h-128v-128h-128v-128h-128zM768 128h128v128h128v384h-128v128h-512v-640h384zM768 896h128v384h-128v128h-384v-512h384z" />
    <glyph glyph-name="C" unicode="C" horiz-adv-x="1792" 
d="M1152 0h-128h-640v128h-128v128h-128v128h-128v768h128v128h128v128h128v128h896v-128h128v-128h128v-128h128v-128h-512v256h-128v128h-384v-128h-128v-128h-128v-768h128v-128h128v-128h384v128h128v256h512v-128h-128v-128h-128v-128h-128v-128h-128z" />
    <glyph glyph-name="D" unicode="D" horiz-adv-x="1664" 
d="M1024 0h-128h-896v1536h1152v-128h128v-128h128v-128h128v-768h-128v-128h-128v-128h-128v-128h-128zM768 128h128v128h128v128h128v768h-128v128h-128v128h-512v-1280h384z" />
    <glyph glyph-name="E" unicode="E" horiz-adv-x="1536" 
d="M1280 0h-128h-1280v128h128v1280h-128v128h1536v-256h-384v128h-640v-512h640v-128h-640v-640h640v128h384v-256h-128z" />
    <glyph glyph-name="F" unicode="F" 
d="M384 0h-128h-384v128h128v1280h-128v128h1280v-256h-256v128h-512v-512h512v-128h-512v-640h128v-128h-128z" />
    <glyph glyph-name="G" unicode="G" horiz-adv-x="1920" 
d="M1280 0h-128h-768v128h-128v128h-128v128h-128v768h128v128h128v128h128v128h1152v-128h128v-256h-384v256h-640v-128h-128v-128h-128v-768h128v-128h128v-128h512v128h128v384h-512v128h1024v-128h-128v-384h-128v-128h-128v-128h-128z" />
    <glyph glyph-name="H" unicode="H" horiz-adv-x="1664" 
d="M1408 0h-128h-384v128h128v640h-640v-640h128v-128h-640v128h128v1280h-128v128h640v-128h-128v-512h640v512h-128v128h640v-128h-128v-1280h128v-128h-128z" />
    <glyph glyph-name="I" unicode="I" 
d="M1024 128h128v-128h-1152v128h384v1280h-384v128h1152v-128h-384v-1280h256z" />
    <glyph glyph-name="J" unicode="J" horiz-adv-x="1664" 
d="M768 0h-128h-512v128h-128v384h256v-256h128v-128h256v128h128v1152h-384v128h1152v-128h-384v-1152h-128v-128h-128v-128h-128z" />
    <glyph glyph-name="K" unicode="K" horiz-adv-x="1664" 
d="M1408 0h-128h-256v256h-128v128h-128v128h-128v128h-128v128h-128v-768h-512v128h128v1280h-128v128h512v-512h128v128h128v128h128v128h128v128h512v-128h-256v-128h-128v-128h-128v-128h-128v-256h128v-128h128v-128h128v-128h128v-128h128v-128h128v-128h-128z" />
    <glyph glyph-name="L" unicode="L" 
d="M1024 0h-128h-896v1408h-128v128h640v-128h-128v-1280h512v128h256v-256h-128z" />
    <glyph glyph-name="M" unicode="M" horiz-adv-x="1920" 
d="M1664 0h-128h-384v128h128v768h-128v-256h-128v-256h-384v256h-128v256h-128v-768h128v-128h-640v128h128v1408h384v-128h128v-128h128v-128h128v-256h256v256h128v128h128v128h128v128h256v-1408h128v-128h-128z" />
    <glyph glyph-name="N" unicode="N" horiz-adv-x="1664" 
d="M1280 0h-128h-128v256h-128v128h-128v256h-128v128h-128v128h-128v-768h128v-128h-640v128h128v1408h384v-128h128v-128h128v-128h128v-256h128v-128h128v640h-128v128h640v-128h-128v-1408h-128z" />
    <glyph glyph-name="O" unicode="O" horiz-adv-x="1920" 
d="M1152 0h-128h-512v128h-256v128h-128v256h-128v512h128v256h128v128h256v128h768v-128h256v-128h128v-256h128v-512h-128v-256h-128v-128h-256v-128h-128zM1152 256h128v256h128v512h-128v256h-768v-256h-128v-512h128v-256h640z" />
    <glyph glyph-name="P" unicode="P" horiz-adv-x="1536" 
d="M384 0h-128h-384v128h128v1408h1152v-128h128v-128h128v-384h-128v-128h-128v-128h-768v-512h128v-128h-128zM768 768h128v128h128v384h-128v128h-512v-640h384z" />
    <glyph glyph-name="Q" unicode="Q" horiz-adv-x="1792" 
d="M1536 -128h-128v128h-1024v128h-128v128h-128v128h-128v768h128v128h128v128h128v128h896v-128h128v-128h128v-128h128v-768h-128v-128h-128v-128h128v-128h128v-128h-128zM896 128h128v256h-128v128h256v-128h128v768h-128v128h-128v128h-384v-128h-128v-256h-128v-512
h128v-256h128v-128h256z" />
    <glyph glyph-name="R" unicode="R" horiz-adv-x="1664" 
d="M1408 0h-128h-384v128h128v128h-128v256h-128v128h-384v-512h128v-128h-640v128h128v1408h1152v-128h128v-128h128v-384h-128v-128h-128v-256h128v-256h128v-128h128v-128h-128zM768 768h128v128h128v384h-128v128h-512v-640h384z" />
    <glyph glyph-name="S" unicode="S" horiz-adv-x="1536" 
d="M896 0h-128h-512v128h-128v128h-128v128h-128v128h512v-256h128v-128h256v128h128v256h-128v128h-256v128h-256v128h-128v128h-128v256h128v128h128v128h768v-128h128v-128h128v-128h128v-128h-512v256h-128v128h-256v-128h-128v-256h128v-128h256v-128h256v-128h128
v-128h128v-256h-128v-128h-128v-128h-128z" />
    <glyph glyph-name="T" unicode="T" horiz-adv-x="1408" 
d="M640 0h-128h-128v1408h-256v-128h-256v256h1408v-256h-256v128h-256v-1408h-128z" />
    <glyph glyph-name="U" unicode="U" horiz-adv-x="1792" 
d="M1152 0h-128h-768v128h-128v128h-128v1152h-128v128h640v-128h-128v-1152h128v-128h512v128h128v1152h-128v128h640v-128h-128v-1152h-128v-128h-128v-128h-128z" />
    <glyph glyph-name="V" unicode="V" horiz-adv-x="1792" 
d="M768 0h-128h-128v128h-128v256h-128v256h-128v384h-128v256h-128v128h-128v128h640v-128h-128v-128h128v-256h128v-384h128v-256h128v256h128v384h128v256h128v128h-128v128h640v-128h-128v-128h-128v-256h-128v-384h-128v-256h-128v-256h-128v-128h-128z" />
    <glyph glyph-name="W" unicode="W" horiz-adv-x="1920" 
d="M1152 0h-128v256h-128v128h-256v-128h-128v-256h-256v256h-128v512h-128v384h-128v256h-128v128h512v-384h128v-512h128v128h128v256h256v-256h128v-128h128v512h128v384h512v-128h-128v-256h-128v-384h-128v-512h-128v-256h-128z" />
    <glyph glyph-name="X" unicode="X" horiz-adv-x="1664" 
d="M1408 0h-128h-256v256h-128v128h-128v128h-128v-128h-128v-128h-128v-256h-512v128h128v128h128v128h128v128h128v128h128v256h-128v128h-128v128h-128v128h-128v128h-128v128h512v-256h128v-128h128v-128h128v128h128v128h128v256h512v-128h-128v-128h-128v-128h-128
v-128h-128v-128h-128v-256h128v-128h128v-128h128v-128h128v-128h128v-128h-128z" />
    <glyph glyph-name="Y" unicode="Y" horiz-adv-x="1664" 
d="M896 0h-128h-384v128h128v640h-128v128h-128v128h-128v256h-128v128h-128v128h512v-256h128v-256h128v-128h128v128h128v256h128v256h512v-128h-128v-128h-128v-256h-128v-128h-128v-128h-128v-640h128v-128h-128z" />
    <glyph glyph-name="Z" unicode="Z" horiz-adv-x="1408" 
d="M0 1280v128v128h1280v-384h-128v-128h-128v-128h-128v-128h-128v-128h-128v-128h-128v-128h-128v-128h-128v-128h896v128h128v-256h-1280v512h128v128h128v128h128v128h128v128h128v128h128v128h128v128h-768v-128h-128z" />
    <glyph glyph-name="bracketleft" unicode="[" horiz-adv-x="768" 
d="M512 -384h-128h-384v1920h640v-256h-256v-1408h256v-256h-128z" />
    <glyph glyph-name="backslash" unicode="\" horiz-adv-x="896" 
d="M640 0h-128v128h-128v256h-128v256h-128v256h-128v256h-128v256h256v-256h128v-256h128v-256h128v-256h128v-256h128v-128h-128z" />
    <glyph glyph-name="bracketright" unicode="]" horiz-adv-x="640" 
d="M384 -384h-128h-384v256h256v1408h-256v256h640v-1920h-128z" />
    <glyph glyph-name="asciicircum" unicode="^" horiz-adv-x="1024" 
d="M768 768h-128v128h-128v256h-256v-256h-128v-128h-256v128h128v256h128v128h128v256h256v-256h128v-128h128v-256h128v-128h-128z" />
    <glyph glyph-name="underscore" unicode="_" 
d="M1024 -384h-128h-896v256h1152v-256h-128z" />
    <glyph glyph-name="grave" unicode="`" horiz-adv-x="896" 
d="M640 768v128h-128v128h-128v128h-128v128h-128v128h384v-128h128v-256h128v-256h-128z" />
    <glyph glyph-name="a" unicode="a" 
d="M1024 0h-128h-768v128h-128v384h128v128h512v256h-256v-128h-384v128h128v128h768v-128h128v-768h128v-128h-128zM512 128h128v384h-256v-384h128z" />
    <glyph glyph-name="b" unicode="b" 
d="M768 0h-128h-256v128h-128v-128h-384v128h128v1280h-128v128h512v-512h512v-128h128v-128h128v-512h-128v-128h-128v-128h-128zM640 128v128h128v512h-128v128h-128v-128h-128v-512h128v-128h128z" />
    <glyph glyph-name="c" unicode="c" 
d="M896 0h-128h-512v128h-128v128h-128v512h128v128h128v128h768v-128h128v-128h-256v128h-384v-128h-128v-512h128v-128h384v128h256v-128h-128v-128h-128z" />
    <glyph glyph-name="d" unicode="d" horiz-adv-x="1536" 
d="M1280 0h-128h-896v128h-128v128h-128v512h128v128h128v128h640v384h-128v128h512v-1408h128v-128h-128zM640 128h128v128h128v512h-128v128h-256v-128h-128v-512h128v-128h128z" />
    <glyph glyph-name="e" unicode="e" 
d="M896 0h-128h-512v128h-128v128h-128v512h128v128h128v128h768v-128h128v-384h-768v-256h128v-128h256v128h384v-128h-128v-128h-128zM768 640h128v128h-128v128h-256v-128h-128v-128h384z" />
    <glyph glyph-name="f" unicode="f" 
d="M640 0h-128h-384v128h128v640h-256v128h256v512h128v128h640v-128h128v-256h-256v256h-256v-512h384v-128h-384v-640h128v-128h-128z" />
    <glyph glyph-name="g" unicode="g" horiz-adv-x="1536" 
d="M896 -512h-128h-512v128h-128v128h384v-128h256v128h128v256h-640v128h-128v128h-128v512h128v128h128v128h1152v-128h-128v-1152h-128v-128h-128v-128h-128zM640 128h128v128h128v512h-128v128h-256v-128h-128v-512h128v-128h128z" />
    <glyph glyph-name="h" unicode="h" horiz-adv-x="1408" 
d="M1152 0h-128h-256v768h-128v128h-256v-896h-512v128h128v1280h-128v128h512v-512h512v-128h128v-128h128v-640h128v-128h-128z" />
    <glyph glyph-name="i" unicode="i" horiz-adv-x="640" 
d="M128 1152v128h-128v128h128v128h128v-128h128v-128h-128v-128h-128zM384 0h-128h-384v128h128v768h-128v128h512v-896h128v-128h-128z" />
    <glyph glyph-name="j" unicode="j" horiz-adv-x="768" 
d="M384 1152v128h-128v128h128v128h128v-128h128v-128h-128v-128h-128zM384 -512h-128h-256v128h-128v256h256v-128h128v1152h-128v128h512v-1408h-128v-128h-128z" />
    <glyph glyph-name="k" unicode="k" horiz-adv-x="1408" 
d="M1152 0h-128h-128v128h-128v128h-128v128h-128v-384h-512v128h128v1280h-128v128h512v-640h128v128h128v128h128v128h256v-256h-128v-128h-128v-128h-128v-256h128v-128h128v-128h128v-128h128v-128h-128z" />
    <glyph glyph-name="l" unicode="l" horiz-adv-x="640" 
d="M384 0h-128h-384v128h128v1280h-128v128h512v-1408h128v-128h-128z" />
    <glyph glyph-name="m" unicode="m" horiz-adv-x="1920" 
d="M1664 0h-128h-128v768h-128v128h-128v-128h-128v-640h128v-128h-512v896h-256v-768h128v-128h-768v128h256v768h-128v128h1024v-128h128v128h512v-128h128v-128h128v-768h-128z" />
    <glyph glyph-name="n" unicode="n" horiz-adv-x="1408" 
d="M1152 0h-128h-256v768h-128v128h-128v-128h-128v-640h128v-128h-640v128h128v768h-128v128h1152v-128h128v-768h128v-128h-128z" />
    <glyph glyph-name="o" unicode="o" horiz-adv-x="1408" 
d="M896 0h-128h-512v128h-128v128h-128v512h128v128h128v128h768v-128h128v-128h128v-512h-128v-128h-128v-128h-128zM640 128h128v128h128v512h-128v128h-256v-128h-128v-512h128v-128h128z" />
    <glyph glyph-name="p" unicode="p" 
d="M384 -512h-128h-384v128h128v1280h-128v128h1024v-128h128v-128h128v-512h-128v-128h-128v-128h-512v-384h128v-128h-128zM512 128h128v128h128v512h-128v128h-256v-768h128z" />
    <glyph glyph-name="q" unicode="q" horiz-adv-x="1664" 
d="M1152 -512h-128h-256v512h-512v128h-128v128h-128v512h128v128h128v128h1024v-128h-128v-1152h128v128h256v-128h-128v-128h-128v-128h-128zM640 128h128v768h-256v-128h-128v-512h128v-128h128z" />
    <glyph glyph-name="r" unicode="r" horiz-adv-x="1152" 
d="M384 0h-128h-384v128h128v768h-128v128h384v-128h128v128h512v-128h128v-256h-384v256h-128v-128h-128v-640h128v-128h-128z" />
    <glyph glyph-name="s" unicode="s" horiz-adv-x="1152" 
d="M768 0h-128h-512v128h-128v128h384v-128h256v256h-256v128h-256v128h-128v256h128v128h640v-128h128v-128h-256v128h-256v-256h256v-128h256v-128h128v-256h-128v-128h-128z" />
    <glyph glyph-name="t" unicode="t" horiz-adv-x="1024" 
d="M640 0h-128h-256v128h-128v768h-256v128h256v512h384v-512h384v-128h-384v-768h128v128h256v-128h-128v-128h-128z" />
    <glyph glyph-name="u" unicode="u" horiz-adv-x="1536" 
d="M1280 0h-128h-128v128h-128v-128h-640v128h-128v128h-128v640h-128v128h512v-768h128v-128h256v128h128v640h-128v128h512v-896h128v-128h-128z" />
    <glyph glyph-name="v" unicode="v" horiz-adv-x="1408" 
d="M640 0h-128h-128v128h-128v128h-128v256h-128v384h-128v128h512v-512h128v-256h128v256h128v512h512v-128h-128v-384h-128v-256h-128v-128h-128v-128h-128z" />
    <glyph glyph-name="w" unicode="w" horiz-adv-x="1664" 
d="M1024 0h-128h-128v256h-128v-256h-384v256h-128v256h-128v384h-128v128h512v-512h128v256h384v-256h128v512h512v-128h-128v-384h-128v-256h-128v-256h-128z" />
    <glyph glyph-name="x" unicode="x" 
d="M1024 0h-128h-128v128h-128v128h-128v-128h-128v-128h-384v128h128v128h128v128h128v256h-128v128h-128v128h-128v128h384v-128h128v-128h128v128h128v128h384v-128h-128v-128h-128v-128h-128v-256h128v-128h128v-128h128v-128h-128z" />
    <glyph glyph-name="y" unicode="y" 
d="M384 -384h-128h-256v128h256v256h128v256h-128v128h-128v256h-128v256h-128v128h384v-256h128v-256h128v128h128v384h512v-128h-128v-256h-128v-384h-128v-256h-128v-256h-128v-128h-128z" />
    <glyph glyph-name="z" unicode="z" horiz-adv-x="1152" 
d="M896 0h-128h-768v256h128v128h128v128h128v128h128v128h128v128h-384v-128h-256v256h1024v-256h-128v-128h-128v-128h-128v-128h-128v-128h-128v-128h384v128h256v-256h-128z" />
    <glyph glyph-name="braceleft" unicode="{" horiz-adv-x="896" 
d="M640 -384h128v-128h-384v128h-128v768h-128v128h-128v128h128v128h128v640h128v128h384v-128h-256v-640h-128v-128h-128v-128h128v-128h128v-768h128z" />
    <glyph glyph-name="bar" unicode="|" horiz-adv-x="512" 
d="M256 -384h-128v1920h256v-1920h-128z" />
    <glyph glyph-name="braceright" unicode="}" horiz-adv-x="896" 
d="M256 -512h-128h-128v128h256v768h128v128h128v128h-128v128h-128v640h-256v128h384v-128h128v-640h128v-128h128v-128h-128v-128h-128v-768h-128v-128h-128z" />
    <glyph glyph-name="asciitilde" unicode="~" horiz-adv-x="1664" 
d="M1152 256h-128h-384v128h-128v256h-128v-128h-128v-256h-384v256h128v256h128v128h512v-128h128v-128h128v-128h128v128h128v256h384v-256h-128v-256h-128v-128h-128z" />
    <glyph glyph-name="uni00A0" unicode="&#xa0;" horiz-adv-x="640" 
 />
    <glyph glyph-name="exclamdown" unicode="&#xa1;" horiz-adv-x="768" 
d="M384 640v128h-128v128h128v128h128v-128h128v-128h-128v-128h-128zM512 -384h-128h-128v768h128v128h128v-128h128v-768h-128z" />
    <glyph glyph-name="cent" unicode="&#xa2;" 
d="M128 -256h-128v256h128v128h-128v128h-128v640h128v128h128v128h640v128h128v128h256v-128h-128v-256h128v-256h-256v128h-128v-256h-128v-256h-128v-128h384v128h256v-256h-256v-128h-640v-256h-128zM384 384v128v128h128v256h128v128h-256v-128h-128v-512h128z" />
    <glyph glyph-name="sterling" unicode="&#xa3;" horiz-adv-x="1152" 
d="M896 128h128v-128h-1152v256h128v128h128v256h-256v128h256v128h-128v512h128v128h768v-128h128v-256h-256v128h-128v128h-256v-512h128v-128h384v-128h-384v-256h-128v-256h512z" />
    <glyph glyph-name="currency" unicode="&#xa4;" horiz-adv-x="1152" 
d="M896 256h-128h-384v128h-128v-128h-256v128h128v128h-128v384h128v128h-128v128h256v-128h128v128h640v-128h-128v-128h128v-384h-128v-128h128v-128h-128zM512 384h128v128h128v384h-128v128h-256v-128h-128v-384h128v-128h128z" />
    <glyph glyph-name="yen" unicode="&#xa5;" horiz-adv-x="1664" 
d="M896 0h-128h-384v128h128v256h-384v128h384v128h-384v128h256v128h-128v128h-128v256h-128v128h-128v128h512v-256h128v-256h128v-128h128v128h128v256h128v256h512v-128h-128v-128h-128v-256h-128v-128h-128v-128h256v-128h-384v-128h384v-128h-384v-256h128v-128h-128z
" />
    <glyph glyph-name="brokenbar" unicode="&#xa6;" horiz-adv-x="512" 
d="M256 -384h-128v768h256v-768h-128zM256 640h-128v768h256v-768h-128z" />
    <glyph glyph-name="section" unicode="&#xa7;" horiz-adv-x="1152" 
d="M768 1024v128v128h128v-256h-128zM768 -384h-128h-512v128h-128v256h256v-256h384v256h-128v128h-128v128h-256v128h-128v896h128v128h640v-128h-512v-256h128v-128h128v-128h256v-128h128v-128h128v-768h-128v-128h-128zM768 128v128v256h-256v128h-256v-256h128v-128
h256v-128h128z" />
    <glyph glyph-name="dieresis" unicode="&#xa8;" horiz-adv-x="896" 
d="M640 1152h-128v256h256v-256h-128zM128 1152h-128v256h256v-256h-128z" />
    <glyph glyph-name="copyright" unicode="&#xa9;" horiz-adv-x="1664" 
d="M1024 896v128h128v-128h-128zM1024 128h128v-128h-768v128h640zM1152 128v128h128v-128h-128zM384 128h-128v128h128v-128zM1280 256v128h128v-128h-128zM896 384h128v-128h-512v128h384zM256 256h-128v128h128v-128zM1408 384v128v512h128v-640h-128zM1024 384v128h128
v-128h-128zM512 384h-128v128h128v-128zM128 384h-128v640h128v-640zM384 512h-128v384h128v-384zM384 896v128h128v-128h-128zM1408 1024h-128v128h128v-128zM1024 1024h-128h-384v128h512v-128zM128 1024v128h128v-128h-128zM1280 1152h-128v128h128v-128zM256 1152v128
h128v-128h-128zM1152 1280h-128h-640v128h768v-128z" />
    <glyph glyph-name="ordfeminine" unicode="&#xaa;" horiz-adv-x="768" 
d="M128 1280v128h128v-128h-128zM512 768h-128h-256v128h-128v128h128v128h256v-128h-128v-128h256v512h128v-640h-128zM512 1408h-128h-128v128h256v-128z" />
    <glyph glyph-name="guillemotleft" unicode="&#xab;" horiz-adv-x="1024" 
d="M768 128v128h-128v128h-128v-256h-128v128h-128v128h-128v256h128v128h128v-384h128v256h128v128h128v-384h128v-256h-128zM768 768v128h128v-128h-128zM384 768v128h128v-128h-128z" />
    <glyph glyph-name="logicalnot" unicode="&#xac;" horiz-adv-x="1152" 
d="M896 384v128v384h-768v128h896v-640h-128z" />
    <glyph glyph-name="registered" unicode="&#xae;" horiz-adv-x="1536" 
d="M896 384v128h128v-128h-128zM384 384v128v640h512v-128h128v-256h-128v256h-384v-256h384v-256h-128v128h-256v-256h-128zM896 128h128v-128h-640v128h512zM1024 128v128h128v-128h-128zM384 128h-128v128h128v-128zM1152 256v128h128v-128h-128zM256 256h-128v128h128
v-128zM1280 384v128v512h128v-640h-128zM128 384h-128v640h128v-640zM1280 1024h-128v256h128v-256zM128 1024v128v128h128v-256h-128zM1152 1280h-128h-128v128h256v-128zM384 1408h128v-128h-256v128h128zM896 1408h-128h-256v128h384v-128z" />
    <glyph glyph-name="macron" unicode="&#xaf;" 
d="M1024 896h128v-128h-1024v128h896z" />
    <glyph glyph-name="degree" unicode="&#xb0;" horiz-adv-x="768" 
d="M384 1024h128v-128h-256v128h128zM512 1024v128v128h128v-256h-128zM256 1024h-128v256h128v-256zM512 1280h-128h-128v128h256v-128z" />
    <glyph glyph-name="plusminus" unicode="&#xb1;" horiz-adv-x="1152" 
d="M896 256h128v-128h-896v128h384v384h-384v128h384v256h128v-256h384v-128h-384v-384h256z" />
    <glyph glyph-name="uni00B2" unicode="&#xb2;" horiz-adv-x="768" 
d="M0 1280v128h128v-128h-128zM512 896h128v-128h-640v128h128v128h128v-128h256zM384 1152h128v-128h-256v128h128zM512 1152v128v128h128v-256h-128zM512 1408h-128h-256v128h384v-128z" />
    <glyph glyph-name="uni00B3" unicode="&#xb3;" horiz-adv-x="640" 
d="M0 1280v128h128v-128h-128zM384 640h-128h-128v128h256v256h-256v128h256v256h128v-768h-128zM128 768h-128v128h128v-128zM384 1408h-128h-128v128h256v-128z" />
    <glyph glyph-name="acute" unicode="&#xb4;" horiz-adv-x="768" 
d="M384 1280h-128v128h128v128h256v-128h-128v-128h-128z" />
    <glyph glyph-name="uni00B5" unicode="&#xb5;" horiz-adv-x="1152" 
d="M256 -384h-128v1408h256v-896h384v896h256v-896h-128v-128h-512v-384h-128z" />
    <glyph glyph-name="paragraph" unicode="&#xb6;" 
d="M768 -384v128v1536h-256v-1664h-128v1024h-256v128h-128v512h128v128h1024v-128h-256v-1664h-128z" />
    <glyph glyph-name="periodcentered" unicode="&#xb7;" horiz-adv-x="512" 
d="M256 640v128v128h128v-256h-128z" />
    <glyph glyph-name="cedilla" unicode="&#xb8;" horiz-adv-x="640" 
d="M384 -384h-128h-128v128h256v128h128v-256h-128zM384 -128h-128v128h128v-128z" />
    <glyph glyph-name="uni00B9" unicode="&#xb9;" horiz-adv-x="640" 
d="M384 768h-128v384h-128v256h384v-640h-128z" />
    <glyph glyph-name="ordmasculine" unicode="&#xba;" horiz-adv-x="768" 
d="M384 896h128v-128h-384v128h256zM512 896v128v256h128v-384h-128zM128 896h-128v384h128v-384zM512 1280h-128h-256v128h384v-128z" />
    <glyph glyph-name="guillemotright" unicode="&#xbb;" horiz-adv-x="1024" 
d="M512 0v128h128v-128h-128zM128 0v128h128v-128h-128zM640 128v128v128h128v-256h-128zM256 128v128v128h128v-256h-128zM768 384v128v128h128v-256h-128zM384 384v128v128h128v-256h-128zM768 640h-128v256h128v-256zM384 640h-128v256h128v-256zM640 896h-128v128h128
v-128zM256 896h-128v128h128v-128z" />
    <glyph glyph-name="onequarter" unicode="&#xbc;" horiz-adv-x="1792" 
d="M1408 0v128h-384v128h128v256h128v128h128v128h128v-512h128v-128h-128v-128h-128zM384 128v128h128v-128h-128zM1408 256v128h-128v-128h128zM512 256v128h128v-128h-128zM640 384v128v128h128v128h128v-256h-128v-128h-128zM896 768v128v128h128v128h128v-256h-128
v-128h-128zM384 768h-128v384h-128v256h384v-640h-128zM1152 1152v128h128v-128h-128zM1280 1280v128h128v-128h-128z" />
    <glyph glyph-name="onehalf" unicode="&#xbd;" horiz-adv-x="1792" 
d="M1152 512v128h128v-128h-128zM1536 128h128v-128h-640v128h128v128h256v-128h128zM384 0h-128v128h128v128h128v-256h-128zM1408 256v128h128v-128h-128zM512 256v128v128h128v128h128v-256h-128v-128h-128zM1536 384v128h-128v128h-128v128h256v-128h128v-256h-128z
M768 640v128h128v-128h-128zM896 768v128v128h128v128h128v-256h-128v-128h-128zM384 768h-128v384h-128v256h384v-640h-128zM1152 1152v128v128h128v128h128v-256h-128v-128h-128z" />
    <glyph glyph-name="threequarters" unicode="&#xbe;" horiz-adv-x="1792" 
d="M1408 0v128h-384v128h128v256h128v128h128v128h128v-512h128v-128h-128v-128h-128zM384 0v128v128h128v-256h-128zM128 1280v128h128v-128h-128zM1408 256v128h-128v-128h128zM512 256v128h128v-128h-128zM640 384v128v128h128v128h128v-256h-128v-128h-128zM896 768v128
h128v-128h-128zM512 768h-128h-256v128h384v128h128v-256h-128zM1024 896v128v128h128v-256h-128zM512 1024h-128h-128v128h128v256h256v-128h-128v-256zM1152 1152v128h128v-128h-128zM1280 1280v128h128v-128h-128zM384 1408h-128v128h128v-128z" />
    <glyph glyph-name="questiondown" unicode="&#xbf;" horiz-adv-x="1152" 
d="M768 -384h-128h-384v128h-128v384h128v128h128v128h128v256h256v-128h-128v-256h-128v-128h-128v-384h384v128h128v128h128v-256h-128v-128h-128zM640 1024h128v-128h-256v128h128z" />
    <glyph glyph-name="Euro" unicode="&#x20ac;" 
d="M896 0h-128h-512v128h-128v128h-128v256h-256v128h256v128h-256v128h256v256h128v128h128v128h768v-128h128v-256h-256v128h-128v128h-256v-128h-128v-256h640v-128h-640v-128h640v-128h-640v-256h128v-128h256v128h128v128h256v-256h-128v-128h-128z" />
    <glyph glyph-name="uni3000" unicode="&#x3000;" horiz-adv-x="2048" 
 />
  </font>
</defs>
</svg>
